<?xml version="1.0" encoding="UTF-8"?> <svg xmlns="http://www.w3.org/2000/svg" width="200" height="56" viewBox="0 0 200 56" fill="none"> <path d="M22.304 39.0042C22.404 36.4042 20.404 34.2042 17.804 34.1042C15.204 34.0042 13.004 36.0042 12.904 38.6042C12.804 41.2042 14.804 43.4042 17.404 43.5042C20.004 43.6042 22.204 41.6042 22.304 39.0042Z" fill="#FFDC35"></path> <path d="M22.704 32.1042C23.504 30.3042 22.804 28.2042 21.004 27.4042C19.204 26.6042 17.104 27.3042 16.204 29.1042C15.404 30.9042 16.104 33.0042 17.904 33.9042C19.704 34.6042 21.904 33.9042 22.704 32.1042Z" fill="#FFDC35"></path> <path d="M26.804 30.8042C25.604 31.2042 25.004 32.5042 25.504 33.7042C25.904 34.9042 27.204 35.5042 28.404 35.1042C29.604 34.7042 30.204 33.4042 29.704 32.2042C29.304 30.9042 28.004 30.3042 26.804 30.8042ZM27.104 31.6042C27.804 31.3042 28.504 31.7042 28.804 32.4042C29.004 33.1042 28.704 33.8042 28.004 34.1042C27.304 34.4042 26.604 34.0042 26.304 33.3042C26.104 32.6042 26.404 31.9042 27.104 31.6042Z" fill="#FFDC35"></path> <path d="M32.2043 33.3041C31.8043 34.1041 32.2043 35.0041 32.9043 35.3041C33.7043 35.7041 34.6043 35.3041 34.9043 34.6041C35.3043 33.8041 34.9043 32.9041 34.2043 32.6041C33.5043 32.2041 32.5043 32.5041 32.2043 33.3041ZM32.8043 33.6041C33.0043 33.1041 33.5043 33.0041 34.0043 33.2041C34.4043 33.4041 34.6043 33.9041 34.4043 34.4041C34.2043 34.8041 33.7043 35.0041 33.2043 34.8041C32.8043 34.5041 32.6043 34.0041 32.8043 33.6041Z" fill="#FFDC35"></path> <path d="M45.6042 40.4042C43.0042 40.7042 41.1042 43.0042 41.4042 45.5042C41.7042 48.1042 44.0042 50.0042 46.5042 49.7042C49.1042 49.4042 51.0042 47.1042 50.7042 44.6042C50.4042 42.0042 48.1042 40.1042 45.6042 40.4042Z" fill="#14A538"></path> <path d="M38.6041 39.8042C36.7041 39.2042 34.7041 40.3042 34.1041 42.2042C33.5041 44.1042 34.6041 46.1042 36.5041 46.7042C38.4041 47.3042 40.4041 46.2042 41.0041 44.3042C41.6041 42.4042 40.5041 40.4042 38.6041 39.8042Z" fill="#14A538"></path> <path d="M39.104 33.5041C37.904 33.9041 37.304 35.2041 37.704 36.4041C38.104 37.6041 39.404 38.2041 40.604 37.8041C41.804 37.4041 42.404 36.1041 42.004 34.9041C41.504 33.6041 40.204 33.0041 39.104 33.5041ZM39.404 34.3041C40.104 34.1041 40.804 34.4041 41.104 35.1041C41.404 35.8041 41.004 36.5041 40.304 36.8041C39.604 37.1041 38.904 36.7041 38.604 36.0041C38.304 35.4041 38.704 34.6041 39.404 34.3041Z" fill="#14A538"></path> <path d="M39.404 28.7042C39.004 29.5042 39.404 30.4042 40.104 30.7042C40.904 31.1042 41.804 30.7042 42.104 30.0042C42.404 29.3042 42.104 28.3042 41.404 28.0042C40.604 27.6042 39.704 27.9042 39.404 28.7042ZM40.004 29.0042C40.204 28.5042 40.704 28.4042 41.204 28.6042C41.604 28.8042 41.804 29.3042 41.604 29.8042C41.404 30.3042 40.904 30.4042 40.404 30.2042C39.904 29.9042 39.704 29.4042 40.004 29.0042Z" fill="#14A538"></path> <path d="M28.304 10.7042C28.404 8.10419 26.404 5.90419 23.804 5.80419C21.204 5.70419 19.004 7.70419 18.904 10.3042C18.804 12.9042 20.804 15.1042 23.404 15.2042C26.004 15.4042 28.204 13.3042 28.304 10.7042ZM26.404 10.7042C26.304 12.2042 25.104 13.4042 23.504 13.3042C22.004 13.2042 20.804 12.0042 20.904 10.4042C21.004 8.90419 22.204 7.70419 23.804 7.80419C25.304 7.90419 26.404 9.10419 26.404 10.7042Z" fill="#38A8E0"></path> <path d="M35.204 13.9042C36.004 12.1042 35.304 10.0042 33.504 9.10418C31.704 8.30418 29.604 9.10418 28.704 10.8042C27.904 12.6042 28.604 14.7042 30.404 15.6042C32.204 16.5042 34.304 15.7042 35.204 13.9042ZM33.804 13.3042C33.304 14.3042 32.104 14.8042 31.004 14.3042C30.004 13.8042 29.504 12.6042 30.004 11.5042C30.504 10.5042 31.704 10.0042 32.804 10.5042C33.804 11.0042 34.304 12.3042 33.804 13.3042Z" fill="#38A8E0"></path> <path d="M29.0039 18.7042C27.8039 19.1042 27.2039 20.4042 27.6039 21.6042C28.0039 22.8042 29.3039 23.4042 30.5039 23.0042C31.7039 22.6042 32.3039 21.3042 31.8039 20.1042C31.5039 18.9042 30.2039 18.3042 29.0039 18.7042ZM29.3039 19.6042C30.0039 19.4042 30.7039 19.7042 31.0039 20.4042C31.3039 21.1042 30.9039 21.8042 30.2039 22.1042C29.5039 22.3042 28.8039 22.0042 28.5039 21.3042C28.3039 20.6042 28.7039 19.8042 29.3039 19.6042Z" fill="#38A8E0"></path> <path d="M27.5041 26.4042C27.1041 27.2042 27.5041 28.1042 28.2041 28.4042C29.0041 28.8042 29.9041 28.4042 30.2041 27.7042C30.6041 26.9042 30.2041 26.0042 29.5041 25.7042C28.7041 25.3042 27.8041 25.7042 27.5041 26.4042ZM28.1041 26.7042C28.3041 26.2042 28.8041 26.1042 29.3041 26.3042C29.8041 26.5042 29.9041 27.0042 29.7041 27.5042C29.5041 27.9042 29.0041 28.1042 28.5041 27.9042C28.0041 27.7042 27.9041 27.2042 28.1041 26.7042Z" fill="#38A8E0"></path> <path d="M52.1043 11.9042C49.5043 11.8042 47.3043 13.8042 47.2043 16.4042C47.1043 19.0042 49.1043 21.2042 51.7043 21.3042C54.3043 21.4042 56.5043 19.4042 56.6043 16.8042C56.7043 14.2042 54.7043 12.0042 52.1043 11.9042Z" fill="#E50069"></path> <path d="M51.6041 21.7042C49.8041 20.9042 47.7041 21.6042 46.8041 23.4042C46.0041 25.2042 46.7041 27.3042 48.5041 28.2042C50.3041 29.0042 52.4041 28.3042 53.3041 26.5042C54.1041 24.6042 53.3041 22.5042 51.6041 21.7042Z" fill="#E50069"></path> <path d="M41.3042 21.4042C40.1042 21.8042 39.5042 23.1042 39.9042 24.3042C40.3042 25.5042 41.6042 26.1042 42.8042 25.7042C44.0042 25.3042 44.6042 24.0042 44.2042 22.8042C43.8042 21.6042 42.5042 21.0042 41.3042 21.4042ZM41.6042 22.3042C42.3042 22.0042 43.0042 22.4042 43.3042 23.1042C43.6042 23.8042 43.2042 24.5042 42.5042 24.8042C41.8042 25.0042 41.1042 24.7042 40.8042 24.0042C40.6042 23.3042 40.9042 22.6042 41.6042 22.3042Z" fill="#E50069"></path> <path d="M34.7043 21.8042C34.3043 22.6042 34.7043 23.5042 35.4043 23.8042C36.2043 24.2042 37.1043 23.8042 37.4043 23.1042C37.8043 22.3042 37.4043 21.4042 36.7043 21.1042C35.9043 20.7042 35.0043 21.1042 34.7043 21.8042ZM35.2043 22.1042C35.4043 21.6042 35.9043 21.5042 36.4043 21.7042C36.8043 21.9042 37.0043 22.4042 36.8043 22.9042C36.6043 23.4042 36.1043 23.5042 35.6043 23.3042C35.2043 23.1042 35.0043 22.6042 35.2043 22.1042Z" fill="#E50069"></path> <path d="M18.2042 20.2042C16.4042 18.3042 13.5042 18.2042 11.5042 19.9042C9.60417 21.7042 9.50417 24.6042 11.2042 26.6042C13.0042 28.5042 15.9042 28.6042 17.9042 26.9042C19.8042 25.1042 20.0042 22.2042 18.2042 20.2042Z" fill="#8B8788"></path> <path d="M33.9044 44.5042C32.1044 42.6042 29.2044 42.5042 27.2044 44.2042C25.3044 46.0042 25.2044 48.9042 26.9044 50.8042C28.7044 52.7042 31.6044 52.8042 33.6044 51.1042C35.6044 49.4042 35.7044 46.4042 33.9044 44.5042ZM32.5044 45.8042C33.5044 46.9042 33.5044 48.7042 32.3044 49.7042C31.2044 50.7042 29.4044 50.7042 28.4044 49.5042C27.4044 48.4042 27.4044 46.6042 28.6044 45.6042C29.7044 44.7042 31.5044 44.7042 32.5044 45.8042Z" fill="#8B8788"></path> <path d="M35.804 4.20417C33.904 6.00417 33.804 8.90417 35.504 10.9042C37.304 12.8042 40.204 12.9042 42.104 11.2042C44.004 9.40417 44.104 6.50417 42.404 4.50417C40.704 2.60417 37.804 2.50417 35.804 4.20417Z" fill="#8B8788"></path> <path d="M51.6043 28.5042C49.7043 30.3042 49.6043 33.2042 51.3043 35.2042C53.1043 37.1042 56.0043 37.2042 57.9043 35.5042C59.8043 33.7042 59.9043 30.8042 58.2043 28.8042C56.5043 26.9042 53.5043 26.8042 51.6043 28.5042Z" fill="#8B8788"></path> <path d="M25.3041 17.7042C24.6041 15.8042 22.6041 14.9042 20.7041 15.6042C18.8041 16.3042 17.9041 18.3042 18.6041 20.2042C19.3041 22.1042 21.3041 23.0042 23.2041 22.3042C25.0041 21.6042 26.0041 19.5042 25.3041 17.7042ZM23.9041 18.2042C24.3041 19.3042 23.7041 20.5042 22.7041 20.9042C21.6041 21.3042 20.4041 20.7042 20.0041 19.7042C19.6041 18.6042 20.2041 17.4042 21.2041 17.0042C22.3041 16.6042 23.5041 17.1042 23.9041 18.2042Z" fill="#8B8788"></path> <path d="M29.3041 39.3042C28.6041 37.4042 26.6041 36.5042 24.7041 37.2042C22.8041 37.9042 21.9041 39.9042 22.6041 41.8042C23.3041 43.7042 25.3041 44.6042 27.2041 43.9042C29.0041 43.2042 30.0041 41.2042 29.3041 39.3042Z" fill="#8B8788"></path> <path d="M42.3042 11.6042C40.4042 12.3042 39.5042 14.3042 40.2042 16.2042C40.9042 18.1042 42.9042 19.0042 44.8042 18.3042C46.7042 17.6042 47.6042 15.6042 46.9042 13.7042C46.3042 11.8042 44.2042 10.9042 42.3042 11.6042Z" fill="#8B8788"></path> <path d="M46.3042 33.2042C44.4042 33.9042 43.5042 35.9042 44.2042 37.8042C44.9042 39.7042 46.9042 40.6042 48.8042 39.9042C50.7042 39.2042 51.6042 37.2042 50.9042 35.3042C50.2042 33.5042 48.2042 32.5042 46.3042 33.2042Z" fill="#8B8788"></path> <path d="M77.5041 10.5676H73.7041V24.4676H77.5041V10.5676Z" fill="black"></path> <path d="M109.104 10.5676V24.4676H105.704L99.0039 15.0676C99.0039 15.2676 99.0039 15.4676 99.0039 15.5676C99.0039 15.7676 99.1039 15.9676 99.1039 16.1676V24.4676H96.0039V10.5676H100.304L106.104 18.7676C106.004 18.3676 106.004 18.0676 106.004 17.8676V10.5676H109.104V10.5676Z" fill="black"></path> <path d="M93.204 10.5676V24.4676H89.804L83.104 15.0676C83.104 15.2676 83.104 15.4676 83.104 15.5676C83.104 15.7676 83.204 15.9676 83.204 16.1676V24.4676H80.104V10.5676H84.404L90.204 18.7676C90.104 18.3676 90.104 18.0676 90.104 17.8676V10.5676H93.204V10.5676Z" fill="black"></path> <path d="M145.204 18.9676V24.4676H141.504V10.5676H148.404C149.704 10.5676 150.704 10.6676 151.504 10.9676C152.304 11.2676 152.904 11.6676 153.404 12.3676C153.904 13.0676 154.204 13.8676 154.204 14.6676C154.204 16.3676 153.304 17.5676 151.504 18.2676L154.404 24.3676H150.304L147.904 18.8676H145.204V18.9676ZM145.204 13.0676V16.5676H147.504C148.204 16.5676 148.804 16.5676 149.104 16.4676C149.404 16.3676 149.704 16.1676 150.004 15.8676C150.304 15.5676 150.404 15.1676 150.404 14.7676C150.404 14.3676 150.304 14.0676 150.004 13.7676C149.704 13.4676 149.504 13.2676 149.104 13.1676C148.804 13.0676 148.204 13.0676 147.404 13.0676H145.204V13.0676Z" fill="black"></path> <path d="M133.104 10.5676C134.604 10.5676 136.204 10.5676 137.604 11.3676C138.604 11.8676 139.804 12.8676 139.804 14.7676C139.804 15.6676 139.504 16.6676 138.704 17.4676C137.104 19.1676 135.004 19.1676 133.604 19.1676H130.804V24.4676H127.004V10.4676H133.104V10.5676ZM133.304 16.7676C133.904 16.7676 134.704 16.7676 135.304 16.2676C135.704 15.9676 136.004 15.3676 136.004 14.8676C136.004 14.3676 135.804 13.8676 135.404 13.5676C134.804 13.1676 134.004 13.0676 133.404 13.0676H130.904V16.8676H133.304V16.7676Z" fill="black"></path> <path d="M181.104 19.4676L184.604 10.5676H189.804V24.5676H186.104V13.6676H186.004L182.004 24.5676H179.604L175.504 13.6676H175.404V24.5676H172.404V10.5676H177.604L181.104 19.4676Z" fill="black"></path> <path d="M166.704 10.9676C163.104 8.96762 158.504 10.1676 156.404 13.7676C154.404 17.3676 155.604 21.9676 159.204 24.0676C162.804 26.0676 167.404 24.8676 169.504 21.2676C171.604 17.6676 170.404 13.0676 166.704 10.9676ZM165.204 13.6676C167.304 14.8676 168.104 17.5676 166.904 19.6676C165.704 21.7676 163.004 22.5676 160.904 21.3676C158.804 20.1676 158.004 17.4676 159.204 15.3676C160.404 13.2676 163.104 12.5676 165.204 13.6676Z" fill="#E50069"></path> <path d="M121.704 10.9676C118.104 8.96762 113.504 10.1676 111.404 13.7676C109.404 17.3676 110.604 21.9676 114.304 24.0676C117.904 26.0676 122.504 24.8676 124.604 21.2676C126.604 17.6676 125.304 13.0676 121.704 10.9676ZM120.204 13.6676C122.304 14.8676 123.004 17.5676 121.904 19.6676C120.704 21.7676 118.004 22.5676 115.904 21.3676C113.804 20.1676 113.104 17.4676 114.204 15.3676C115.404 13.2676 118.104 12.5676 120.204 13.6676Z" fill="black"></path> <path d="M79.0041 35.6676C81.5041 35.6676 83.3041 36.5676 83.3041 38.8676C83.3041 41.3676 81.4041 42.2676 78.9041 42.2676H75.4041V46.8676H73.7041V35.6676H79.0041ZM75.4041 41.0676H78.7041C80.4041 41.0676 81.6041 40.6676 81.6041 38.9676C81.6041 37.1676 80.1041 36.8676 78.4041 36.8676H75.3041V41.0676H75.4041Z" fill="black"></path> <path d="M94.0043 46.9676H85.4043V35.6676H87.1043V45.6676H94.0043V46.9676Z" fill="black"></path> <path d="M106.004 46.9676H104.104L102.704 43.4676H97.3039L95.8039 46.9676H94.0039L99.0039 35.6676H100.904L106.004 46.9676ZM100.004 37.0676L97.7039 42.3676H102.104L100.004 37.0676Z" fill="black"></path> <path d="M114.604 36.9676H110.204V46.9676H108.504V36.9676H104.104V35.6676H114.504V36.9676H114.604Z" fill="black"></path> <path d="M124.604 36.9676H117.804V40.4676H123.804V41.7676H117.804V46.9676H116.104V35.6676H124.604V36.9676Z" fill="black"></path> <path d="M146.104 35.6676C148.504 35.6676 150.504 36.3676 150.504 38.7676C150.504 40.0676 149.604 41.1676 148.304 41.4676C150.104 41.7676 150.204 42.8676 150.304 44.2676C150.404 45.1676 150.404 46.2676 151.004 46.8676H149.004C148.604 46.2676 148.604 45.0676 148.604 44.3676C148.504 42.4676 147.904 41.9676 145.604 41.9676H142.204V46.8676H140.504V35.6676H146.104ZM142.104 40.8676H145.304C147.004 40.8676 148.704 40.7676 148.704 38.8676C148.704 37.1676 147.304 36.9676 145.804 36.9676H142.104V40.8676Z" fill="black"></path> <path d="M155.204 35.6676L159.404 45.1676L163.404 35.6676H165.804V46.9676H164.204V37.5676L160.104 46.9676H158.604L154.504 37.5676V46.9676H152.904V35.6676H155.204Z" fill="black"></path> <path d="M135.004 36.1676C132.104 34.4676 128.304 35.5676 126.704 38.4676C125.004 41.3676 126.104 45.1676 129.004 46.7676C131.904 48.4676 135.704 47.3676 137.304 44.4676C139.004 41.5676 138.004 37.8676 135.004 36.1676ZM136.004 43.7676C134.704 45.9676 132.004 46.7676 129.704 45.4676C127.504 44.2676 126.704 41.3676 128.004 39.1676C129.304 36.9676 132.104 36.1676 134.304 37.4676C136.504 38.7676 137.304 41.5676 136.004 43.7676Z" fill="#E50069"></path> </svg> 