<?xml version="1.0" encoding="utf-8"?>
<!-- Generator: Adobe Illustrator 24.2.0, SVG Export Plug-In . SVG Version: 6.00 Build 0)  -->
<svg version="1.1" id="Layer_1" xmlns:xodm="http://www.corel.com/coreldraw/odm/2003"
	 xmlns="http://www.w3.org/2000/svg" xmlns:xlink="http://www.w3.org/1999/xlink" x="0px" y="0px" viewBox="0 0 275 57.5"
	 style="enable-background:new 0 0 275 57.5;" xml:space="preserve">
<style type="text/css">
	.st0{fill:#2B2B2A;}
	.st1{fill:#D52527;}
</style>
<g id="__x0023_Layer_x0020_1">
	<g id="_105553285597792">
		<g>
			<g>
				<polygon class="st0" points="87.1,35.4 81,35.4 77.6,26.3 74.1,35.4 68.1,35.4 75,18.8 80.2,18.8 				"/>
				<polygon class="st0" points="100.5,35.4 100.5,27.4 94.3,35.4 89.6,35.4 89.6,18.9 95.1,18.9 95.1,26.6 101.1,18.9 106,18.9 
					106,35.4 				"/>
				<path class="st0" d="M111.5,30.6l5.1-11.8h6.2l5.1,11.8h2.4v8.6h-5.1v-3.8h-11.2v3.8h-5.1v-8.6H111.5L111.5,30.6z M117.1,30.8
					L117.1,30.8h5.2l-2.6-6.7L117.1,30.8z"/>
				<path class="st0" d="M132.3,27.2L132.3,27.2c0-5,3.8-8.6,8.8-8.6c3.7,0,6.1,1.8,7.5,4.3l-4.5,2.7c-0.6-1.2-1.5-2-3-2
					c-1.9,0-3.1,1.6-3.1,3.6v0c0,2.1,1.3,3.7,3.1,3.7c1.6,0,2.4-0.8,3.1-2.1l4.5,2.6c-1.4,2.5-3.7,4.5-7.8,4.5
					C136.3,35.7,132.3,32.3,132.3,27.2L132.3,27.2z"/>
				<polygon class="st0" points="151.5,18.9 165.6,18.9 165.6,23.4 156.9,23.4 156.9,25.1 165,25.1 165,29.1 156.9,29.1 156.9,30.9 
					165.7,30.9 165.7,35.4 151.5,35.4 				"/>
				<polygon class="st0" points="186.7,35.4 180.6,35.4 177.2,26.3 173.8,35.4 167.8,35.4 174.7,18.8 179.8,18.8 				"/>
				<path class="st0" d="M189.2,18.9h5.5v4.7h1.9c4.4,0,7.4,2,7.4,5.8v0c0,3.9-3,6-7.5,6h-7.3L189.2,18.9L189.2,18.9z M196.2,31.1
					L196.2,31.1c1.4,0,2.4-0.6,2.4-1.7v0c0-1.2-0.8-1.7-2.3-1.7h-1.5v3.5H196.2L196.2,31.1z"/>
				<polygon class="st0" points="207,18.9 212.8,18.9 216.3,24.7 219.8,18.9 225.6,18.9 225.6,35.4 220.1,35.4 220.1,27.2 
					216.3,33.1 216.2,33.1 212.4,27.2 212.4,35.4 207,35.4 				"/>
				<path class="st0" d="M235,18.8h5.5l7,16.6h-6l-0.9-2.2h-5.8l-0.8,2.2H228L235,18.8L235,18.8z M239.2,29.3L239.2,29.3l-1.5-4
					l-1.5,4H239.2z"/>
				<polygon class="st0" points="249.9,18.9 255.4,18.9 255.4,30.6 259.4,30.6 259.4,18.9 265,18.9 265,30.6 269,30.6 269,18.9 
					274.5,18.9 274.5,35.4 249.9,35.4 				"/>
			</g>
		</g>
		<g>
			<g>
				<path class="st0" d="M69.2,49.6c-0.5-0.3-0.8-0.6-1.1-1c-0.3-0.4-0.4-0.9-0.4-1.5c0-0.5,0.1-1,0.4-1.5c0.3-0.4,0.6-0.8,1.1-1
					c0.5-0.3,1-0.4,1.5-0.4c0.6,0,1.1,0.1,1.5,0.4c0.5,0.2,0.8,0.6,1.1,1c0.3,0.4,0.4,0.9,0.4,1.5c0,0.5-0.1,1-0.4,1.5
					c-0.3,0.4-0.6,0.8-1.1,1c-0.5,0.2-1,0.4-1.5,0.4C70.2,49.9,69.7,49.8,69.2,49.6L69.2,49.6z M72,49.1L72,49.1
					c0.4-0.2,0.6-0.5,0.9-0.8c0.2-0.4,0.3-0.8,0.3-1.2c0-0.4-0.1-0.8-0.3-1.2c-0.2-0.4-0.5-0.6-0.9-0.8c-0.4-0.2-0.8-0.3-1.2-0.3
					c-0.4,0-0.9,0.1-1.2,0.3c-0.4,0.2-0.7,0.5-0.9,0.8c-0.2,0.4-0.3,0.8-0.3,1.2c0,0.4,0.1,0.8,0.3,1.2c0.2,0.4,0.5,0.6,0.9,0.8
					c0.4,0.2,0.8,0.3,1.2,0.3C71.2,49.4,71.6,49.3,72,49.1z"/>
				<path class="st0" d="M78.8,48.4h-3.2L75,49.9h-0.6l2.6-5.7h0.6l2.6,5.7h-0.6L78.8,48.4z M78.6,47.9L78.6,47.9l-1.4-3l-1.4,3
					H78.6z"/>
				<path class="st0" d="M82.2,49.6c-0.5-0.3-0.8-0.6-1.1-1c-0.3-0.4-0.4-0.9-0.4-1.5c0-0.5,0.1-1,0.4-1.5c0.3-0.4,0.6-0.8,1.1-1
					c0.5-0.3,1-0.4,1.5-0.4c0.6,0,1.1,0.1,1.5,0.4c0.5,0.2,0.8,0.6,1.1,1c0.3,0.4,0.4,0.9,0.4,1.5c0,0.5-0.1,1-0.4,1.5
					c-0.3,0.4-0.6,0.8-1.1,1c-0.5,0.2-1,0.4-1.5,0.4C83.2,49.9,82.7,49.8,82.2,49.6L82.2,49.6z M84.9,49.1L84.9,49.1
					c0.4-0.2,0.6-0.5,0.9-0.8c0.2-0.4,0.3-0.8,0.3-1.2c0-0.4-0.1-0.8-0.3-1.2c-0.2-0.4-0.5-0.6-0.9-0.8c-0.4-0.2-0.8-0.3-1.2-0.3
					c-0.4,0-0.9,0.1-1.2,0.3c-0.4,0.2-0.7,0.5-0.9,0.8c-0.2,0.4-0.3,0.8-0.3,1.2c0,0.4,0.1,0.8,0.3,1.2c0.2,0.4,0.5,0.6,0.9,0.8
					c0.4,0.2,0.8,0.3,1.2,0.3C84.2,49.4,84.6,49.3,84.9,49.1z"/>
				<path class="st0" d="M90,47.1l1.2-1.5h0.5l-1.2,1.5l1.2,1.5h-0.5L90,47.1z M91.4,47.1L91.4,47.1l1.2-1.5h0.5L92,47.1l1.2,1.5
					h-0.5L91.4,47.1z"/>
				<path class="st0" d="M98.7,44.2L96.1,49c-0.2,0.3-0.4,0.6-0.6,0.8c-0.2,0.2-0.5,0.2-0.8,0.2c-0.2,0-0.4-0.1-0.7-0.2l0.2-0.5
					c0.2,0.1,0.4,0.1,0.5,0.1c0.4,0,0.7-0.2,0.9-0.6l0.2-0.3l-2.3-4.4h0.6l2,3.8l2-3.8L98.7,44.2L98.7,44.2z"/>
				<polygon class="st0" points="104.5,44.2 104.5,49.9 103.9,49.9 103.9,44.7 100.3,44.7 100.3,49.9 99.7,49.9 99.7,44.2 				"/>
				<path class="st0" d="M110.3,44.7c0.4,0.3,0.6,0.8,0.6,1.4c0,0.6-0.2,1.1-0.6,1.4c-0.4,0.3-1,0.5-1.7,0.5h-1.5v1.8h-0.6v-5.7h2.1
					C109.4,44.2,109.9,44.4,110.3,44.7z M109.9,47.2L109.9,47.2c0.3-0.2,0.4-0.6,0.4-1c0-0.5-0.1-0.8-0.4-1.1
					c-0.3-0.2-0.7-0.4-1.3-0.4h-1.5v2.8h1.5C109.2,47.6,109.6,47.5,109.9,47.2z"/>
				<path class="st0" d="M115.6,48.4h-3.2l-0.7,1.5h-0.6l2.6-5.7h0.6l2.6,5.7h-0.6L115.6,48.4L115.6,48.4z M115.4,47.9L115.4,47.9
					l-1.4-3l-1.4,3H115.4z"/>
				<path class="st0" d="M122.4,47.4c0.2,0.2,0.3,0.5,0.3,0.9c0,0.5-0.2,0.9-0.5,1.1c-0.3,0.3-0.9,0.4-1.5,0.4h-2.5v-5.7h2.4
					c0.6,0,1.1,0.1,1.4,0.4c0.3,0.2,0.5,0.6,0.5,1.1c0,0.3-0.1,0.6-0.2,0.8c-0.2,0.2-0.4,0.4-0.7,0.5
					C121.9,47.1,122.2,47.2,122.4,47.4L122.4,47.4z M118.7,46.8L118.7,46.8h1.7c0.4,0,0.8-0.1,1-0.3c0.2-0.2,0.4-0.4,0.4-0.8
					c0-0.3-0.1-0.6-0.4-0.8c-0.2-0.2-0.6-0.3-1-0.3h-1.7V46.8z M122.1,48.3L122.1,48.3c0-0.7-0.5-1.1-1.5-1.1h-1.9v2.2h1.9
					C121.6,49.4,122.1,49.1,122.1,48.3z"/>
				<path class="st0" d="M128.8,44.2v5.7h-0.6v-5.2h-2.7l-0.1,1.9c0,0.8-0.1,1.4-0.2,1.9c-0.1,0.5-0.3,0.8-0.5,1.1
					c-0.2,0.2-0.5,0.4-0.8,0.4c-0.1,0-0.3,0-0.5-0.1l0-0.5c0.1,0,0.2,0,0.3,0c0.2,0,0.4-0.1,0.6-0.3c0.1-0.2,0.3-0.5,0.3-0.9
					c0.1-0.4,0.1-0.9,0.2-1.6l0.1-2.4L128.8,44.2L128.8,44.2z"/>
				<path class="st0" d="M134.8,44.2v5.7h-0.6v-1.7h-1.7c-0.1,0-0.2,0-0.3,0l-1.2,1.7h-0.6l1.3-1.8c-0.4-0.1-0.7-0.3-1-0.7
					c-0.2-0.3-0.3-0.7-0.3-1.2c0-0.6,0.2-1.1,0.6-1.5c0.4-0.4,0.9-0.5,1.6-0.5L134.8,44.2L134.8,44.2z M131.4,47.3L131.4,47.3
					c0.3,0.3,0.7,0.4,1.2,0.4h1.6v-2.9h-1.6c-0.5,0-0.9,0.1-1.2,0.4c-0.3,0.3-0.4,0.6-0.4,1.1C130.9,46.7,131.1,47,131.4,47.3z"/>
				<path class="st0" d="M142.8,44.5c0.4,0.2,0.8,0.6,1,1c0.2,0.4,0.4,0.9,0.4,1.5s-0.1,1-0.4,1.5c-0.2,0.4-0.6,0.8-1,1
					c-0.4,0.2-0.9,0.4-1.5,0.4c-0.5,0-1-0.1-1.4-0.3c-0.4-0.2-0.8-0.5-1-0.9c-0.3-0.4-0.4-0.9-0.4-1.4h-1.2v2.6h-0.6v-5.7h0.6v2.5
					h1.2c0-0.5,0.2-0.9,0.5-1.3c0.3-0.4,0.6-0.7,1-0.9c0.4-0.2,0.9-0.3,1.4-0.3C141.9,44.2,142.4,44.3,142.8,44.5L142.8,44.5z
					 M142.5,49.1L142.5,49.1c0.3-0.2,0.6-0.5,0.8-0.8c0.2-0.4,0.3-0.8,0.3-1.2s-0.1-0.9-0.3-1.2c-0.2-0.4-0.5-0.6-0.8-0.8
					c-0.3-0.2-0.7-0.3-1.1-0.3c-0.4,0-0.8,0.1-1.1,0.3c-0.3,0.2-0.6,0.5-0.8,0.8c-0.2,0.4-0.3,0.8-0.3,1.2s0.1,0.9,0.3,1.2
					c0.2,0.4,0.5,0.6,0.8,0.8c0.3,0.2,0.7,0.3,1.1,0.3C141.8,49.4,142.2,49.3,142.5,49.1z"/>
				<path class="st0" d="M152.7,44.2v5.7h-7v-5.7h0.6v5.2h2.6v-5.2h0.6v5.2h2.6v-5.2H152.7z M153.6,49.4L153.6,49.4v1.8H153v-1.3
					h-0.9v-0.5H153.6z"/>
				<path class="st0" d="M158.6,48.4h-3.2l-0.7,1.5h-0.6l2.6-5.7h0.6l2.6,5.7h-0.6L158.6,48.4L158.6,48.4z M158.3,47.9L158.3,47.9
					l-1.4-3l-1.4,3H158.3z"/>
				<path class="st0" d="M164.8,44.2v5.7h-0.6v-1.7h-1.7c-0.1,0-0.2,0-0.3,0l-1.2,1.7h-0.6l1.3-1.8c-0.4-0.1-0.7-0.3-1-0.7
					c-0.2-0.3-0.3-0.7-0.3-1.2c0-0.6,0.2-1.1,0.6-1.5c0.4-0.4,0.9-0.5,1.6-0.5L164.8,44.2L164.8,44.2z M161.4,47.3L161.4,47.3
					c0.3,0.3,0.7,0.4,1.2,0.4h1.6v-2.9h-1.6c-0.5,0-0.9,0.1-1.2,0.4c-0.3,0.3-0.4,0.6-0.4,1.1C161,46.7,161.1,47,161.4,47.3z"/>
				<polygon class="st0" points="170.9,47.3 169.6,47.3 169.6,49.9 169.1,49.9 169.1,44.2 169.6,44.2 169.6,46.8 170.9,46.8 
					172.9,44.2 173.5,44.2 171.4,47 173.6,49.9 172.9,49.9 				"/>
				<path class="st0" d="M175.6,49.6c-0.5-0.3-0.8-0.6-1.1-1c-0.3-0.4-0.4-0.9-0.4-1.5c0-0.5,0.1-1,0.4-1.5c0.3-0.4,0.6-0.8,1.1-1
					c0.5-0.3,1-0.4,1.5-0.4c0.6,0,1.1,0.1,1.5,0.4c0.5,0.2,0.8,0.6,1.1,1c0.3,0.4,0.4,0.9,0.4,1.5c0,0.5-0.1,1-0.4,1.5
					c-0.3,0.4-0.6,0.8-1.1,1c-0.5,0.2-1,0.4-1.5,0.4C176.6,49.9,176.1,49.8,175.6,49.6L175.6,49.6z M178.4,49.1L178.4,49.1
					c0.4-0.2,0.6-0.5,0.9-0.8c0.2-0.4,0.3-0.8,0.3-1.2c0-0.4-0.1-0.8-0.3-1.2c-0.2-0.4-0.5-0.6-0.9-0.8c-0.4-0.2-0.8-0.3-1.2-0.3
					c-0.4,0-0.9,0.1-1.2,0.3c-0.4,0.2-0.7,0.5-0.9,0.8c-0.2,0.4-0.3,0.8-0.3,1.2c0,0.4,0.1,0.8,0.3,1.2c0.2,0.4,0.5,0.6,0.9,0.8
					c0.4,0.2,0.8,0.3,1.2,0.3C177.6,49.4,178,49.3,178.4,49.1z"/>
				<polygon class="st0" points="187.5,44.2 187.5,49.9 187,49.9 187,45.4 184.7,49.2 184.5,49.2 182.2,45.4 182.2,49.9 181.6,49.9 
					181.6,44.2 182.1,44.2 184.6,48.4 187.1,44.2 				"/>
				<polygon class="st0" points="194.3,44.2 194.3,49.9 193.7,49.9 193.7,44.7 190.1,44.7 190.1,49.9 189.6,49.9 189.6,44.2 				"/>
				<path class="st0" d="M200,48.4h-3.2l-0.7,1.5h-0.6l2.6-5.7h0.6l2.6,5.7h-0.6L200,48.4L200,48.4z M199.8,47.9L199.8,47.9l-1.4-3
					l-1.4,3H199.8z"/>
				<polygon class="st0" points="207.2,44.2 207.2,49.9 206.6,49.9 206.6,47.3 203.1,47.3 203.1,49.9 202.5,49.9 202.5,44.2 
					203.1,44.2 203.1,46.8 206.6,46.8 206.6,44.2 				"/>
				<polygon class="st0" points="209.2,44.2 209.8,44.2 209.8,48.9 213.5,44.2 214,44.2 214,49.9 213.4,49.9 213.4,45.2 209.8,49.9 
					209.2,49.9 				"/>
				<path class="st0" d="M220,44.2v5.7h-0.6v-1.7h-1.7c-0.1,0-0.2,0-0.3,0l-1.2,1.7h-0.6l1.3-1.8c-0.4-0.1-0.7-0.3-1-0.7
					c-0.2-0.3-0.3-0.7-0.3-1.2c0-0.6,0.2-1.1,0.6-1.5c0.4-0.4,0.9-0.5,1.6-0.5L220,44.2L220,44.2z M216.6,47.3L216.6,47.3
					c0.3,0.3,0.7,0.4,1.2,0.4h1.6v-2.9h-1.6c-0.5,0-0.9,0.1-1.2,0.4s-0.4,0.6-0.4,1.1C216.2,46.7,216.3,47,216.6,47.3L216.6,47.3z"
					/>
				<polygon class="st0" points="224.3,44.2 225.9,46.5 227.5,44.2 228.3,44.2 226.3,46.9 228.4,49.9 227.7,49.9 225.9,47.5 
					224.2,49.9 223.5,49.9 225.6,47 223.6,44.2 				"/>
				<path class="st0" d="M230.4,49.6c-0.5-0.3-0.8-0.6-1.1-1c-0.3-0.4-0.4-0.9-0.4-1.5c0-0.5,0.1-1,0.4-1.5c0.3-0.4,0.6-0.8,1.1-1
					c0.5-0.3,1-0.4,1.5-0.4c0.6,0,1.1,0.1,1.5,0.4c0.5,0.2,0.8,0.6,1.1,1c0.3,0.4,0.4,0.9,0.4,1.5c0,0.5-0.1,1-0.4,1.5
					c-0.3,0.4-0.6,0.8-1.1,1c-0.5,0.2-1,0.4-1.5,0.4C231.4,49.9,230.9,49.8,230.4,49.6L230.4,49.6z M233.1,49.1L233.1,49.1
					c0.4-0.2,0.6-0.5,0.9-0.8c0.2-0.4,0.3-0.8,0.3-1.2c0-0.4-0.1-0.8-0.3-1.2c-0.2-0.4-0.5-0.6-0.9-0.8c-0.4-0.2-0.8-0.3-1.2-0.3
					c-0.4,0-0.9,0.1-1.2,0.3c-0.4,0.2-0.7,0.5-0.9,0.8c-0.2,0.4-0.3,0.8-0.3,1.2c0,0.4,0.1,0.8,0.3,1.2c0.2,0.4,0.5,0.6,0.9,0.8
					c0.4,0.2,0.8,0.3,1.2,0.3C232.4,49.4,232.8,49.3,233.1,49.1z"/>
				<path class="st0" d="M240.7,44.2v5.7h-0.6v-5.2h-2.7l-0.1,1.9c0,0.8-0.1,1.4-0.2,1.9c-0.1,0.5-0.3,0.8-0.5,1.1
					c-0.2,0.2-0.5,0.4-0.8,0.4c-0.1,0-0.3,0-0.5-0.1l0-0.5c0.1,0,0.2,0,0.3,0c0.2,0,0.4-0.1,0.6-0.3c0.1-0.2,0.3-0.5,0.3-0.9
					c0.1-0.4,0.1-0.9,0.2-1.6l0.1-2.4L240.7,44.2L240.7,44.2z"/>
				<path class="st0" d="M247.9,49.4v1.8h-0.6v-1.3h-5l0,1.3h-0.6l0-1.8h0.3c0.4,0,0.6-0.3,0.8-0.9c0.1-0.6,0.2-1.4,0.3-2.4l0.1-1.8
					h3.8v5.2H247.9L247.9,49.4z M243.5,48.3L243.5,48.3c-0.1,0.6-0.3,0.9-0.5,1.1h3.5v-4.6h-2.7l0,1.4
					C243.6,47,243.6,47.7,243.5,48.3z"/>
				<polygon class="st0" points="249.2,44.2 249.8,44.2 249.8,48.9 253.4,44.2 254,44.2 254,49.9 253.4,49.9 253.4,45.2 249.7,49.9 
					249.2,49.9 				"/>
				<polygon class="st0" points="260.7,44.2 260.7,49.9 260.1,49.9 260.1,47.3 256.6,47.3 256.6,49.9 256,49.9 256,44.2 256.6,44.2 
					256.6,46.8 260.1,46.8 260.1,44.2 				"/>
				<polygon class="st0" points="266.3,44.7 263.3,44.7 263.3,49.9 262.7,49.9 262.7,44.2 266.3,44.2 				"/>
				<path class="st0" d="M270,48.4h-3.2l-0.7,1.5h-0.6l2.6-5.7h0.6l2.6,5.7h-0.6L270,48.4L270,48.4z M269.8,47.9L269.8,47.9l-1.4-3
					l-1.4,3H269.8L269.8,47.9z"/>
				<path class="st0" d="M271.8,48.6l1.2-1.5l-1.2-1.5h0.5l1.2,1.5l-1.2,1.5H271.8z M273.3,48.6L273.3,48.6l1.2-1.5l-1.2-1.5h0.5
					l1.2,1.5l-1.2,1.5H273.3z"/>
			</g>
		</g>
		<g>
			<g>
				<g>
					<polygon class="st1" points="58,29 36.3,29 29,21.6 21.6,29 0,29 29,0 					"/>
				</g>
				<g>
					<polygon class="st1" points="46.3,57.5 58,50.5 58,31.8 39.3,31.8 39.3,50.5 					"/>
				</g>
				<g>
					<polygon class="st1" points="11.6,57.5 0,50.5 0,31.8 18.7,31.8 18.7,50.5 					"/>
				</g>
				<g>
					<polygon class="st1" points="29,57.5 21.7,50.5 21.7,31.8 36.3,31.8 36.3,50.5 					"/>
				</g>
			</g>
		</g>
	</g>
</g>
</svg>
