<?xml version="1.0" encoding="UTF-8"?>
<!DOCTYPE svg PUBLIC "-//W3C//DTD SVG 1.1//EN" "http://www.w3.org/Graphics/SVG/1.1/DTD/svg11.dtd">
<!-- Creator: CorelDRAW 2017 -->
<svg xmlns="http://www.w3.org/2000/svg" xml:space="preserve" width="148mm" height="105mm" version="1.1" style="shape-rendering:geometricPrecision; text-rendering:geometricPrecision; image-rendering:optimizeQuality; fill-rule:evenodd; clip-rule:evenodd"
viewBox="0 0 14800 10500"
 xmlns:xlink="http://www.w3.org/1999/xlink">
 <defs>
  <style type="text/css">
   <![CDATA[
    .fil1 {fill:#144E96}
    .fil0 {fill:#144E96;fill-rule:nonzero}
   ]]>
  </style>
 </defs>
 <g id="Слой_x0020_1">
  <metadata id="CorelCorpID_0Corel-Layer"/>
  <g id="лого">
   <path class="fil0" d="M2897.3 3810.68l62.25 -146.64 19.87 8.43 -9.18 21.63c-2.6,6.14 -3.14,11.26 -1.71,15.4 1.43,4.15 4.44,7.23 9.04,9.18l103.75 44.04 51.24 -120.7 -98.42 -41.77c-7.6,-3.23 -13.54,-3.86 -17.87,-1.98 -4.36,1.94 -8.19,6.69 -11.42,14.29l-7.81 18.41 -19.87 -8.43 62.33 -146.86 19.88 8.44 -8.35 19.65c-3.22,7.6 -4.03,13.55 -2.51,17.9 1.51,4.35 5.29,7.85 11.28,10.39l239.07 101.48c7.01,2.98 12.81,3.55 17.39,1.7 4.58,-1.85 8.11,-5.7 10.59,-11.55l9.37 -22.06 19.87 8.43 -62.34 146.86 -19.87 -8.43 9.46 -22.29c2.61,-6.13 3.07,-11.11 1.49,-14.89 -1.59,-3.77 -5.63,-7.04 -12.06,-9.77l-113.84 -48.32 -51.23 120.7 113.83 48.32c6.14,2.61 11.23,3.22 15.16,1.87 3.94,-1.35 6.89,-4.24 8.75,-8.62l10.83 -25.5 19.87 8.43 -62.25 146.65 -19.87 -8.44 9.98 -23.53c2.33,-5.48 2.54,-10.04 0.82,-13.71 -1.72,-3.66 -5.72,-6.82 -12.01,-9.49l-238.63 -101.29c-7.45,-3.17 -13.39,-3.79 -17.85,-1.81 -4.47,1.99 -8.24,6.6 -11.34,13.91l-7.81 18.41 -19.88 -8.44zm281.52 -593.09l326.57 71.1c9.29,1.95 16.42,2.01 21.46,0.21 4.99,-1.74 9.62,-5.57 13.72,-11.43l7.19 -10.27 17.69 12.38 -92.56 132.19 -17.69 -12.38 8.65 -12.36c6.83,-9.75 10.46,-17.28 10.91,-22.49 0.4,-5.15 -1.18,-8.97 -4.76,-11.48 -2.79,-1.95 -6.55,-3.51 -11.35,-4.55l-67.48 -14.6 -73.62 105.14 16.6 26.93c6.97,11.09 12.88,18.42 17.69,21.79 8.26,5.78 17.1,7.42 26.52,4.9 9.41,-2.52 17.84,-9.02 25.22,-19.55l6.23 -8.91 17.69 12.38 -74.8 106.83 -17.69 -12.38 4.28 -6.11c4.78,-6.83 6.8,-14.42 6.15,-22.63 -0.96,-11.63 -4.76,-22.81 -11.39,-33.55l-170.16 -269.84 14.93 -21.32zm49.75 80.47l75.78 120.12 62.69 -89.53 -138.47 -30.59zm410.82 -139.89l89.32 -95.78 -204.05 -190.28c-9.29,-8.66 -17.56,-9.21 -24.65,-1.61l-19 20.38 -15.79 -14.73 114.65 -122.95 15.79 14.72 -23.49 25.2c-7.69,8.24 -6.89,16.8 2.4,25.46l189.77 176.97c6.04,5.63 11.41,8.25 16.17,7.92 4.77,-0.34 9.94,-3.44 15.46,-9.36l19.65 -21.08 78.54 73.25 -16.67 17.88c-13.86,-10.86 -27.22,-18.77 -40.03,-23.88 -12.87,-5.05 -27.65,-3.75 -44.46,4.03 -16.8,7.77 -31.15,18.05 -43.12,30.87l-172.41 184.9 -15.79 -14.73 14.29 -15.32c10.28,-11.03 10.61,-20.93 1.2,-29.7l-189.94 -177.12c-10.56,-9.85 -20.39,-9.9 -29.48,-0.15l-16.03 17.18 -15.79 -14.72 109.3 -117.21 15.79 14.72 -16.94 18.18c-8.51,9.11 -8.03,18.02 1.26,26.68l204.05 190.28zm210.82 -442.62l45.9 -32.14c37.45,-26.22 72.94,-41 106.3,-44.29 33.35,-3.3 59.7,8.87 78.96,36.38 17.8,25.42 22.21,50.82 13.39,76.28 -8.93,25.44 -32.38,51.45 -70.49,78.13l-164.04 114.86 -12.38 -17.68 25.94 -18.17c4.81,-3.36 7.27,-7.6 7.37,-12.72 0.1,-5.11 -1.48,-10 -4.76,-14.69l-152.75 -218.14c-5.14,-7.35 -13.91,-6.72 -26.4,2.02l-21.91 15.34 -12.38 -17.69 139.47 -97.65 12.38 17.68 -23.6 16.53c-3.45,2.41 -5.99,5.84 -7.79,10.19 -1.79,4.36 -1.19,8.69 1.86,13.04l64.93 92.72zm12.29 17.56l74.85 106.89c4.05,5.79 8.24,9.15 12.49,9.95 4.25,0.81 9.65,-1.03 16.15,-5.58l34.65 -24.27c15.87,-11.11 26.45,-24.92 31.76,-41.42 5.3,-16.51 0.17,-35.87 -15.4,-58.11 -14.85,-21.2 -30.86,-33.82 -47.91,-37.97 -17.05,-4.15 -37.47,2.11 -61.27,18.78l-45.32 31.73zm75.75 -262.83l144.42 -101.12 12.38 17.69 -26.14 18.3c-5.59,3.92 -8.81,7.91 -9.79,11.89 -0.99,3.99 -0.01,8.15 3.04,12.51l152.7 218.08c3.55,5.07 7.46,7.75 11.63,8.03 5.34,0.43 11.28,-1.6 17.78,-6.15l23.28 -16.3 12.39 17.68 -144.42 101.12 -12.38 -17.68 22.11 -15.48c7.6,-5.33 12.03,-10.37 13.37,-15.09 1.35,-4.72 0.27,-9.58 -3.19,-14.52l-150.97 -215.61c-3.73,-5.33 -7.94,-8.3 -12.58,-8.83 -4.64,-0.53 -10.03,1.31 -16.08,5.55l-25.16 17.62 -12.39 -17.69zm505.93 -314.07l10.79 18.7 -25.16 14.52c-11,6.35 -13.04,15.51 -6.14,27.47l129.66 224.57c6.91,11.96 16.48,14.41 28.72,7.35l23.3 -13.46 10.79 18.7 -150.61 86.96 -10.79 -18.7 26.8 -15.48c5.37,-3.1 8.9,-7.15 10.69,-12.13 1.8,-4.98 1.26,-9.89 -1.52,-14.7l-60.21 -104.28 -22.13 12.78c-14.37,8.29 -22.38,19.33 -24.07,33.24 -1.66,13.79 2.47,36.51 12.4,67.99 7.17,22.9 11.41,39.61 12.79,50.09 1.44,10.43 -0.31,20.43 -5.03,30.03 -4.76,9.53 -13.46,17.95 -26.11,25.25 -18.02,10.4 -34.97,12.95 -50.89,7.75 -15.85,-5.24 -32.06,-19.8 -48.58,-43.82l17.67 -10.2c4.48,7.13 10.58,13.88 18.22,20.28 7.63,6.41 13.89,8.2 18.91,5.31 6.53,-3.77 7.18,-17.26 1.84,-40.48 -5.46,-24.06 -8.25,-42.71 -8.37,-55.93 -0.08,-13.15 2.93,-25.89 9.03,-38.02 6.12,-12.25 16.11,-24.16 29.96,-35.73 -68.52,32.6 -115.93,26.05 -142.32,-19.65 -14.8,-25.65 -15.48,-50.64 -2.02,-75.09 13.51,-24.4 35.81,-45.61 66.95,-63.59l155.43 -89.73zm-24.27 201.16l-57.11 -98.91c-5.64,-9.76 -10.86,-15 -15.74,-15.67 -4.91,-0.73 -13.44,2.45 -25.67,9.51 -21.31,12.3 -34.94,25.85 -40.74,40.57 -5.8,14.71 -2.27,33.21 10.51,55.34 14.48,25.09 30.8,37.95 49,38.52 18.28,0.54 36.44,-4.35 54.58,-14.83l25.17 -14.53zm106.93 -243.99l146.65 -62.25 8.43 19.88 -21.62 9.18c-6.14,2.6 -10.08,5.91 -11.93,9.89 -1.85,3.97 -1.83,8.28 0.12,12.88l44.04 103.75 120.7 -51.24 -41.77 -98.41c-3.23,-7.6 -7.07,-12.18 -11.48,-13.84 -4.49,-1.63 -10.55,-0.87 -18.14,2.35l-18.41 7.82 -8.44 -19.87 146.86 -62.34 8.43 19.87 -19.65 8.34c-7.6,3.23 -12.31,6.95 -14.25,11.14 -1.93,4.18 -1.64,9.32 0.9,15.31l101.48 239.07c2.98,7.01 6.76,11.45 11.33,13.3 4.58,1.85 9.8,1.53 15.64,-0.95l22.06 -9.37 8.44 19.88 -146.86 62.34 -8.43 -19.88 22.28 -9.46c6.14,-2.6 9.93,-5.85 11.42,-9.67 1.48,-3.82 0.84,-8.98 -1.89,-15.41l-48.32 -113.84 -120.7 51.24 48.32 113.83c2.6,6.14 5.84,10.11 9.61,11.87 3.76,1.77 7.89,1.74 12.27,-0.12l25.51 -10.82 8.43 19.87 -146.64 62.25 -8.44 -19.88 23.53 -9.98c5.48,-2.33 8.8,-5.47 10.11,-9.3 1.31,-3.83 0.62,-8.88 -2.04,-15.17l-101.3 -238.63c-3.16,-7.45 -7,-12.03 -11.59,-13.7 -4.59,-1.67 -10.5,-0.97 -17.81,2.13l-18.41 7.81 -8.44 -19.87zm555.39 -240.91l222.41 249.47c6.37,7.04 12.11,11.28 17.24,12.79 5.06,1.53 11.06,1.14 17.82,-1.18l11.85 -4.08 7.03 20.41 -152.58 52.54 -7.03 -20.42 14.26 -4.91c11.26,-3.87 18.62,-7.84 22.05,-11.79 3.35,-3.92 4.32,-7.95 2.9,-12.07 -1.12,-3.23 -3.24,-6.7 -6.51,-10.36l-46.02 -51.48 -121.35 41.79 -2.4 31.55c-0.88,13.06 -0.41,22.47 1.5,28.02 3.29,9.54 9.47,16.05 18.57,19.55 9.1,3.5 19.74,3.19 31.9,-0.99l10.28 -3.54 7.03 20.41 -123.31 42.46 -7.03 -20.41 7.05 -2.43c7.88,-2.72 13.98,-7.67 18.28,-14.69 6.05,-9.98 9.56,-21.26 10.51,-33.85l20.94 -318.31 24.61 -8.48zm-7.05 94.35l-9.29 141.72 103.34 -35.59 -94.05 -106.13zm257.2 -145.8l-5.96 -20.75 302.61 -86.77 5.96 20.75 -29.69 8.51c-12.51,3.59 -17.28,10.57 -14.33,20.87l73.39 255.91c3.37,11.75 12.4,15.6 27.2,11.36l26.32 -7.55 5.95 20.75 -169.38 48.57 -5.96 -20.75 25.87 -7.42c16.41,-4.7 22.94,-13.01 19.57,-24.76l-77.82 -271.4 -55.93 16.04c-14.42,4.13 -23.8,9.13 -28,14.96 -4.19,5.82 -6.31,13.12 -6.28,21.86 0.06,8.82 5.92,39.93 17.67,93.28 11.22,50.95 18.02,91.37 20.45,121.14 2.43,29.77 -1.25,53.53 -10.91,71.09 -9.72,17.64 -23.93,29.15 -42.7,34.53 -16.1,4.62 -29.79,3.51 -40.93,-3.37 -11.14,-6.88 -18.52,-16.49 -22.06,-28.85 -3.4,-11.83 -2.67,-22.53 1.99,-32.2 4.76,-9.62 12.57,-16.07 23.4,-19.18 6.41,-1.83 13.89,-1.67 22.32,0.38 8.38,2.13 14.66,9.08 18.68,21.06 3.3,9.21 8.07,12.88 14.32,11.09 12.06,-3.46 16.04,-24.42 11.9,-63.03 -4.11,-38.54 -12.96,-81.5 -26.51,-128.73 -11.48,-40.06 -21.94,-64.72 -31.32,-73.84 -9.41,-9.19 -22.05,-11.51 -38,-6.94l-11.82 3.39zm517.26 -5.91l54.81 -11.65c44.72,-9.51 83.16,-9.24 115.15,0.76 31.99,9.99 51.49,31.49 58.47,64.34 6.45,30.35 0.59,55.46 -17.47,75.44 -18.17,19.93 -49.92,34.71 -95.42,44.39l-195.88 41.63 -4.49 -21.12 30.98 -6.58c5.74,-1.22 9.66,-4.17 11.76,-8.83 2.09,-4.66 2.54,-9.79 1.35,-15.38l-55.37 -260.49c-1.86,-8.77 -10.18,-11.62 -25.09,-8.45l-26.16 5.56 -4.49 -21.12 166.54 -35.4 4.49 21.12 -28.18 5.99c-4.12,0.87 -7.8,3.03 -11.15,6.34 -3.36,3.31 -4.49,7.53 -3.39,12.73l23.54 110.72zm4.45 20.96l27.13 127.64c1.47,6.91 4.02,11.64 7.61,14.04 3.6,2.4 9.29,2.82 17.05,1.17l41.38 -8.8c18.95,-4.02 34.08,-12.6 45.41,-25.72 11.34,-13.12 14.18,-32.95 8.54,-59.51 -5.38,-25.31 -15.19,-43.19 -29.26,-53.66 -14.08,-10.48 -35.32,-12.7 -63.74,-6.66l-54.12 11.5zm236.21 -225.53l157.35 -24.92 3.37 21.32 -23.2 3.68c-6.59,1.04 -11.21,3.3 -13.97,6.71 -2.75,3.41 -3.78,7.59 -3,12.53l17.64 111.32 129.51 -20.51 -16.73 -105.6c-1.29,-8.15 -3.91,-13.52 -7.79,-16.2 -3.96,-2.67 -10.02,-3.4 -18.17,-2.11l-19.76 3.13 -3.37 -21.32 157.57 -24.96 3.38 21.32 -21.09 3.34c-8.15,1.3 -13.63,3.77 -16.52,7.36 -2.88,3.59 -3.85,8.65 -2.83,15.07l40.63 256.52c1.19,7.53 3.79,12.74 7.78,15.65 4,2.9 9.13,3.85 15.4,2.86l23.68 -3.75 3.37 21.33 -157.57 24.95 -3.38 -21.32 23.91 -3.79c6.59,-1.04 11.05,-3.28 13.42,-6.62 2.36,-3.35 2.99,-8.52 1.89,-15.42l-19.34 -122.14 -129.51 20.51 19.34 122.15c1.05,6.59 3.22,11.22 6.45,13.84 3.23,2.63 7.25,3.6 11.95,2.86l27.36 -4.34 3.38 21.33 -157.35 24.92 -3.38 -21.33 25.25 -4c5.88,-0.93 9.86,-3.17 12.06,-6.57 2.19,-3.4 2.75,-8.47 1.68,-15.21l-40.55 -256.05c-1.27,-8 -3.88,-13.37 -7.93,-16.1 -4.05,-2.73 -9.96,-3.48 -17.8,-2.24l-19.76 3.13 -3.37 -21.33zm600.21 -90.75l155.44 295.87c4.48,8.37 9.03,13.87 13.64,16.58 4.54,2.71 10.45,3.78 17.57,3.16l12.49 -1.09 1.88 21.51 -160.75 14.06 -1.88 -21.51 15.02 -1.31c11.86,-1.04 19.97,-3.1 24.24,-6.11 4.2,-3 6.12,-6.67 5.74,-11.01 -0.3,-3.41 -1.52,-7.29 -3.81,-11.63l-32.2 -61.08 -127.86 11.19 -9.96 30.03c-4.01,12.46 -5.83,21.71 -5.32,27.55 0.88,10.05 5.31,17.87 13.29,23.46 7.98,5.6 18.38,7.88 31.19,6.76l10.83 -0.95 1.89 21.51 -129.92 11.36 -1.89 -21.5 7.44 -0.65c8.3,-0.73 15.42,-4.06 21.29,-9.84 8.28,-8.21 14.41,-18.31 18.38,-30.29l97.32 -303.8 25.94 -2.27zm-29.67 89.85l-43.31 135.25 108.89 -9.52 -65.58 -125.73zm574.35 -116.51l0.75 21.57 -29.03 1.02c-12.69,0.44 -18.8,7.56 -18.32,21.36l9.05 259.17c0.49,13.8 7.79,20.45 21.91,19.96l26.89 -0.94 0.75 21.58 -173.8 6.07 -0.76 -21.58 30.94 -1.08c6.19,-0.22 11.21,-2.14 15.13,-5.69 3.93,-3.56 5.76,-8.14 5.56,-13.7l-4.2 -120.34 -25.55 0.89c-16.58,0.58 -28.83,6.57 -36.85,18.05 -7.95,11.4 -14.96,33.4 -20.97,65.86 -4.42,23.58 -8.53,40.33 -12.23,50.23 -3.62,9.89 -9.86,17.89 -18.54,24.15 -8.67,6.18 -20.31,9.53 -34.91,10.04 -20.78,0.72 -36.95,-4.99 -48.57,-17.05 -11.53,-12.07 -19,-32.53 -22.32,-61.49l20.39 -0.71c0.61,8.4 2.82,17.21 6.56,26.45 3.74,9.25 8.42,13.77 14.22,13.57 7.53,-0.27 14.44,-11.87 20.62,-34.87 6.47,-23.82 12.76,-41.59 18.87,-53.32 6.1,-11.65 14.74,-21.48 25.82,-29.33 11.16,-7.94 25.57,-13.77 43.23,-17.48 -75.81,-3.39 -114.59,-31.42 -116.43,-84.17 -1.04,-29.59 10.09,-51.98 33.47,-67.25 23.38,-15.2 53.02,-23.46 88.96,-24.71l179.36 -6.26zm-115.87 166.22l-3.99 -114.15c-0.39,-11.26 -2.54,-18.34 -6.54,-21.21 -3.99,-2.96 -13.01,-4.16 -27.13,-3.66 -24.59,0.85 -42.98,6.42 -55.01,16.69 -12.04,10.27 -17.6,28.25 -16.71,53.8 1.01,28.95 9.38,47.96 25.19,57.02 15.88,9.05 34.21,13.26 55.15,12.52l29.04 -1.01zm563.03 -176.4l129.06 308.29c3.73,8.73 7.78,14.6 12.15,17.7 4.28,3.09 10.08,4.68 17.22,4.68l12.54 0 0 21.59 -161.37 0 0 -21.59 15.08 0c11.91,0 20.16,-1.35 24.69,-3.97 4.44,-2.62 6.67,-6.11 6.67,-10.47 0,-3.42 -0.88,-7.39 -2.78,-11.91l-26.75 -63.66 -128.35 0 -12.54 29.05c-5.08,12.07 -7.7,21.12 -7.7,26.99 0,10.08 3.73,18.26 11.19,24.53 7.46,6.27 17.62,9.44 30.48,9.44l10.88 0 0 21.59 -130.42 0 0 -21.59 7.46 0c8.34,0 15.72,-2.7 22.07,-7.94 8.97,-7.46 15.95,-16.98 20.95,-28.57l123.43 -294.16 26.04 0zm-37.39 86.91l-54.93 130.97 109.3 0 -54.37 -130.97zm364.14 96.39l44.74 3.13c11.64,0.82 21.45,-0.72 29.44,-4.62 8.07,-3.81 13.61,-9.15 16.63,-15.86 3.02,-6.72 5.66,-18.31 7.93,-34.94 3.54,-27.92 7.28,-48.27 11.27,-61.04 4,-12.77 11.07,-22.85 21.14,-30.35 10.07,-7.41 23.18,-10.55 39.41,-9.41 18.29,1.28 32.01,7.56 41.16,19.02 9.14,11.47 13.22,23.69 12.31,36.67 -0.82,11.72 -5.08,21.45 -12.86,29.18 -7.78,7.65 -16.53,11.18 -26.27,10.49 -9.74,-0.68 -17.61,-4.33 -23.59,-10.87 -5.99,-6.55 -8.7,-14.45 -8.05,-23.72 0.33,-4.67 2.01,-9.33 4.96,-14.13 2.14,-3.28 3.19,-5.75 3.31,-7.41 0.53,-7.6 -2.21,-11.61 -8.23,-12.04 -6.18,-0.43 -11.66,2.85 -16.52,9.83 -4.86,6.9 -9.56,27.5 -14.1,61.71 -3.72,28.15 -8.83,46.49 -15.54,54.93 -6.65,8.53 -16.84,14.34 -30.59,17.6 30.58,9.77 49.95,21.79 58.1,36.21 8.14,14.41 14.6,35.79 19.31,64.05 4.47,27.04 10.59,40.84 18.27,41.38 10.22,0.71 17.1,-12.41 20.74,-39.37l20.43 1.43c-6.71,53.79 -31.17,79.22 -73.21,76.28 -12.04,-0.84 -22.33,-3.87 -30.96,-9.01 -8.55,-5.22 -15.17,-14.11 -19.78,-26.61 -4.7,-12.5 -8.12,-37.48 -10.51,-74.97 -1.2,-20.46 -6.47,-36.1 -15.73,-47.01 -9.27,-10.91 -21.1,-16.91 -35.67,-17.93l-28.98 -2.03 -8.75 125.11c-0.78,11.08 6.12,17.22 20.85,18.25l24.38 1.7 -1.5 21.54 -167.79 -11.73 1.51 -21.54 26.92 1.88c8.87,0.62 14.72,-1.12 17.78,-5.12 2.98,-3.93 4.57,-7.32 4.77,-10.09l18.57 -265.65c0.82,-11.73 -5.89,-18.16 -20.14,-19.16l-26.92 -1.88 1.5 -21.54 167.79 11.74 -1.51 21.53 -27.4 -1.91c-4.03,-0.28 -8.33,0.84 -12.8,3.32 -4.55,2.47 -7,6.83 -7.43,13.01l-8.39 119.95zm461.89 -118.97l90.54 321.72c2.63,9.12 5.94,15.44 9.89,19.05 3.88,3.59 9.44,5.87 16.53,6.74l12.45 1.53 -2.64 21.43 -160.16 -19.66 2.63 -21.43 14.97 1.83c11.81,1.46 20.17,1.12 24.98,-0.93 4.73,-2.06 7.37,-5.25 7.9,-9.58 0.41,-3.39 0.03,-7.44 -1.31,-12.16l-18.79 -66.44 -127.4 -15.64 -15.98 27.3c-6.52,11.36 -10.22,20.02 -10.93,25.85 -1.23,10.01 1.47,18.58 8.12,25.71 6.64,7.13 16.34,11.52 29.1,13.09l10.79 1.32 -2.63 21.43 -129.44 -15.89 2.63 -21.43 7.4 0.91c8.28,1.01 15.93,-0.77 22.87,-5.19 9.82,-6.31 17.91,-14.92 24.28,-25.81l158.36 -276.93 25.84 3.18zm-47.69 81.71l-70.49 123.3 108.49 13.32 -38 -136.62zm603.08 19.22l-3.75 21.27 -31.34 -5.53c-12.82,-2.26 -20.17,1.92 -22.03,12.47l-45.1 255.77c-2.88,16.34 4.66,26.13 22.64,29.3l23.61 4.17 -18.61 105.52 -24.23 -4.27c1.45,-17.39 0.87,-32.81 -1.9,-46.35 -2.69,-13.54 -11.92,-25.24 -27.59,-35.09 -15.67,-9.86 -32.1,-16.3 -49.38,-19.35l-148.13 -26.12c-24.94,-4.4 -46.59,-2.25 -65.03,6.34 -18.46,8.68 -30.93,29.13 -37.6,61.48l-23.84 -4.2 21.88 -103.99c19.83,2.69 36.09,1.94 48.84,-2.26 12.67,-4.22 25.88,-14.7 39.65,-31.54 13.76,-16.76 25.88,-38.88 36.35,-66.29 10.48,-27.41 18.99,-59.2 25.37,-95.39 5.92,-33.61 6.42,-56.09 1.57,-67.43 -4.85,-11.33 -16.62,-18.64 -35.46,-21.96l-4.77 -0.84 3.75 -21.27 315.1 55.56zm-178.24 293.23l51.77 -293.6 -54.33 -9.58c-17.51,-3.09 -30.63,-2.75 -39.17,0.9 -8.63,3.72 -14.66,9.51 -17.98,17.39 -3.32,7.87 -8.25,25.3 -14.76,52.2 -7.51,32.05 -14.91,60.32 -22.16,85 -7.24,24.59 -19.22,48.19 -36,70.7 -16.73,22.6 -35.01,37.19 -54.98,43.91l187.61 33.08zm415.68 -50.62l-98.81 -24.64 5.56 -22.33 99.74 24.87c10.46,-48.52 10.96,-85.95 1.32,-112.23 -9.57,-26.28 -27.25,-42.63 -52.9,-49.03 -25.49,-6.35 -49.46,-1.78 -72.09,13.52 -22.57,15.4 -41.15,40.38 -55.66,74.97l-20.8 -5.19 38.98 -132.37 16.94 4.22 7.07 36.94c33.47,-15.46 65.91,-19.24 97.48,-11.37 43.52,10.85 77.27,35.63 101.2,74.48 23.95,38.78 29.14,85.23 15.64,139.37 -13.17,52.83 -39.29,91.32 -78.38,115.52 -39.08,24.21 -80.97,30.78 -125.71,19.62 -38.2,-9.52 -66.15,-29.01 -83.76,-58.43 -17.71,-29.37 -24.09,-62.21 -19.24,-98.38l20.33 5.07c-2.63,35.5 3.49,63.45 18.23,84.06 14.76,20.53 34.12,33.78 57.99,39.73 59.3,14.79 101.55,-24.74 126.87,-118.4zm179.84 -137.26l132.53 40.52 6.33 245.63 142.82 -200.03 135.5 41.42 -6.31 20.65 -29.38 -8.98c-7.29,-2.23 -12.72,-2.4 -16.26,-0.57 -3.55,1.82 -6.33,6.03 -8.32,12.56l-76.82 251.25c-1.95,6.37 -1.85,11.22 0.47,14.5 3.31,4.91 8.75,8.57 16.34,10.89l26.04 7.96 -6.32 20.65 -167.07 -51.08 6.31 -20.65 31.58 9.66c5.84,1.78 10.76,1.46 14.79,-0.88 4.04,-2.34 6.92,-6.35 8.71,-12.2l82.27 -269.08 -199.22 276.16 -19.59 -5.99 -9.01 -342.73 -73.49 240.4c-4.23,13.81 -3.28,26.47 2.75,37.94 6.04,11.48 17.09,20.67 33.16,27.57l-6.31 20.65 -122.06 -37.32 6.31 -20.65c15.83,3.35 29.39,1.6 40.87,-5.26 11.4,-6.89 19.37,-17.74 23.84,-32.39l65.01 -212.61c2.76,-9.04 3.08,-15.5 0.87,-19.41 -2.21,-3.91 -7.82,-7.28 -16.7,-10l-25.96 -7.93 6.32 -20.65zm468.11 152.59l164.51 63.14 -7.74 20.16 -29.72 -11.41c-6.37,-2.44 -11.47,-2.88 -15.33,-1.46 -3.86,1.4 -6.76,4.54 -8.67,9.51l-95.4 248.54c-2.22,5.78 -2.34,10.49 -0.16,14.14 2.63,4.66 7.64,8.45 15.05,11.3l26.45 10.15 -7.74 20.16 -164.5 -63.15 7.73 -20.15 25.2 9.67c8.67,3.32 15.31,4.17 19.98,2.65 4.67,-1.53 8.09,-5.14 10.25,-10.77l94.33 -245.73c2.33,-6.07 2.44,-11.22 0.29,-15.36 -2.15,-4.14 -6.7,-7.59 -13.67,-10.26l-28.6 -10.98 7.74 -20.15zm525.6 216.08l-8.43 19.87 -26.74 -11.35c-11.69,-4.96 -20.24,-1.09 -25.63,11.62l-101.33 238.71c-5.39,12.71 -1.59,21.83 11.42,27.35l24.77 10.51 -8.44 19.87 -160.08 -67.95 8.43 -19.87 28.5 12.09c5.7,2.42 11.06,2.8 16.11,1.24 5.07,-1.56 8.66,-4.95 10.83,-10.06l47.05 -110.84 -23.53 -9.99c-15.27,-6.48 -28.91,-6.24 -41.03,0.78 -12.01,6.97 -27.67,23.95 -46.84,50.83 -13.97,19.5 -24.76,32.94 -32.3,40.35 -7.47,7.43 -16.5,12.05 -27.01,14.06 -10.48,1.93 -22.44,0.05 -35.88,-5.66 -19.15,-8.13 -31.39,-20.13 -36.82,-35.98 -5.36,-15.81 -3.48,-37.52 5.76,-65.16l18.78 7.97c-3,7.87 -4.72,16.8 -5.24,26.75 -0.52,9.96 1.82,16.04 7.15,18.3 6.94,2.95 18.1,-4.65 33.43,-22.89 15.93,-18.85 29.14,-32.29 39.63,-40.34 10.46,-7.98 22.44,-13.25 35.8,-15.68 13.47,-2.48 28.99,-1.66 46.57,2.44 -67.27,-35.12 -90.57,-76.91 -69.95,-125.5 11.57,-27.25 31.12,-42.84 58.75,-46.8 27.61,-3.89 57.97,1.15 91.08,15.2l165.19 70.13zm-175.26 101.68l44.63 -105.14c4.4,-10.38 5.44,-17.7 3.04,-21.99 -2.37,-4.37 -10.04,-9.27 -23.05,-14.79 -22.64,-9.61 -41.67,-12.34 -56.91,-8.12 -15.24,4.22 -27.89,18.17 -37.88,41.7 -11.32,26.67 -11.76,47.43 -1.27,62.32 10.57,14.92 25.41,26.48 44.7,34.67l26.74 11.35zm457.99 60.81l133.61 86.76 -11.76 18.11 -19.71 -12.8c-5.59,-3.63 -10.54,-5.05 -14.87,-4.35 -4.33,0.69 -7.88,3.11 -10.61,7.3l-61.38 94.53 109.97 71.41 58.23 -89.66c4.49,-6.93 6.14,-12.67 5.05,-17.26 -1.15,-4.63 -5.17,-9.23 -12.1,-13.72l-16.77 -10.89 11.76 -18.11 133.8 86.89 -11.76 18.11 -17.9 -11.63c-6.93,-4.5 -12.65,-6.32 -17.2,-5.59 -4.55,0.74 -8.65,3.85 -12.19,9.31l-141.45 217.81c-4.15,6.4 -5.72,12.01 -4.69,16.84 1.03,4.83 4.2,8.97 9.53,12.43l20.1 13.06 -11.76 18.1 -133.8 -86.89 11.76 -18.1 20.3 13.18c5.59,3.63 10.41,4.96 14.41,4.05 3.99,-0.9 7.91,-4.32 11.72,-10.18l67.35 -103.71 -109.97 -71.42 -67.35 103.71c-3.64,5.6 -5.12,10.5 -4.47,14.61 0.64,4.11 2.97,7.52 6.96,10.11l23.24 15.09 -11.76 18.11 -133.61 -86.77 11.76 -18.11 21.44 13.93c4.99,3.24 9.45,4.24 13.36,3.18 3.9,-1.06 7.71,-4.45 11.43,-10.18l141.19 -217.41c4.41,-6.79 6.06,-12.54 4.88,-17.28 -1.18,-4.74 -5.07,-9.25 -11.72,-13.57l-16.78 -10.9 11.76 -18.1zm516.06 364.2l-104.85 317.34c-2.91,9.04 -3.71,16.13 -2.44,21.33 1.2,5.14 4.53,10.15 9.92,14.83l9.47 8.23 -14.17 16.29 -121.79 -105.86 14.17 -16.3 11.38 9.9c8.99,7.81 16.1,12.2 21.23,13.19 5.08,0.94 9.05,-0.23 11.91,-3.53 2.24,-2.57 4.19,-6.14 5.72,-10.81l21.57 -65.59 -96.87 -84.2 -28.52 13.69c-11.75,5.78 -19.66,10.89 -23.52,15.32 -6.61,7.61 -9.16,16.23 -7.64,25.86 1.52,9.62 7.1,18.68 16.81,27.12l8.21 7.13 -14.17 16.3 -98.42 -85.56 14.16 -16.3 5.63 4.9c6.29,5.47 13.63,8.27 21.86,8.48 11.67,0.26 23.19,-2.35 34.56,-7.82l286.14 -141.02 19.65 17.08zm-85.23 41.07l-127.38 62.8 82.49 71.71 44.89 -134.51zm248.81 111.15l142.26 152.56c22.08,23.69 33.83,47.57 35.29,71.71 1.35,24.14 -6.37,44.04 -23.14,59.68 -14.69,13.7 -32.21,19.94 -52.49,18.67 -20.34,-1.33 -43.45,-10.17 -69.27,-26.57 21.98,33.11 33.08,60.85 33.31,83.21 0.29,22.31 -7.84,41.17 -24.38,56.6 -14.63,13.64 -31.23,21.09 -49.81,22.36 -13.23,0.83 -29.81,-3.68 -49.79,-13.48 -19.99,-9.91 -39.67,-25.2 -59.05,-45.98l-134.47 -144.2 15.79 -14.72 21.55 23.1c3.73,4.01 7.76,5.89 12.04,5.7 5.85,-0.36 10.99,-2.65 15.52,-6.87l194.76 -181.62c2.9,-2.7 4.09,-6.2 3.56,-10.49 -0.58,-4.23 -3.66,-9.39 -9.23,-15.37l-18.24 -19.56 15.79 -14.73zm-29.89 196.42l26.47 28.38c18.19,19.51 35.25,29.65 51.28,30.44 15.98,0.72 33.35,-7.66 52.15,-25.19 16.38,-15.27 24.25,-30.1 23.63,-44.61 -0.56,-14.46 -11.37,-33.03 -32.42,-55.61 -10.02,-10.74 -17.39,-16.67 -22.02,-17.79 -4.57,-1.06 -9.46,0.79 -14.57,5.56l-84.52 78.82zm-15.62 14.56l-91.54 85.37c-4.76,4.44 -7.44,8.78 -8.04,13.14 -0.55,4.42 0.72,8.34 4.02,11.88l30.42 32.62c14.94,16.03 31.05,24.45 48.26,25.45 17.26,1.05 34.31,-6.39 51.2,-22.14 17.71,-16.51 26.69,-34 26.94,-52.47 0.25,-18.47 -8.26,-37.02 -25.58,-55.59l-35.68 -38.26zm167.85 393.81l145.64 -227.98c6.88,-10.9 10.22,-19.2 10.1,-24.96 -0.17,-5.83 -3.09,-13.61 -8.9,-23.27l-3.72 -6.2 18.51 -11.12 86.71 144.31 -18.51 11.12 -8.99 -14.96c-5.97,-9.94 -11.03,-15.88 -15.05,-17.81 -4.06,-1.82 -8.03,-1.66 -12.05,0.75 -4.62,2.78 -8.91,7.21 -12.76,13.13l-99.2 151 140.44 -17.33c14.89,-1.73 26.96,-5.37 36.07,-10.85 16.61,-9.97 19,-24.94 7.11,-44.73l-8.01 -13.34 18.5 -11.12 68.52 114.03 -18.51 11.12 -5.27 -8.77c-5.77,-9.6 -14.07,-14.79 -24.85,-15.63 -10.85,-0.8 -23.21,-0.41 -37.04,1.23l-241.06 28.17c-23.25,2.77 -42.56,1.31 -57.85,-4.41 -15.29,-5.72 -28.8,-18.35 -40.53,-37.87 -13.21,-21.98 -18.58,-42.18 -16.14,-60.78 2.4,-18.48 10.82,-32.06 25.18,-40.69 10.89,-6.54 21.93,-8.82 33,-6.86 11.2,1.98 19.87,8.25 26.17,18.72 5.76,9.6 7.21,19.1 4.21,28.59 -3,9.49 -9.56,17.22 -19.63,23.28 -4.29,2.57 -9.67,4.23 -16.28,4.96 -6.71,0.7 -10.67,1.5 -12.16,2.4 -2.93,1.76 -4.53,4.95 -4.82,9.56 -0.32,4.55 1.22,9.74 4.65,15.45 10.47,17.42 29.27,24.36 56.52,20.86zm268.09 235.19l17.52 41.28c4.56,10.74 10.39,18.79 17.49,24.14 7.05,5.45 14.33,7.97 21.68,7.61 7.35,-0.36 18.88,-3.27 34.73,-8.79 26.48,-9.52 46.31,-15.43 59.5,-17.67 13.19,-2.24 25.39,-0.52 36.64,5.06 11.17,5.6 19.92,15.86 26.28,30.83 7.16,16.88 7.79,31.96 1.73,45.31 -6.06,13.36 -15.1,22.54 -27.08,27.63 -10.81,4.58 -21.42,5.21 -31.84,1.78 -10.35,-3.45 -17.46,-9.66 -21.28,-18.65 -3.81,-8.98 -4.13,-17.65 -1.01,-25.95 3.11,-8.3 8.93,-14.31 17.48,-17.94 4.31,-1.83 9.22,-2.45 14.84,-1.99 3.89,0.42 6.57,0.23 8.1,-0.42 7.02,-2.98 9.35,-7.24 6.99,-12.8 -2.42,-5.69 -7.83,-9.09 -16.26,-10.26 -8.35,-1.19 -28.84,3.97 -61.38,15.46 -26.77,9.46 -45.43,13.24 -56,11.09 -10.62,-2.05 -20.42,-8.49 -29.57,-19.27 5.18,31.69 3.27,54.41 -5.88,68.21 -9.15,13.79 -25.26,29.26 -48.3,46.28 -22.07,16.27 -31.59,27.98 -28.58,35.07 4,9.42 18.82,9.6 44.49,0.6l8.01 18.85c-50.98,18.45 -84.74,8.2 -101.21,-30.6 -4.71,-11.1 -6.68,-21.64 -6.02,-31.67 0.76,-9.98 5.68,-19.92 14.72,-29.7 9.01,-9.86 29.72,-24.26 62.03,-43.41 17.68,-10.35 29.23,-22.15 34.74,-35.35 5.52,-13.21 5.5,-26.48 -0.21,-39.92l-11.35 -26.75 -115.44 49c-10.23,4.35 -12.57,13.27 -6.8,26.86l9.55 22.51 -19.87 8.43 -65.72 -154.82 19.87 -8.44 10.55 24.84c3.47,8.18 7.68,12.61 12.64,13.52 4.85,0.87 8.59,0.75 11.15,-0.33l245.13 -104.05c10.82,-4.6 13.5,-13.5 7.92,-26.65l-10.54 -24.84 19.87 -8.44 65.72 154.83 -19.88 8.43 -10.73 -25.28c-1.58,-3.72 -4.53,-7.04 -8.77,-9.9 -4.26,-2.93 -9.26,-3.14 -14.96,-0.72l-110.69 46.99z"/>
   <path class="fil0" d="M6187.1 6882.26l38.22 6.74c61.13,10.78 102.79,27.31 125.06,49.53 22.27,22.31 30.99,47.3 26.09,75.13 -5.94,33.69 -22.24,55.72 -48.77,65.87 -26.63,10.22 -60.34,11.69 -101.07,4.51l-194.24 -34.25 3.74 -21.27 31.19 5.5c5.79,1.02 10.52,-0.24 14.21,-3.78 3.69,-3.54 6.11,-8.11 7.1,-13.74l46.24 -262.26c1.56,-8.83 -5.16,-14.6 -20.17,-17.25l-26.34 -4.65 3.75 -21.26 296.42 52.27 -16.75 114.64 -20.56 -3.63c1.4,-17.08 0.21,-34.13 -3.7,-51.26 -3.89,-17.22 -10.66,-30.02 -20.14,-38.46 -9.55,-8.45 -24.99,-14.56 -46.41,-18.33l-49.87 -8.8c-14.23,-2.51 -22.42,2.34 -24.54,14.37l-19.46 110.38zm-3.72 21.1l-22.37 126.87c-2.32,13.13 1.68,20.61 11.92,22.42l43.93 7.74c18.76,3.31 35.96,0.86 51.5,-7.28 15.45,-8.08 25.56,-25.24 30.17,-51.34 8.9,-50.5 -12.29,-80.27 -63.64,-89.33l-51.51 -9.08zm263.92 -136.3l297.84 31.31 -5.86 120.29 -20.29 -2.13c-1.84,-28.76 -5.71,-49.68 -11.51,-62.82 -5.87,-13.23 -14.3,-23.45 -25.33,-30.84 -10.96,-7.37 -25.86,-12.13 -44.65,-14.11l-46.74 -4.91c-7.26,-0.76 -12.63,0.19 -16.24,2.68 -3.54,2.5 -5.53,6.28 -6.07,11.42l-12.46 118.56 15.95 1.68c18.39,1.93 33.15,-1.79 44.35,-11.22 11.21,-9.44 18.9,-25.63 23.24,-48.72l20.76 2.18 -16.71 159.07 -20.76 -2.19c1.34,-26.51 -2.47,-45.67 -11.52,-57.55 -9.04,-11.89 -23.79,-18.86 -44.32,-21.02l-13.18 -1.39 -13.3 126.55c-0.58,5.52 0.58,9.63 3.66,12.27 4.53,3.91 11.46,6.39 20.7,7.36l41.2 4.33c28.18,2.97 52.19,-3.69 71.92,-19.81 19.82,-16.2 33.8,-42.18 41.89,-78.13l20.84 2.19 -18.73 129.65 -310.63 -32.65 2.25 -21.47 30.79 3.23c6.95,0.73 12.35,-0.53 16.35,-3.71 4.01,-3.17 6.32,-7.71 6.95,-13.71l27.67 -263.19c0.58,-5.6 -0.8,-9.9 -4.16,-12.89 -3.36,-2.98 -9.69,-5 -19.08,-5.99l-27.08 -2.85 2.26 -21.47zm409.91 64.83l1.13 -21.56 314.38 16.48 -1.13 21.56 -30.84 -1.62c-13,-0.68 -19.78,4.37 -20.34,15.07l-13.93 265.86c-0.64,12.21 6.64,18.79 22.02,19.59l27.35 1.44 -1.13 21.56 -175.98 -9.23 1.13 -21.56 26.88 1.41c17.04,0.9 25.92,-4.84 26.56,-17.05l14.78 -281.94 -58.1 -3.05c-14.98,-0.78 -25.48,0.89 -31.34,5.03 -5.86,4.15 -10.24,10.36 -13.06,18.63 -2.82,8.36 -7.41,39.68 -13.67,93.95 -5.97,51.83 -12.7,92.25 -20.1,121.2 -7.4,28.93 -18.61,50.21 -33.46,63.66 -14.94,13.52 -32.11,19.77 -51.62,18.75 -16.72,-0.87 -29.31,-6.38 -37.6,-16.51 -8.29,-10.14 -12.14,-21.62 -11.47,-34.47 0.65,-12.28 4.82,-22.16 12.37,-29.79 7.63,-7.55 17.12,-11.1 28.37,-10.51 6.66,0.35 13.68,2.94 20.98,7.62 7.23,4.74 10.91,13.36 10.8,26 0.13,9.78 3.44,14.8 9.94,15.14 12.53,0.66 23.11,-17.86 31.77,-55.72 8.66,-37.78 14.28,-81.28 16.85,-130.35 2.18,-41.61 0.32,-68.34 -5.58,-80.01 -5.9,-11.76 -17.1,-18.07 -33.67,-18.93l-12.29 -0.65zm539.4 -11.42l123.67 310.49c3.57,8.8 7.52,14.74 11.83,17.91 4.23,3.17 10,4.86 17.14,4.99l12.54 0.21 -0.38 21.59 -161.35 -2.81 0.38 -21.59 15.08 0.26c11.9,0.21 20.18,-1 24.75,-3.54 4.49,-2.54 6.77,-5.99 6.85,-10.35 0.06,-3.42 -0.75,-7.4 -2.57,-11.96l-25.64 -64.11 -128.33 -2.24 -13.04 28.82c-5.29,11.98 -8.07,20.98 -8.17,26.85 -0.18,10.08 3.41,18.32 10.76,24.72 7.35,6.4 17.45,9.75 30.31,9.98l10.88 0.19 -0.38 21.58 -130.4 -2.27 0.38 -21.59 7.46 0.13c8.33,0.15 15.76,-2.42 22.2,-7.55 9.1,-7.3 16.25,-16.71 21.45,-28.21l128.54 -291.96 26.04 0.46zm-38.9 86.25l-57.21 129.99 109.29 1.9 -52.08 -131.89zm228.4 -77.67l201.1 -10.54c34.08,-1.78 61.98,5.89 83.64,23.12 21.72,17.15 33.27,38.95 34.66,65.43 1.06,20.13 -4.05,38.04 -15.22,53.81 -11.26,15.69 -26.78,27.47 -46.64,35.35 -19.77,7.87 -39.65,12.33 -59.46,13.37l-63.66 3.34 5.87 111.92c0.33,6.26 2.4,10.92 6.15,14.14 3.74,3.23 8.35,4.73 13.98,4.44l39.48 -2.07 1.13 21.56 -183.03 9.59 -1.13 -21.56 30.68 -1.61c6.81,-0.35 11.87,-2.37 15.18,-5.96 3.31,-3.59 4.81,-8.44 4.48,-14.7l-13.71 -261.66c-0.31,-5.94 -2.38,-10.44 -6.13,-13.67 -3.74,-3.22 -8.12,-4.73 -13.26,-4.46l-32.98 1.72 -1.13 -21.56zm133.32 162.79l42.57 -2.23c14.82,-0.77 27.89,-4.64 39.05,-11.58 11.25,-6.95 19,-15.15 23.44,-24.44 4.36,-9.29 6.05,-24.09 4.99,-44.38 -1.47,-27.9 -10.03,-47.16 -25.6,-57.79 -11.46,-7.67 -30.37,-10.73 -56.85,-9.34 -15.37,0.81 -24.98,2.58 -28.97,5.33 -3.99,2.76 -5.82,7.22 -5.5,13.4l6.87 131.03zm391.29 96.78l-145.08 -228.33c-6.96,-10.85 -13.07,-17.39 -18.34,-19.7 -5.36,-2.32 -13.65,-2.96 -24.86,-1.78l-7.18 0.75 -2.26 -21.47 167.43 -17.6 2.26 21.48 -17.36 1.82c-11.53,1.21 -19.06,3.28 -22.51,6.12 -3.36,2.9 -4.89,6.57 -4.4,11.23 0.56,5.37 2.76,11.13 6.51,17.12l94.93 153.72 43.63 -134.61c4.73,-14.22 6.53,-26.7 5.42,-37.28 -2.02,-19.26 -14.57,-27.76 -37.54,-25.34l-15.47 1.62 -2.26 -21.47 132.31 -13.9 2.25 21.47 -10.18 1.07c-11.13,1.17 -19.35,6.5 -24.67,15.92 -5.3,9.5 -10.18,20.86 -14.53,34.09l-76.35 230.38c-7.32,22.24 -16.8,39.12 -28.45,50.56 -11.64,11.44 -28.79,18.35 -51.45,20.73 -25.5,2.68 -46.08,-0.98 -61.9,-11.06 -15.74,-9.99 -24.49,-23.36 -26.24,-40.02 -1.32,-12.63 1.28,-23.6 7.73,-32.81 6.52,-9.31 15.87,-14.52 28.03,-15.8 11.13,-1.17 20.35,1.53 27.68,8.27 7.34,6.73 11.58,15.94 12.81,27.62 0.52,4.98 -0.25,10.56 -2.39,16.85 -2.2,6.38 -3.14,10.31 -2.96,12.05 0.36,3.39 2.57,6.19 6.63,8.4 3.99,2.21 9.34,3.01 15.97,2.31 20.2,-2.12 34.45,-16.23 42.79,-42.41zm435.02 -318.2l11.13 -36.03 17.06 -2.4 24.93 135.73 -21.15 2.97c-12.13,-38.37 -28.72,-65.78 -49.63,-82.24 -20.92,-16.53 -43.17,-23.11 -66.67,-19.81 -25.78,3.63 -45.35,18.97 -58.8,45.87 -13.44,26.97 -16.48,66.92 -9.05,119.82 7.88,56.04 23.09,96.38 45.44,120.89 17.87,19.29 41.38,26.89 70.38,22.81 29,-4.07 51.95,-18.2 68.67,-42.35 12.13,-17.49 18.9,-41.77 20.31,-72.83l20.75 -2.92c0.58,39.52 -9.95,72.34 -31.47,98.37 -21.58,26.04 -50.41,41.63 -86.49,46.7 -46.61,6.55 -88.07,-4.45 -124.22,-32.95 -36.22,-28.42 -57.87,-68.42 -65.1,-119.83 -8.03,-57.14 3.72,-105.28 35.32,-144.51 26.97,-33.37 61.17,-52.93 102.83,-58.78 16.43,-2.31 32.04,-1.94 46.75,1.29 14.79,3.13 31.13,9.89 49.01,20.2zm85.17 -36.42l172.36 -36.63 4.49 21.11 -31.13 6.62c-6.68,1.42 -11.19,3.84 -13.66,7.12 -2.47,3.29 -3.2,7.5 -2.09,12.7l55.35 260.41c1.29,6.05 3.76,10.07 7.57,11.94 4.75,2.48 11.01,2.93 18.78,1.28l27.71 -5.89 4.49 21.12 -172.36 36.64 -4.49 -21.12 26.4 -5.61c9.08,-1.93 15.12,-4.84 18.2,-8.66 3.08,-3.82 3.99,-8.72 2.74,-14.62l-54.73 -257.46c-1.35,-6.36 -4.07,-10.74 -8.13,-13.04 -4.06,-2.3 -9.74,-2.71 -17.04,-1.16l-29.97 6.37 -4.49 -21.12z"/>
   <path class="fil1" d="M7486.85 1308.52c1315.38,0 2509.79,338.12 3375.57,883.5 868.21,546.92 1406.45,1302.5 1406.45,2135.5 0,833.01 -538.24,1588.57 -1406.45,2135.49 -865.78,545.4 -2060.19,883.48 -3375.57,883.48 -1315.39,0 -2509.82,-338.08 -3375.6,-883.48 -868.19,-546.92 -1406.45,-1302.48 -1406.45,-2135.49 0,-833 538.26,-1588.58 1406.45,-2135.5 865.78,-545.38 2060.21,-883.5 3375.6,-883.5zm0 -141.72l0 0c1350.88,0 2577.87,353.02 3467.55,922.47 894.62,572.6 1449.25,1364.48 1449.25,2238.25 0,873.76 -554.63,1665.63 -1449.25,2238.24 -889.68,569.45 -2116.67,922.45 -3467.55,922.45 -1350.89,0 -2577.9,-353 -3467.58,-922.45 -894.61,-572.61 -1449.23,-1364.48 -1449.23,-2238.24 0,-873.77 554.62,-1665.65 1449.23,-2238.25 889.68,-569.45 2116.69,-922.47 3467.58,-922.47zm0 76.03l0 0c1336.24,0 2548.64,348.36 3426.56,910.29 873.01,558.76 1414.21,1328.24 1414.21,2174.4 0,846.14 -541.23,1615.63 -1414.21,2174.38 -877.92,561.93 -2090.32,910.28 -3426.56,910.28 -1336.25,0 -2548.66,-348.35 -3426.59,-910.28 -872.99,-558.75 -1414.19,-1328.24 -1414.19,-2174.38 0,-846.16 541.2,-1615.64 1414.19,-2174.4 877.93,-561.93 2090.34,-910.29 3426.59,-910.29zm0 101.3l0 0c1308.63,0 2496.33,336 3356.66,877.94 857.89,540.42 1389.74,1285.46 1389.74,2105.45 0,819.98 -531.85,1565 -1389.74,2105.44 -860.33,541.93 -2048.03,877.91 -3356.66,877.91 -1308.65,0 -2496.34,-335.98 -3356.67,-877.91 -857.89,-540.44 -1389.75,-1285.46 -1389.75,-2105.44 0,-819.99 531.86,-1565.03 1389.75,-2105.45 860.33,-541.94 2048.02,-877.94 3356.67,-877.94zm0 612.93l0 0c-1137.28,0 -2170.12,266.04 -2918.89,695.15 -753.01,431.55 -1219.84,1028.55 -1219.84,1687.49 0,658.93 466.83,1255.95 1219.84,1687.48 748.77,429.13 1781.61,695.14 2918.89,695.14 1019.51,0 2027.22,-184.15 2918.85,-695.14 753.02,-431.53 1219.87,-1028.55 1219.87,-1687.48 0,-658.94 -466.85,-1255.94 -1219.87,-1687.49 -748.76,-429.11 -1781.6,-695.15 -2918.85,-695.15zm-3115.73 1549.01l0 0 7.54 -137.44 -187.93 -44.28 0 1608.37 223.31 0 0 -1441.39 16.13 0c486.68,-540.88 1673.32,-924.43 3054.18,-924.43 1377.19,0 2561.11,381.53 3050.2,920.13l26.24 0 0 1448.09 221.92 0.17 0 -1611.13 -179.41 42.25 -0.99 140.84 -40.38 -0.17 1.18 -168.21c-286.16,-323.2 -729.58,-586.79 -1260.54,-770.69 -542.05,-187.73 -1174.88,-292.22 -1824.65,-292.22 -647.7,0 -1271.3,103.76 -1804.88,290.29 -526.53,184.06 -965.16,448.53 -1252.26,773.09l-9.26 168.93 -40.4 -2.2zm1482.02 1462.28l0 0 -97.65 0 -1203.77 342.07 251.03 67.99 1050.39 -410.06zm3278.84 0l0 0 1044.33 403.01 244.81 -56.73 -1191.35 -346.28 -97.79 0zm137.59 91.17l0 0 -125.11 -48.28c-226.04,21.44 -469.47,38.89 -721.72,51.59 -305.68,15.4 -622.82,23.75 -936.01,23.75 -314.35,0 -636.15,-8.42 -946.37,-23.92 -246.13,-12.3 -484.04,-29 -704.28,-49.47l-124.43 48.58c255.27,26.12 535.77,46.96 825.87,61.47 310.23,15.51 632.95,23.92 949.21,23.92 315.09,0 633.18,-8.35 938.85,-23.75 296.21,-14.93 582.27,-36.61 843.99,-63.89zm390.87 150.82l0 0 -157.29 -60.69c-253.6,31.46 -533.25,56.99 -827.02,75.86 -383.15,24.61 -788.48,37.76 -1189.4,37.76 -400.95,0 -806.27,-13.15 -1189.43,-37.76 -289.01,-18.55 -564.37,-43.58 -814.67,-74.34l-156.31 61.01c290.93,40.08 619.44,71.85 965.93,94.1 383.16,24.62 790.17,37.75 1194.48,37.75 404.27,0 811.28,-13.13 1194.45,-37.75 351.78,-22.58 685.05,-55.01 979.26,-95.94zm393.1 151.7l0 0 -182.37 -70.37c-272.31,44.66 -580.92,81.48 -913.25,109.27 -459.18,38.39 -960.65,59.21 -1471.19,59.21 -517.07,0 -1025.09,-21.42 -1489.16,-60.73 -319.84,-27.07 -617.46,-62.51 -881.48,-105.16l-181.88 71c307.16,56.4 665.68,102.17 1055.07,135.13 464.09,39.31 974.82,60.72 1497.45,60.72 516.09,0 1020.3,-20.81 1479.46,-59.21 402.09,-33.62 771.96,-80.97 1087.35,-139.86zm-2768.48 -943.53l0 0c138.93,-15.9 274.19,-15.9 405.77,0l0 514.39 127.25 0.09 0 -1430.05c-109.57,-10.47 -220.79,-15.89 -332.04,-15.89 -110.3,0 -220.61,5.35 -329.29,15.64l0 1430.03 128.31 0 0 -514.21zm-3412.14 514.21l0 0 -0.4 0 0 17.83c0,206.61 409.34,391.33 1069.6,522.6 652.44,129.72 1552.61,210.16 2543.96,210.16 992.28,0 1893.21,-79.89 2545.84,-209.14 659.14,-130.54 1067.69,-314.38 1067.69,-520.83l0 -2.79 0.92 0 -0.1 -1597.17 -317.22 -65.89 -0.5 0 0 0.11 -179.75 42.33 -4.48 -11.84c-290.81,-331.31 -742.35,-600.89 -1282.83,-788.08 -546.12,-189.15 -1183.52,-294.43 -1837.73,-294.43 -652,0 -1280.21,104.62 -1818.13,292.65 -535.78,187.27 -982.24,457.54 -1273.96,789.86l-5.05 12.15 -0.12 2.31 -189.93 -44.74 0 -0.32 -1.32 0 -316.5 65.89 0.01 1579.34zm4012.76 0.32l0 0 74.07 0.06 0 -1413.72c-24.58,-3.36 -49.27,-6.45 -74.07,-9.32l0 1422.98zm333.24 0.26l0 0 133.43 0.1 0 -1335.82c-43.66,-11.63 -88.17,-22.39 -133.43,-32.29l0 1368.01zm364.72 0.28l0 0 328.83 0.25 0 -1169.22 -68.02 16.01 -12.27 -1.52c-76.22,-39.96 -159.6,-76.39 -248.54,-108.93l0 1263.41zm382.47 0.3l0 0 58.78 0.05 0 -1195.79 -58.78 13.83 0 1181.91zm264.4 0.21l0 0 105.86 0.08 0 -1269.38 -105.86 24.93 0 1244.37zm289.39 0.21l0 0 202.41 0.17 0 -1360.58 -202.41 47.66 0 1312.75zm239.02 0.2l0 0 40.1 0.02 0 -1378.69 -40.1 9.43 0 1369.24zm180.42 0.14l0 0 72.25 0.05 0 -1428.92 -72.25 17.01 0 1411.86zm197.48 0.16l0 0 109.38 0.07 0 -1441.95 -43.33 0c-11.54,-8.01 -23.44,-15.94 -35.57,-23.83l-30.48 7.18 0 1458.53zm137.16 0.09l0 0 30.46 0.03 0 -1442 -30.46 0 0 1441.97zm136.95 0.11l0 0 54.82 0.04 0 -1442.12 -54.82 0 0 1442.08zm-5901.85 -2.28l0 0 54.84 0 0 -1439.8 -54.84 0 0 1439.8zm161.33 0l0 0 30.43 0 0 -1439.8 -30.43 0 0 1439.8zm58.2 0l0 0 109.39 0 0 -1455.89 -42.49 -10.01c-13.32,8.64 -26.38,17.33 -39.03,26.1l-27.87 0 0 1439.8zm234.62 0l0 0 72.25 0 0 -1409.36 -72.25 -17.02 0 1426.38zm212.58 0l0 0 40.1 0 0 -1366.86 -40.1 -9.45 0 1376.31zm76.72 0l0 0 202.4 0 0 -1310.56 -202.4 -47.68 0 1358.24zm385.93 0l0 0 105.85 0 0 -1242.39 -105.85 -24.94 0 1267.33zm311.47 0l0 0 58.78 0 0 -1180.11 -58.78 -13.85 0 1193.96zm112.42 0l0 0 328.84 0 0 -1263.57c-89.98,32.81 -174.28,69.58 -251.32,109.95l-12.24 1.52 -65.28 -15.37 0 1167.47zm560.13 0l0 0 133.43 0 0 -1368.03c-45.25,9.85 -89.77,20.58 -133.43,32.14l0 1335.89zm392.6 0l0 0 74.06 0 0 -1422.98c-24.81,2.84 -49.49,5.93 -74.06,9.28l0 1413.7zm2783.94 -1652.78l0 0c-13.2,-5.46 -26.58,-10.86 -40.1,-16.22l0 265 40.1 -9.44 0 -239.34zm140.32 206.29l0 0 72.25 -17.01 0 -90.82c-23.4,-12.22 -47.48,-24.27 -72.25,-36.13l0 143.96zm-914.45 -435.57l0 0c-19.44,-4.06 -39.04,-8.03 -58.78,-11.93l0 676.7 58.78 -13.84 0 -650.93zm205.62 602.5l0 0 105.86 -24.93 0 -503.24c-34.7,-9.42 -70,-18.58 -105.86,-27.48l0 555.65zm-1270.76 -737.91l0 0c-24.58,-1.37 -49.27,-2.67 -74.07,-3.82l0 562.79c24.8,2.84 49.49,5.91 74.07,9.26l0 -568.23zm259.17 613.62l0 0c0.9,0.19 1.79,0.38 2.68,0.58 44.29,9.62 87.9,20.06 130.75,31.32l0 -613.89c-44.07,-4.67 -88.56,-8.97 -133.43,-12.94l0 594.93zm-1203.84 -614.45l0 0 0 568.69c24.58,-3.3 49.28,-6.37 74.06,-9.17l0 -563.21c-24.78,1.13 -49.47,2.35 -74.06,3.69zm-259.17 613.85l0 0 0 -595.68c-44.86,3.89 -89.37,8.12 -133.43,12.69l0 614.77c41.94,-10.99 84.66,-21.19 128,-30.6 1.8,-0.39 3.61,-0.78 5.43,-1.18zm400.84 -620.35l0 0 0 559c108.73,-10.2 219.02,-15.49 329.29,-15.49 111.21,0 222.42,5.37 332.04,15.74l0 -558.66c-111.16,-4.36 -224.04,-6.62 -338.39,-6.62 -109.04,0 -216.79,2.05 -322.94,6.03zm1426.89 724.38l0 0c92.7,33.37 179.65,70.9 259.12,112.18l69.71 -16.42 0 -699.69c-106.05,-20.01 -215.81,-37.88 -328.83,-53.44l0 657.37zm936.26 -47.3l0 0 202.41 -47.66 0 -287.86c-64.35,-24.59 -131.92,-48.13 -202.41,-70.56l0 406.08zm-3128.71 46.3l0 0 0 -658.42c-112.97,15.29 -222.74,32.9 -328.84,52.64l0 703.19 66.95 15.77c80.27,-41.69 168.14,-79.56 261.89,-113.18zm-441.26 -583.78l0 0 0 654.7 58.78 13.85 0 -680.34c-19.73,3.86 -39.31,7.79 -58.78,11.79zm-205.62 606.26l0 0 0 -560.05c-35.86,8.78 -71.14,17.85 -105.85,27.16l0 507.95 105.85 24.94zm-289.38 -68.18l0 0 0 -411.48c-70.43,22.08 -138,45.27 -202.4,69.54l0 294.27 202.4 47.67zm-279.12 -311.93l0 0 0 246.18 40.1 9.46 0 -271.63c-13.52,5.28 -26.87,10.62 -40.1,15.99zm-140.33 213.14l0 0 0 -151.84c-24.74,11.65 -48.82,23.49 -72.25,35.49l0 99.32 72.25 17.03zm-197.48 -46.52l0 0 0 -0.14c-0.05,0.04 -0.09,0.07 -0.15,0.09l0.15 0.05zm5865.86 2292.48l0 0 -190.81 -67.22c-1666.05,446.91 -4306.27,443.8 -6047.83,16.64l-195.39 68.82c1687.05,540.54 4762.29,545.96 6434.03,-18.24zm-1181.5 627.72l0 0c-1309.19,246.76 -2898.02,220.69 -4201.19,-44.81 628.76,225.57 1371.33,356.18 2165.68,356.18 740.19,0 1435.44,-113.4 2035.51,-311.37zm-4889.7 -354.71l0 0c1735.62,421.8 4047.73,445.81 5670.24,20.99 26.24,-14.26 52.19,-28.7 77.77,-43.36 737.3,-422.53 1194.41,-1004.24 1194.41,-1643.71 0,-639.46 -457.11,-1221.16 -1194.41,-1643.7 -741.56,-424.99 -1765.47,-688.44 -2893.82,-688.44 -1128.36,0 -2152.29,263.45 -2893.83,688.44 -737.32,422.54 -1194.42,1004.24 -1194.42,1643.7 0,639.47 457.1,1221.18 1194.42,1643.71 13.1,7.5 26.33,14.95 39.64,22.37z"/>
  </g>
 </g>
</svg>
