<svg xmlns="http://www.w3.org/2000/svg" viewBox="0 0 1882.93 950.78"><title>Ресурс 2</title><polygon points="543.64 0 317.77 814 326.99 950.78 552.86 136.78 543.64 0" style="fill:#afafaf"/><polygon points="317.77 814 543.64 0 354.75 0 0 814 317.77 814" style="fill:#e9e9e9"/><polygon points="0 814 9.21 950.78 326.99 950.78 317.77 814 0 814" style="fill:#c4c4c4"/><rect x="906.79" y="211.59" width="60.44" height="90.22" transform="translate(-1.97 7.28) rotate(-0.44)" style="fill:#c4c4c4"/><polygon points="964.85 133.81 907.45 134.26 906.44 211.83 966.88 211.36 964.85 133.81" style="fill:#eaeaea"/><polygon points="1170.41 135.62 1170.41 225.84 1186.96 301.81 1186.96 211.59 1170.41 135.62" style="fill:#afafaf"/><polygon points="1186.96 211.59 1186.96 301.81 1186.96 303.64 1255.64 301.09 1255.64 211.59 1186.96 211.59" style="fill:#c4c4c4"/><polygon points="1255.64 211.59 1233.23 135.62 1170.41 135.62 1186.96 211.59 1255.64 211.59" style="fill:#eaeaea"/><polygon points="1284.13 300.23 1260.51 225.84 1284.13 300.23 1353.04 301.81 1284.13 299.65 1284.13 300.23" style="fill:#c4c4c4"/><polygon points="1284.13 299.65 1284.13 210.01 1284.13 210.01 1260.51 135.62 1260.51 225.84 1284.13 300.23 1284.13 299.65" style="fill:#afafaf"/><polygon points="1284.13 210.01 1284.13 299.65 1353.04 301.81 1353.04 211.59 1284.13 210.01" style="fill:#c4c4c4"/><polygon points="1284.13 210.01 1353.04 211.59 1324.79 135.62 1260.51 135.62 1284.13 210.01 1284.13 210.01" style="fill:#eaeaea"/><polygon points="1380.8 211.59 1353.04 135.62 1353.04 225.84 1380.8 301.81 1380.8 211.59" style="fill:#afafaf"/><rect x="1380.8" y="211.59" width="88.15" height="90.22" style="fill:#c4c4c4"/><polygon points="1468.95 211.59 1434.38 135.62 1353.04 135.62 1380.8 211.59 1468.95 211.59" style="fill:#eaeaea"/><polygon points="1606.29 301.81 1606.3 301.81 1606.29 301.81 1606.29 301.81" style="fill:#c4c4c4"/><polygon points="1462.62 225.84 1462.62 225.84 1499.64 301.81 1499.64 301.81 1462.62 225.84" style="fill:#c4c4c4"/><polygon points="1499.64 211.59 1499.64 211.59 1462.62 135.62 1462.62 225.84 1499.64 301.81 1499.64 211.59" style="fill:#afafaf"/><polygon points="1606.29 211.59 1499.64 211.59 1499.64 211.59 1499.64 301.81 1499.64 301.81 1499.64 301.81 1499.64 301.81 1606.29 301.81 1606.29 301.81 1606.29 211.59" style="fill:#c4c4c4"/><polygon points="1606.3 211.59 1563.92 135.62 1462.62 135.62 1499.64 211.59 1606.29 211.59 1606.3 211.59" style="fill:#eaeaea"/><polygon points="557.01 300.66 777.79 299.46 557.42 299.44 557.01 300.66" style="fill:#eaeaea"/><polygon points="773.45 209.31 552.66 210.51 556.98 299.44 557.42 299.44 777.79 299.46 773.45 209.31" style="fill:#c4c4c4"/><polygon points="784.52 131.51 773.45 209.31 777.79 299.46 788.87 221.67 784.52 131.51" style="fill:#afafaf"/><polygon points="784.52 131.51 577.59 135.61 552.66 210.51 773.45 209.31 784.52 131.51" style="fill:#eaeaea"/><polygon points="987.28 134.03 987.28 224.25 989.45 262.67 989.43 172.04 987.28 134.03" style="fill:#afafaf"/><polygon points="989.53 173.85 989.53 173.85 989.5 173.32 989.53 173.85 989.77 268.27 991.66 301.81 991.67 211.59 989.53 173.85" style="fill:#afafaf"/><rect x="991.67" y="211.59" width="68.35" height="90.22" style="fill:#c4c4c4"/><polygon points="989.5 173.32 989.44 172.15 989.43 172.04 989.45 262.67 989.45 263.53 989.77 268.27 989.77 268.27 989.53 173.85 989.5 173.32" style="fill:#9e9e9e"/><polygon points="1055.43 173.85 989.53 173.85 991.67 211.59 1060.01 211.59 1060.01 211.59 1055.43 173.85" style="fill:#eaeaea"/><polygon points="989.44 172.15 989.43 172.02 1055.21 172.02 1055.21 172.05 1050.6 134.03 987.28 134.03 989.43 172.04 989.44 172.15" style="fill:#eaeaea"/><polygon points="989.43 172.02 989.44 172.15 989.5 173.32 989.53 173.85 989.53 173.85 1055.43 173.85 1055.44 173.85 1055.21 172.05 1055.21 172.02 989.43 172.02" style="fill:#c4c4c4"/><rect x="802.12" y="211.59" width="86.9" height="90.22" style="fill:#c4c4c4"/><polygon points="886.96 134.03 804.43 134.03 802.12 211.59 889.02 211.59 886.96 134.03" style="fill:#eaeaea"/><polygon points="1272.74 172.58 1272.27 172.58 1272.89 174.63 1339.3 174.63 1338.58 172.67 1338.56 172.58 1338.56 172.58 1272.74 172.58 1272.74 172.58" style="fill:#c4c4c4"/><rect x="1089.56" y="211.59" height="14.25" style="fill:none"/><rect x="1089.56" y="225.84" height="75.98" style="fill:#c4c4c4"/><polygon points="1159.2 211.59 1089.56 211.59 1089.56 225.84 1089.56 301.81 1159.2 301.81 1159.2 301.81 1159.2 211.59 1159.2 211.59" style="fill:#c4c4c4"/><polygon points="1084.53 171.9 1084.54 171.92 1084.53 171.9 1084.53 171.9 1084.53 171.9 1079.94 135.62 1079.94 225.84 1084.47 261.66 1084.53 171.9" style="fill:#afafaf"/><polygon points="1089.56 211.59 1084.79 173.95 1085.03 266.05 1085.03 266.04 1089.56 301.81 1089.56 225.84 1089.56 211.59" style="fill:#afafaf"/><polygon points="1084.79 173.95 1084.54 171.92 1084.53 171.9 1084.47 261.66 1084.47 262.19 1085.03 266.04 1085.03 266.05 1084.79 173.95" style="fill:#9e9e9e"/><polygon points="1150.3 171.9 1142.16 135.62 1079.94 135.62 1084.53 171.9 1150.3 171.9" style="fill:#eaeaea"/><polygon points="1084.79 173.73 1084.53 171.9 1084.54 171.92 1084.79 173.95 1089.56 211.59 1089.56 211.59 1159.2 211.59 1150.32 171.98 1150.7 173.73 1084.79 173.73" style="fill:#eaeaea"/><polygon points="1084.53 171.9 1084.53 171.9 1084.79 173.73 1150.7 173.73 1150.32 171.98 1150.3 171.9 1150.3 171.9 1084.53 171.9 1084.53 171.9" style="fill:#c4c4c4"/><polygon points="1117.75 173.04 1117.75 173.04 1119.53 172.57 1112.86 135.62 1111.25 135.62 1111 135.62 1111.07 135.99 1117.75 173.04 1117.75 173.04" style="fill:#c4c4c4"/><polygon points="1304.09 173.6 1304.09 173.6 1305.78 172.89 1293.55 135.62 1291.96 135.62 1291.62 135.62 1291.8 136.17 1304.09 173.6 1304.09 173.6" style="fill:#c4c4c4"/><rect x="1549.31" y="338.93" height="90.22" style="fill:#c4c4c4"/><polygon points="1679.84 338.93 1549.31 338.93 1549.31 429.15 1679.84 429.15 1679.84 429.15 1679.84 338.93 1679.84 338.93" style="fill:#c4c4c4"/><polygon points="1524.58 286.88 1501.59 238.5 1501.59 328.72 1524.58 377.11 1524.58 286.88" style="fill:#afafaf"/><polygon points="1525.45 288.71 1525.45 378.94 1525.09 378.18 1549.31 429.15 1549.31 338.93 1525.45 288.71" style="fill:#afafaf"/><polygon points="1525.45 288.71 1524.75 287.24 1524.58 286.88 1524.58 286.88 1524.58 286.88 1524.58 377.11 1524.58 377.11 1525.09 378.18 1525.45 378.94 1525.45 288.71" style="fill:#9e9e9e"/><polygon points="1524.58 286.88 1650.06 286.88 1651.1 288.71 1525.45 288.71 1524.75 287.24 1525.45 288.71 1549.31 338.93 1549.31 338.93 1679.84 338.93 1622.37 238.5 1501.59 238.5 1524.58 286.88 1524.58 286.88" style="fill:#eaeaea"/><polygon points="1525.45 288.71 1651.1 288.71 1650.06 286.88 1524.58 286.88 1524.58 286.88 1524.75 287.24 1525.45 288.71" style="fill:#c4c4c4"/><polygon points="901.65 348.83 791.05 348.83 791.05 348.83 901.65 348.83 901.65 348.83" style="fill:#c4c4c4"/><polygon points="788.58 435.63 788.58 435.63 788.58 435.62 788.58 435.63" style="fill:#c4c4c4"/><polygon points="901.65 348.83 791.05 348.83 788.58 348.83 788.58 435.62 788.58 435.63 788.58 435.63 906.44 435.63 906.44 348.83 901.65 348.83" style="fill:#c4c4c4"/><polygon points="906.44 348.83 900.18 235.34 791.81 235.34 788.58 348.83 791.05 348.83 901.65 348.83 906.44 348.83" style="fill:#eaeaea"/><polygon points="1100.92 429.15 1100.92 429.15 1086.89 339.59 1100.92 429.15" style="fill:#c4c4c4"/><polygon points="1293.14 347.94 1293.14 347.94 1100.92 347.94 1100.92 429.15 1293.14 429.15 1293.14 429.15 1293.14 347.94" style="fill:#c4c4c4"/><polygon points="1100.92 338.93 1086.89 249.37 1084.69 235.34 1084.69 325.56 1086.89 339.59 1100.92 429.15 1100.92 338.93 1100.92 338.93" style="fill:#afafaf"/><polygon points="1100.92 347.94 1100.92 347.94 1293.14 347.94 1262.62 235.34 1084.69 235.34 1086.89 250.59 1100.92 347.94" style="fill:#eaeaea"/><polygon points="765.74 411.01 774.25 235.33 765.74 411.01 765.74 411.01" style="fill:none"/><polygon points="776.24 411.01 776.18 411.01 776.19 412 776.24 411.01" style="fill:#eaeaea"/><polygon points="764.48 437.05 764.48 437.05 765.74 411.01 765.74 411.01 764.48 437.05" style="fill:#eaeaea"/><polygon points="764.48 493.34 764.48 493.34 560.85 493.34 562.84 612.73 766.46 612.73 764.48 493.34 764.48 493.34" style="fill:#c4c4c4"/><polygon points="764.48 499.67 765.74 465.55 774.25 235.33 588.55 235.33 560.85 499.67 764.48 499.67" style="fill:#eaeaea"/><polygon points="776.18 411.01 774.25 235.33 765.74 411.01 764.48 437.05 764.48 437.05 766.46 612.73 766.46 612.73 776.24 416.39 776.19 412 776.18 411.01" style="fill:#afafaf"/><polygon points="1082.13 350 1079.18 350.01 943.09 350.14 943.17 430.71 1079.17 430.58 1079.15 350.07 1082.13 350" style="fill:#c4c4c4"/><polygon points="937.32 235.35 936.66 318.43 943.17 430.71 943.17 430.71 943.84 347.63 937.32 235.35" style="fill:#afafaf"/><polygon points="943.54 350.14 1079.68 350.64 1062.44 236.97 937.44 235.34 943.54 350.14" style="fill:#eaeaea"/><rect x="787.58" y="493.34" width="166.56" height="90.22" style="fill:#c4c4c4"/><polygon points="954.14 493.34 949.27 371.46 796.34 371.46 787.58 493.34 954.14 493.34" style="fill:#eaeaea"/><polygon points="1172.36 493.34 1166.28 461.68 1166.28 461.68 1172.36 493.34 1172.36 493.34" style="fill:#c4c4c4"/><polygon points="1171.77 580.49 1172.36 583.56 1172.36 493.34 1171.77 580.49" style="fill:#c4c4c4"/><polygon points="1340.54 493.34 1172.36 493.34 1172.36 493.34 1172.36 583.56 1172.36 583.56 1172.36 583.56 1340.54 583.56 1340.54 583.56 1340.54 493.34" style="fill:#c4c4c4"/><polygon points="1166.28 461.68 1148.98 371.46 1148.98 461.68 1171.74 583.56 1171.77 580.49 1172.36 493.34 1166.28 461.68" style="fill:#afafaf"/><polygon points="1340.54 493.34 1340.54 493.34 1303.53 371.46 1148.98 371.46 1166.28 461.68 1172.36 493.34 1340.54 493.34" style="fill:#eaeaea"/><polygon points="1769.45 583.56 1769.45 583.56 1769.45 583.56 1769.45 583.56" style="fill:#c4c4c4"/><polygon points="1624.32 583.56 1624.32 583.56 1624.32 583.56 1624.32 583.56" style="fill:#c4c4c4"/><polygon points="1769.45 493.34 1624.32 493.34 1624.32 583.56 1769.45 583.56 1769.45 583.56 1769.45 493.34" style="fill:#c4c4c4"/><polygon points="1566.85 371.46 1566.85 461.68 1624.32 583.56 1624.32 583.56 1624.32 493.34 1566.85 371.46" style="fill:#afafaf"/><polygon points="1624.32 493.34 1769.45 493.34 1769.45 493.34 1697.86 371.46 1566.85 371.46 1624.32 493.34" style="fill:#eaeaea"/><polygon points="1135.99 583.56 1135.99 583.56 1135.99 583.56 1135.99 583.56" style="fill:#c4c4c4"/><polygon points="993.13 583.56 993.13 583.56 993.13 583.55 993.13 583.56" style="fill:#c4c4c4"/><polygon points="1135.99 493.34 1083.4 493.34 1083.4 493.34 1083.4 583.37 1081.42 583.56 1135.99 583.56 1135.99 583.56 1135.99 493.34" style="fill:#c4c4c4"/><polygon points="1083.4 493.34 1081.49 493.34 993.13 493.34 993.13 583.56 1081.42 583.56 1081.47 493.41 1083.4 493.34" style="fill:#c4c4c4"/><polygon points="984.04 371.46 984.04 461.68 993.13 583.55 993.13 583.56 993.13 493.34 984.04 371.46" style="fill:#afafaf"/><polygon points="993.13 493.34 1081.49 493.34 1066.39 371.46 984.04 371.46 993.13 493.34" style="fill:#eaeaea"/><polygon points="1083.4 493.34 1135.99 493.34 1135.99 493.34 1117.81 371.46 1068.24 371.46 1083.4 493.34" style="fill:#eaeaea"/><polygon points="1083.4 493.34 1081.47 493.41 1081.42 583.56 1083.4 583.37 1083.4 493.34" style="fill:#afafaf"/><polygon points="1081.49 493.34 1083.4 493.34 1083.4 493.34 1068.24 371.46 1066.39 371.46 1081.49 493.34" style="fill:#c4c4c4"/><rect x="1374.47" y="493.34" width="216.24" height="90.22" style="fill:#c4c4c4"/><polygon points="1293.14 238.74 1293.14 328.97 1374.47 583.56 1374.47 493.34 1293.14 238.74" style="fill:#afafaf"/><polygon points="1374.47 493.34 1590.71 493.34 1474.07 238.5 1293.14 238.74 1374.47 493.34" style="fill:#eaeaea"/><polygon points="629.2 644 629.2 644 625.9 680.54 629.2 644" style="fill:#eaeaea"/><polygon points="438.7 691.97 439.03 782.15 626.03 784.83 625.7 694.65 438.7 691.97" style="fill:#c4c4c4"/><polygon points="625.62 700.27 628.99 658.6 638.61 539.85 466.99 537.38 438.62 697.59 625.62 700.27" style="fill:#eaeaea"/><polygon points="638.61 539.85 629.2 644 625.9 680.54 626.03 784.83 638.75 644.13 638.61 539.85" style="fill:#afafaf"/><polygon points="746.29 783.59 746.29 783.6 753.93 628.48 746.29 783.59" style="fill:#eaeaea"/><polygon points="745.5 693.37 753.14 538.25 662 538.25 644.93 693.37 745.5 693.37" style="fill:#eaeaea"/><polygon points="746.29 783.6 746.29 783.6 746.29 783.59 746.29 783.6" style="fill:#c4c4c4"/><polygon points="644.93 693.37 645.72 783.6 746.29 783.6 745.5 693.37 644.93 693.37" style="fill:#c4c4c4"/><polygon points="753.93 628.48 753.14 538.25 745.5 693.37 746.29 783.6 746.29 783.59 753.93 628.48" style="fill:#afafaf"/><polygon points="1882.93 691.19 1882.93 691.19 1792.34 536.07 1694.45 536.07 1774.81 691.19 1882.93 691.19" style="fill:#eaeaea"/><polygon points="1694.45 536.07 1694.45 626.3 1774.81 781.41 1774.81 691.19 1694.45 536.07" style="fill:#afafaf"/><polygon points="1882.93 691.19 1774.81 691.19 1774.81 781.41 1882.93 781.41 1882.93 781.41 1882.93 691.19" style="fill:#c4c4c4"/><polygon points="984.04 691.19 975.53 536.07 785.79 532.91 776.24 691.19 984.04 691.19" style="fill:#eaeaea"/><rect x="776.24" y="691.19" width="207.8" height="90.22" style="fill:#c4c4c4"/><polygon points="1559.54 626.3 1625.29 779.83 1625.29 779.83 1559.54 626.3" style="fill:#c4c4c4"/><rect x="1625.29" y="689.61" width="106.78" height="90.22" style="fill:#c4c4c4"/><polygon points="1625.29 779.83 1625.29 779.83 1625.29 779.83 1625.29 779.83" style="fill:#c4c4c4"/><polygon points="1625.29 689.61 1559.54 536.07 1559.54 626.3 1625.29 779.83 1625.29 779.83 1625.29 689.61 1625.29 689.61" style="fill:#afafaf"/><polygon points="1625.29 689.61 1625.29 689.61 1732.07 689.61 1659.38 536.07 1559.54 536.07 1625.29 689.61" style="fill:#eaeaea"/><rect x="1490.38" y="689.61" height="90.22" style="fill:#c4c4c4"/><polygon points="1469.1 628.62 1469.1 628.62 1469.1 628.62 1560.54 628.62 1561.33 630.45 1469.76 630.45 1469.76 630.5 1490.38 689.61 1490.38 689.61 1585.35 689.61 1523.01 536.07 1436.81 536.07 1469.1 628.62" style="fill:#eaeaea"/><polygon points="1585.35 689.61 1490.38 689.61 1490.38 779.83 1585.35 779.83 1585.35 779.83 1585.35 689.61 1585.35 689.61" style="fill:#c4c4c4"/><polygon points="1469.76 630.5 1469.76 720.72 1490.38 779.83 1490.38 689.61 1469.76 630.5" style="fill:#afafaf"/><polygon points="1436.81 536.07 1436.81 626.3 1469.09 718.8 1469.1 628.62 1436.81 536.07" style="fill:#afafaf"/><polygon points="1561.33 630.45 1560.54 628.62 1469.1 628.62 1469.1 628.62 1469.1 628.62 1469.76 630.43 1469.76 630.45 1561.33 630.45" style="fill:#c4c4c4"/><polygon points="1469.76 630.45 1469.76 630.43 1469.1 628.62 1469.1 628.62 1469.1 628.62 1469.09 718.8 1469.09 718.81 1469.76 720.72 1469.76 720.72 1469.76 630.5 1469.76 630.45" style="fill:#9e9e9e"/><rect x="1300.93" y="691.19" height="90.22" style="fill:#c4c4c4"/><polygon points="1451.58 691.19 1300.93 691.19 1300.93 781.41 1451.58 781.41 1451.58 781.41 1451.58 691.19 1451.58 691.19" style="fill:#c4c4c4"/><polygon points="1283.64 614.7 1300.93 691.19 1300.93 691.19 1451.58 691.19 1425.63 612.73 1426.23 614.55 1283.64 614.7" style="fill:#eaeaea"/><polygon points="1283.19 612.72 1283.19 612.72 1425.63 612.72 1400.28 536.07 1265.86 536.07 1283.19 612.72 1283.19 612.72" style="fill:#eaeaea"/><polygon points="1283.19 612.72 1265.86 536.07 1265.86 626.3 1282.73 700.9 1283.19 612.72" style="fill:#afafaf"/><polygon points="1283.64 614.7 1283.64 614.7 1283.17 702.88 1300.93 781.41 1300.93 691.19 1283.64 614.7" style="fill:#afafaf"/><polygon points="1283.19 612.72 1283.19 612.72 1283.64 614.69 1283.64 614.7 1283.64 614.7 1426.23 614.55 1425.63 612.73 1425.63 612.72 1425.63 612.72 1283.19 612.72 1283.19 612.72" style="fill:#c4c4c4"/><polygon points="1283.64 614.7 1283.64 614.69 1283.19 612.72 1283.19 612.72 1283.19 612.72 1282.73 700.9 1282.73 700.91 1283.17 702.89 1283.17 702.88 1283.64 614.7" style="fill:#afafaf"/><polygon points="1012.67 616.67 1012.67 616.67 1013.34 626.3 1013.34 626.3 1012.67 616.67" style="fill:none"/><polygon points="1013.34 626.3 1017.8 691.19 1013.34 626.3 1013.34 626.3" style="fill:#c4c4c4"/><polygon points="1012.67 616.67 1013.34 626.3 1017.8 691.19 1100.92 691.19 1091.72 616.67 1012.68 616.67 1012.54 614.7 1091.48 614.7 1081.77 536.07 1007.13 536.07 1012.56 614.96 1012.67 616.67 1012.67 616.67" style="fill:#eaeaea"/><rect x="1017.8" y="691.19" width="83.12" height="90.22" style="fill:#c4c4c4"/><polygon points="1013.34 626.3 1012.67 616.67 1012.69 707.06 1017.8 781.41 1017.8 691.19 1013.34 626.3" style="fill:#afafaf"/><polygon points="1012.54 614.7 1007.13 536.07 1007.13 626.3 1012.55 705.08 1012.54 614.7" style="fill:#afafaf"/><polygon points="1012.68 616.67 1091.72 616.67 1091.72 616.67 1091.48 614.7 1091.48 614.7 1012.54 614.7 1012.68 616.67" style="fill:#c4c4c4"/><polygon points="1012.67 616.67 1012.67 616.67 1012.67 616.67 1012.56 614.96 1012.54 614.69 1012.54 614.7 1012.55 705.08 1012.55 705.36 1012.69 707.16 1012.69 707.06 1012.67 616.67" style="fill:#afafaf"/><polygon points="1128.47 615.68 1128.47 615.68 1129.89 626.3 1129.89 626.3 1128.47 615.68" style="fill:none"/><polygon points="1129.89 626.3 1138.59 691.19 1129.89 626.3 1129.89 626.3" style="fill:#c4c4c4"/><polygon points="1202.44 691.19 1200.52 691.28 1200.51 691.19 1138.59 691.19 1138.59 781.41 1262.62 781.41 1244.11 691.19 1202.44 691.19" style="fill:#c4c4c4"/><polygon points="1189.72 615.68 1128.47 615.68 1129.89 626.3 1138.59 691.19 1200.51 691.19 1189.72 615.68" style="fill:#eaeaea"/><polygon points="1230.8 536.07 1117.81 536.07 1128.21 613.71 1246.72 613.71 1230.8 536.07" style="fill:#eaeaea"/><polygon points="1191.72 615.68 1202.46 691.19 1202.44 691.19 1244.11 691.19 1262.62 691.19 1246.78 613.99 1247.13 615.68 1191.72 615.68" style="fill:#eaeaea"/><polygon points="1128.2 613.71 1128.2 613.71 1128.2 613.71 1128.2 613.71 1128.2 613.71 1128.21 613.71 1118.13 538.45 1117.81 626.3 1128.2 703.86 1128.2 613.71" style="fill:#acaaaa"/><polygon points="1129.89 626.3 1128.47 615.68 1128.44 615.68 1128.44 705.69 1138.59 781.41 1138.59 691.19 1129.89 626.3" style="fill:#acaaaa"/><polygon points="1128.44 615.68 1128.44 615.68 1128.47 615.68 1128.47 615.68 1189.72 615.68 1189.66 615.27 1191.59 614.73 1191.72 615.68 1247.13 615.68 1246.78 613.99 1246.72 613.71 1246.72 613.71 1128.21 613.71 1128.21 613.71 1128.2 613.71 1128.44 615.68" style="fill:#c4c4c4"/><polygon points="1128.2 613.71 1128.2 613.71 1128.2 613.71 1128.2 613.71" style="fill:#c4c4c4"/><polygon points="1128.44 615.68 1128.44 615.68 1128.2 613.71 1128.2 613.71 1128.2 613.71 1128.2 613.71 1128.2 703.86 1128.2 704.05 1128.44 706.03 1128.44 705.69 1128.44 615.68" style="fill:#afafaf"/><polygon points="1191.72 615.68 1191.59 614.73 1189.66 615.27 1189.72 615.68 1200.51 691.19 1200.52 691.28 1202.44 691.19 1202.46 691.19 1191.72 615.68" style="fill:#c4c4c4"/><rect x="1138.59" y="691.19" width="124.03" height="90.22" style="fill:#c4c4c4"/><polygon points="1200.48 781.41 1200.52 691.26 1202.46 691.19 1202.46 781.23 1200.48 781.41" style="fill:#afafaf"/><polyline points="869.42 819.38 869.42 832.07 869.42 863.6 869.42 909.5" style="fill:none;stroke:#acaaaa;stroke-linecap:round;stroke-linejoin:round;stroke-width:0px"/><polygon points="1260.38 816.24 1260.07 816.24 1260.09 816.34 1021.5 818.19 1021.36 818.19 1021.36 818.19 937.78 818.85 937.78 818.85 935.85 818.86 935.85 818.86 869.42 819.38 869.42 832.07 869.42 909.5 935.82 908.99 935.8 908.99 935.85 818.93 937.78 818.86 937.78 908.97 1021.32 908.32 1021.36 818.26 1023.29 818.19 1023.29 908.3 1093 907.76 1093.04 817.7 1094.98 817.64 1094.98 907.75 1181.44 907.07 1181.48 817.02 1183.42 816.95 1183.42 907.06 1260.38 906.46 1260.38 816.24" style="fill:#c4c4c4"/><polygon points="937.78 818.85 1021.36 818.19 1012.16 741.94 1014.13 741.94 1023.29 818.18 1021.5 818.19 1260.09 816.34 1260.07 816.24 1244.46 741.94 1170.61 741.94 1183.42 816.93 1181.46 816.95 1168.62 741.94 1084.9 741.94 1094.98 817.62 1093.03 817.64 1082.9 741.94 934.38 741.94 937.78 818.85" style="fill:#eaeaea"/><polygon points="932.42 741.94 869.13 741.94 869.13 819.38 869.42 819.38 869.42 819.38 935.85 818.86 932.42 741.94" style="fill:#eaeaea"/><polygon points="935.85 818.86 935.85 818.86 937.78 818.85 937.78 818.85 934.38 741.94 934.38 741.94 932.42 741.94 932.42 741.94 935.85 818.86" style="fill:#c4c4c4"/><polygon points="1014.13 741.94 1012.16 741.94 1021.36 818.19 1021.36 818.19 1021.5 818.19 1023.29 818.18 1014.13 741.94" style="fill:#c4c4c4"/><polygon points="1093.03 817.64 1094.98 817.62 1084.9 741.94 1084.9 741.94 1082.9 741.94 1082.9 741.94 1093.03 817.64" style="fill:#c4c4c4"/><polygon points="1181.46 816.95 1183.42 816.93 1170.61 741.94 1170.61 741.94 1168.62 741.94 1168.62 741.94 1181.46 816.95" style="fill:#c4c4c4"/><polygon points="937.78 818.86 935.85 818.93 935.8 908.99 935.82 908.99 937.78 908.99 937.78 908.97 937.78 818.86" style="fill:#afafaf"/><polygon points="1023.29 818.19 1021.36 818.26 1021.32 908.32 1021.32 908.32 1023.29 908.32 1023.29 908.3 1023.29 818.19" style="fill:#afafaf"/><polygon points="1094.98 817.64 1093.04 817.7 1093 907.76 1093 907.76 1094.98 907.76 1094.98 907.75 1094.98 817.64" style="fill:#afafaf"/><polygon points="1183.42 816.95 1181.48 817.02 1181.44 907.07 1181.44 907.07 1183.42 907.07 1183.42 907.06 1183.42 816.95" style="fill:#afafaf"/><polygon points="1333.07 819.4 1315.78 745.01 1315.78 835.23 1333.07 909.62 1333.07 819.4" style="fill:#afafaf"/><polygon points="1475.45 819.4 1407.19 819.4 1407.1 909.62 1475.41 909.62 1475.45 819.4" style="fill:#c4c4c4"/><polygon points="1405.16 819.4 1405.16 819.4 1333.07 819.4 1333.07 909.62 1405.12 909.62 1405.16 819.4" style="fill:#c4c4c4"/><polygon points="1545.95 819.4 1477.48 819.4 1477.39 909.62 1545.91 909.62 1545.95 819.4" style="fill:#c4c4c4"/><polygon points="1760.27 819.4 1760.23 819.4 1760.26 909.62 1869.78 909.62 1869.78 819.4 1760.27 819.4" style="fill:#c4c4c4"/><polygon points="1616.52 819.68 1616.41 819.4 1547.86 819.4 1547.89 909.62 1616.48 909.62 1616.52 819.68" style="fill:#c4c4c4"/><polygon points="1688.34 819.4 1688.3 819.4 1618.47 819.4 1618.98 820.74 1618.42 820.85 1618.45 909.62 1688.3 909.62 1688.34 819.4" style="fill:#c4c4c4"/><polygon points="1758.33 819.4 1758.14 819.4 1690.27 819.4 1690.24 819.4 1690.27 909.62 1758.29 909.62 1758.33 819.4" style="fill:#c4c4c4"/><path d="M1407.19,819.4h68.31L1455,744.15h2l20.46,75.26h138.93l-28.77-76.07h1.09l-207.11,1.28h1.7ZM1522,743.74l25.88,75.66h-1.93l-26-75.65Z" style="fill:#eaeaea"/><polygon points="1405.16 819.4 1381.37 744.6 1315.78 745.01 1333.07 819.4 1405.16 819.4" style="fill:#eaeaea"/><polygon points="1688.3 819.4 1658.78 742.89 1660.88 742.88 1690.27 819.4 1758.14 819.4 1723.13 742.49 1723.16 742.49 1589.52 743.32 1618.47 819.4 1688.3 819.4" style="fill:#eaeaea"/><polygon points="1869.78 819.4 1828.38 741.84 1725.3 742.48 1760.27 819.4 1869.78 819.4" style="fill:#eaeaea"/><polygon points="1405.16 819.4 1407.19 819.4 1383.32 744.59 1381.62 744.6 1381.37 744.6 1381.37 744.6 1405.16 819.4 1405.16 819.4" style="fill:#c4c4c4"/><polygon points="1455.01 744.15 1475.5 819.4 1477.48 819.4 1457.02 744.14 1455.01 744.15" style="fill:#c4c4c4"/><polygon points="1547.86 819.4 1521.98 743.74 1519.89 743.75 1545.93 819.4 1547.86 819.4" style="fill:#c4c4c4"/><polygon points="1616.41 819.4 1616.52 819.68 1616.52 819.4 1618.42 819.4 1618.42 820.85 1618.98 820.74 1618.47 819.4 1589.52 743.32 1589.52 743.32 1588.73 743.32 1587.64 743.33 1616.41 819.4" style="fill:#c4c4c4"/><polygon points="1658.78 742.89 1688.3 819.4 1688.34 819.4 1690.24 819.4 1690.27 819.4 1660.88 742.88 1658.78 742.89" style="fill:#c4c4c4"/><polygon points="1758.14 819.4 1758.33 819.4 1760.23 819.4 1760.27 819.4 1725.3 742.48 1725.28 742.44 1723.16 742.49 1723.13 742.49 1758.14 819.4" style="fill:#c4c4c4"/><polygon points="1407.19 819.4 1407.19 819.4 1405.16 819.4 1405.12 909.62 1407.1 909.62 1407.19 819.4" style="fill:#afafaf"/><polygon points="1477.48 819.4 1477.48 819.4 1475.5 819.4 1475.45 819.4 1475.41 909.62 1477.39 909.62 1477.48 819.4" style="fill:#afafaf"/><polygon points="1547.86 819.4 1545.95 819.4 1545.91 909.62 1547.89 909.62 1547.86 819.4" style="fill:#afafaf"/><polygon points="1618.42 820.85 1618.42 819.4 1616.52 819.4 1616.52 819.68 1616.48 909.62 1618.45 909.62 1618.42 820.85" style="fill:#afafaf"/><polygon points="1690.24 819.4 1688.34 819.4 1688.3 909.62 1690.27 909.62 1690.24 819.4" style="fill:#afafaf"/><polygon points="1760.23 819.4 1758.33 819.4 1758.29 909.62 1760.26 909.62 1760.23 819.4" style="fill:#afafaf"/><polygon points="1160.05 84.12 1149.66 50.73 1149.66 91.22 1160.05 124.6 1160.05 84.12" style="fill:#afafaf"/><polygon points="1245.61 84.12 1204.59 84.12 1204.53 124.6 1245.58 124.6 1245.61 84.12" style="fill:#c4c4c4"/><polygon points="1203.37 84.12 1203.37 84.12 1160.05 84.12 1160.05 124.6 1203.35 124.6 1203.37 84.12" style="fill:#c4c4c4"/><polygon points="1287.97 84.12 1246.83 84.12 1246.77 124.6 1287.95 124.6 1287.97 84.12" style="fill:#c4c4c4"/><polygon points="1416.76 84.12 1416.74 84.12 1416.76 124.6 1482.57 124.6 1482.57 84.12 1416.76 84.12" style="fill:#c4c4c4"/><polygon points="1330.38 84.24 1330.32 84.12 1289.12 84.12 1289.14 124.6 1330.35 124.6 1330.38 84.24" style="fill:#c4c4c4"/><polygon points="1373.54 84.12 1373.51 84.12 1331.55 84.12 1331.86 84.72 1331.52 84.77 1331.54 124.6 1373.51 124.6 1373.54 84.12" style="fill:#c4c4c4"/><polygon points="1415.6 84.12 1415.48 84.12 1374.7 84.12 1374.68 84.12 1374.7 124.6 1415.57 124.6 1415.6 84.12" style="fill:#c4c4c4"/><path d="M1204.59,84.12h41.05l-12.32-33.77h1.21l12.3,33.78h83.49L1313,50h.66l-124.46.57h1Zm69-34,15.55,34H1288l-15.64-33.95Z" style="fill:#eaeaea"/><polygon points="1203.37 84.12 1189.07 50.55 1149.66 50.73 1160.05 84.12 1203.37 84.12" style="fill:#eaeaea"/><polygon points="1373.51 84.12 1355.77 49.78 1357.04 49.78 1374.7 84.12 1415.48 84.12 1394.44 49.61 1394.46 49.61 1314.15 49.98 1331.55 84.12 1373.51 84.12" style="fill:#eaeaea"/><polygon points="1482.57 84.12 1457.69 49.31 1395.75 49.6 1416.76 84.12 1482.57 84.12" style="fill:#eaeaea"/><polygon points="1203.37 84.12 1204.59 84.12 1190.24 50.55 1189.22 50.55 1189.07 50.55 1189.07 50.55 1203.37 84.12 1203.37 84.12" style="fill:#c4c4c4"/><polygon points="1233.32 50.35 1245.64 84.12 1246.83 84.12 1234.53 50.34 1233.32 50.35" style="fill:#c4c4c4"/><polygon points="1289.12 84.12 1273.57 50.16 1272.32 50.17 1287.96 84.12 1289.12 84.12" style="fill:#c4c4c4"/><polygon points="1330.32 84.12 1330.38 84.24 1330.38 84.12 1331.52 84.12 1331.52 84.77 1331.86 84.72 1331.55 84.12 1314.15 49.98 1314.15 49.98 1313.68 49.98 1313.02 49.98 1330.32 84.12" style="fill:#c4c4c4"/><polygon points="1355.77 49.78 1373.51 84.12 1373.54 84.12 1374.68 84.12 1374.7 84.12 1357.04 49.78 1355.77 49.78" style="fill:#c4c4c4"/><polygon points="1415.48 84.12 1415.6 84.12 1416.74 84.12 1416.76 84.12 1395.75 49.6 1395.73 49.58 1394.46 49.61 1394.44 49.61 1415.48 84.12" style="fill:#c4c4c4"/><polygon points="1204.59 84.12 1204.59 84.12 1203.37 84.12 1203.35 124.6 1204.53 124.6 1204.59 84.12" style="fill:#afafaf"/><polygon points="1246.83 84.12 1246.83 84.12 1245.64 84.12 1245.61 84.12 1245.58 124.6 1246.77 124.6 1246.83 84.12" style="fill:#afafaf"/><polygon points="1289.12 84.12 1287.97 84.12 1287.95 124.6 1289.14 124.6 1289.12 84.12" style="fill:#afafaf"/><polygon points="1331.52 84.77 1331.52 84.12 1330.38 84.12 1330.38 84.24 1330.35 124.6 1331.54 124.6 1331.52 84.77" style="fill:#afafaf"/><polygon points="1374.68 84.12 1373.54 84.12 1373.51 124.6 1374.7 124.6 1374.68 84.12" style="fill:#afafaf"/><polygon points="1416.74 84.12 1415.6 84.12 1415.57 124.6 1416.76 124.6 1416.74 84.12" style="fill:#afafaf"/><polygon points="1452.67 84.12 1452.79 84.12 1453.94 84.12 1453.96 84.12 1432.88 49.45 1432.87 49.44 1431.59 49.46 1431.58 49.46 1452.67 84.12" style="fill:#c4c4c4"/><polygon points="1453.96 84.11 1452.82 84.11 1452.79 124.6 1453.98 124.6 1453.96 84.11" style="fill:#afafaf"/><polygon points="1078.48 80.84 1068.09 47.46 1068.09 87.94 1078.48 121.33 1078.48 80.84" style="fill:#afafaf"/><polygon points="1121.8 80.84 1121.8 80.84 1078.48 80.84 1078.48 121.33 1121.77 121.33 1121.8 80.84" style="fill:#c4c4c4"/><polygon points="1121.8 80.84 1107.5 47.28 1068.09 47.46 1078.48 80.84 1121.8 80.84" style="fill:#eaeaea"/><polygon points="1510.68 81.08 1510.67 81.08 1510.68 128.16 1552.96 128.16 1552.96 81.08 1510.68 81.08" style="fill:#c4c4c4"/><polygon points="1552.96 81.08 1531.82 41 1490.85 41 1510.68 81.08 1552.96 81.08" style="fill:#eaeaea"/><polygon points="1510.68 81.08 1490.85 41 1490.85 88.6 1510.68 128.16 1510.68 81.08" style="fill:#afafaf"/><polyline points="810.31 84.16 810.31 89.85 810.31 104 810.31 124.6" style="fill:none;stroke:#acaaaa;stroke-linecap:round;stroke-linejoin:round;stroke-width:0px"/><polygon points="1040.22 82.75 1040.04 82.75 1040.05 82.79 899.74 83.63 899.66 83.63 899.66 83.63 850.51 83.92 850.51 83.92 849.38 83.93 849.38 83.93 810.31 84.16 810.31 89.85 810.31 124.6 849.36 124.37 849.35 124.37 849.37 83.96 850.51 83.93 850.51 124.36 899.64 124.07 899.66 83.66 900.8 83.63 900.8 124.06 941.79 123.82 941.82 83.41 942.95 83.38 942.95 123.81 993.8 123.51 993.83 83.1 994.96 83.07 994.96 123.5 1040.22 123.23 1040.22 82.75" style="fill:#c4c4c4"/><polygon points="850.51 83.92 899.66 83.63 894.25 49.41 895.41 49.41 900.8 83.62 899.74 83.63 1040.05 82.79 1040.04 82.75 1030.86 49.41 987.43 49.41 994.96 83.06 993.81 83.07 986.26 49.41 937.03 49.41 942.95 83.37 941.81 83.38 935.85 49.41 848.51 49.41 850.51 83.92" style="fill:#eaeaea"/><polygon points="847.36 49.41 810.13 49.41 810.13 84.16 810.31 84.16 810.31 84.16 849.38 83.93 847.36 49.41" style="fill:#eaeaea"/><polygon points="849.38 83.93 849.38 83.93 850.51 83.92 850.51 83.92 848.51 49.41 848.51 49.41 847.36 49.41 847.36 49.41 849.38 83.93" style="fill:#c4c4c4"/><polygon points="895.41 49.41 894.25 49.41 899.66 83.63 899.66 83.63 899.74 83.63 900.8 83.62 895.41 49.41" style="fill:#c4c4c4"/><polygon points="941.81 83.38 942.95 83.37 937.03 49.41 937.03 49.41 935.85 49.41 935.85 49.41 941.81 83.38" style="fill:#c4c4c4"/><polygon points="993.81 83.07 994.96 83.06 987.43 49.41 987.43 49.41 986.26 49.41 986.26 49.41 993.81 83.07" style="fill:#c4c4c4"/><polygon points="850.51 83.93 849.37 83.96 849.35 124.37 849.36 124.37 850.51 124.37 850.51 124.36 850.51 83.93" style="fill:#afafaf"/><polygon points="900.8 83.63 899.66 83.66 899.64 124.07 899.64 124.07 900.8 124.07 900.8 124.06 900.8 83.63" style="fill:#afafaf"/><polygon points="942.95 83.38 941.82 83.41 941.79 123.82 941.79 123.82 942.95 123.82 942.95 123.81 942.95 83.38" style="fill:#afafaf"/><polygon points="994.96 83.07 993.83 83.1 993.8 123.51 993.8 123.51 994.96 123.51 994.96 123.5 994.96 83.07" style="fill:#afafaf"/><polygon points="1030.77 49.46 1020.53 14.1 979.29 14.1 986.9 49.47 1030.77 49.46" style="fill:#eaeaea"/><polygon points="986.93 47.62 979.29 14.1 976.4 49.47 987.33 49.47 986.93 47.62" style="fill:#afafaf"/><polyline points="808.77 35.23 808.92 69.66 808.93 70.33 810.13 70.12 809.79 35.41 809.79 35.05" style="fill:#c4c4c4"/><polygon points="810.07 70.05 810.07 70.05 808.85 70.05 808.83 110.55 810.02 110.55 810.07 70.05" style="fill:#afafaf"/></svg>