<?xml version="1.0" encoding="utf-8"?>
<!-- Generator: Adobe Illustrator 19.0.0, SVG Export Plug-In . SVG Version: 6.00 Build 0)  -->
<svg version="1.1" xmlns="http://www.w3.org/2000/svg" xmlns:xlink="http://www.w3.org/1999/xlink" x="0px" y="0px"
	 viewBox="0 0 1200 947.8" style="enable-background:new 0 0 1200 947.8;" xml:space="preserve">
<style type="text/css">
	.st0{fill:#AFAFAF;}
	.st1{fill:#C4C4C4;}
	.st2{fill:#EAEAEA;}
	.st3{fill:#9E9E9E;}
	.st4{fill:none;}
	.st5{fill:url(#SVGID_1_);}
	.st6{fill:url(#SVGID_2_);}
	.st7{fill:url(#SVGID_3_);}
	.st8{fill:url(#SVGID_4_);}
	.st9{fill:url(#SVGID_5_);}
	.st10{fill:url(#SVGID_6_);}
	.st11{fill:url(#SVGID_7_);}
	.st12{fill:url(#SVGID_8_);}
	.st13{fill:url(#SVGID_9_);}
	.st14{fill:url(#SVGID_10_);}
	.st15{fill:url(#SVGID_11_);}
	.st16{fill:url(#SVGID_12_);}
	.st17{fill:url(#SVGID_13_);}
	.st18{fill:url(#SVGID_14_);}
	.st19{fill:url(#SVGID_15_);}
	.st20{fill:url(#SVGID_16_);}
	.st21{fill:url(#SVGID_17_);}
	.st22{fill:url(#SVGID_18_);}
	.st23{fill:url(#SVGID_19_);}
	.st24{fill:url(#SVGID_20_);}
	.st25{fill:url(#SVGID_21_);}
	.st26{fill:url(#SVGID_22_);}
	.st27{fill:url(#SVGID_23_);}
	.st28{fill:url(#SVGID_24_);}
	.st29{fill:url(#SVGID_25_);}
	.st30{fill:url(#SVGID_26_);}
	.st31{fill:url(#SVGID_27_);}
	.st32{fill:url(#SVGID_28_);}
	.st33{fill:url(#SVGID_29_);}
	.st34{fill:url(#SVGID_30_);}
	.st35{fill:url(#SVGID_31_);}
	.st36{fill:url(#SVGID_32_);}
	.st37{fill:url(#SVGID_33_);}
	.st38{fill:url(#SVGID_34_);}
	.st39{fill:url(#SVGID_35_);}
	.st40{fill:url(#SVGID_36_);}
	.st41{fill:url(#SVGID_37_);}
	.st42{fill:url(#SVGID_38_);}
	.st43{fill:url(#SVGID_39_);}
	.st44{fill:url(#SVGID_40_);}
	.st45{fill:url(#SVGID_41_);}
	.st46{fill:url(#SVGID_42_);}
	.st47{fill:url(#SVGID_43_);}
	.st48{fill:url(#SVGID_44_);}
	.st49{fill:url(#SVGID_45_);}
	.st50{fill:url(#SVGID_46_);}
	.st51{fill:url(#SVGID_47_);}
</style>
<g id="Слой_9">
	<g id="Слой_1">
	</g>
	<g id="Слой_3">
	</g>
	<g id="Слой_5">
	</g>
	<g id="Слой_7">
	</g>
	<g id="Слой_8">
	</g>
	<g id="Слой_10">
	</g>
</g>
<g id="Слой_2">
	<g>
		<rect x="655.1" y="78.5" class="st0" width="0" height="7"/>
		<polygon class="st1" points="655.1,78.5 655.1,85.5 655.5,83 895.6,81.9 895.6,78.5 		"/>
		<polygon class="st2" points="895.6,78.5 895.6,78.5 890.4,18.5 661.5,18.5 655.1,78.5 655.1,78.5 		"/>
		<polygon class="st3" points="896,20.5 896,20.5 895.7,81.9 901.1,81.9 		"/>
		<polygon class="st2" points="1016.7,131.9 995.7,18.5 895.9,18.5 896,20.5 901.1,81.9 895.7,81.9 895.6,81.9 655.5,83 655.1,85.5 
			655.1,85.5 648.3,131.9 		"/>
		<polygon class="st1" points="1016.7,131.9 648.3,131.9 648.3,228.6 1016.7,228.6 1016.7,228.6 1016.7,131.9 		"/>
	</g>
	<g>
		<rect x="530.8" y="69" class="st4" width="0" height="46.3"/>
		
			<rect x="339.7" y="56.5" transform="matrix(9.053671e-002 0.9959 -0.9959 9.053671e-002 371.0282 -293.1922)" class="st4" width="12.8" height="0"/>
		
			<rect x="509.3" y="141" transform="matrix(-9.053621e-002 -0.9959 0.9959 -9.053621e-002 443.2935 686.8903)" class="st1" width="51.9" height="0"/>
		
			<rect x="517.4" y="141" transform="matrix(-0.2378 0.9713 -0.9713 -0.2378 810.311 -353.7809)" class="st1" width="53.2" height="0"/>
		<polygon class="st2" points="282.7,50.2 328.4,50.2 328.4,50.2 321.2,69.1 337.6,69.1 345.5,50.2 345.5,50.2 345.5,50.2 
			423.4,50.2 417.2,68.4 417.2,69.1 528.7,69.1 528.7,69.1 541.4,17.4 255.9,17.4 229.3,69.1 273.3,69.1 		"/>
		<polygon class="st2" points="541.4,17.4 541.4,17.4 541.4,17.4 		"/>
		<polygon class="st1" points="272.1,87.1 274.5,81.6 273.3,69.1 229.3,69.1 229.8,74.1 270.9,74.1 		"/>
		<polygon class="st3" points="282.7,50.2 273.3,69.1 274.5,81.6 283.6,60.3 		"/>
		<polygon class="st1" points="321.2,69.1 321.2,69.1 328.4,50.2 328.4,50.2 282.7,50.2 283.6,60.3 286,54.6 319.8,54.6 319.8,54.6 
			319.8,54.6 321.6,74.1 321.6,74.1 321.2,69.1 		"/>
		<polygon class="st1" points="349.9,54.6 415.9,54.6 403.9,89.1 403.9,89.1 415.9,54.6 417.2,68.4 423.4,50.2 345.5,50.2 
			346.6,62.9 		"/>
		<polygon class="st3" points="346.6,62.9 345.5,50.2 345.5,50.2 337.6,69.1 338.8,82.5 		"/>
		<polygon class="st3" points="416.9,69.1 417.2,69.1 417.2,68.4 415.9,54.6 403.9,89.1 403.9,89.1 404.4,93.7 410.1,93.7 
			416.2,74.1 417.4,74.1 416.9,69.1 		"/>
		<polygon class="st1" points="528.7,69.1 417.2,69.1 416.9,69.1 416.9,69.1 417.4,74.1 528.7,74.1 537.2,166.9 537.6,166.9 
			532.9,115.2 		"/>
		<polygon class="st0" points="532.9,115.2 537.6,166.9 550.3,115.2 541.4,17.4 541.4,17.4 528.7,69.1 		"/>
		<polygon class="st1" points="336.8,87.7 338.8,82.5 337.6,69.1 321.2,69.1 321.2,69.1 321.2,69.1 321.6,74.1 335.5,74.1 		"/>
		<polygon class="st2" points="307.1,89.1 319.8,54.6 286,54.6 283.6,60.3 274.5,81.6 272.1,87.1 272.3,89.1 		"/>
		<polygon class="st2" points="319.8,54.6 319.8,54.6 319.8,54.6 		"/>
		<polygon class="st3" points="272.3,89.1 272.1,87.1 270.9,74.1 262.7,92.4 271.6,92.6 271.3,89.1 		"/>
		<polygon class="st3" points="336.2,89.1 336.8,87.7 335.5,74.1 329.3,93.5 336.6,93.5 336.2,89.1 		"/>
		<polygon class="st2" points="415.9,54.6 349.9,54.6 346.6,62.9 346.6,62.9 338.8,82.5 336.8,87.7 336.2,89.1 336.2,89.1 
			403.9,89.1 		"/>
		<polygon class="st1" points="272.3,89.1 271.3,89.1 271.6,92.6 307.5,93.5 307.1,89.1 		"/>
		<polygon class="st1" points="403.9,89.1 403.9,89.1 336.2,89.1 336.6,93.5 404.4,93.7 403.9,89.1 		"/>
		<polygon class="st3" points="319.8,54.6 307.1,89.1 307.5,93.5 310.5,93.5 318.8,74.1 321.6,74.1 319.8,54.6 		"/>
		<polygon class="st2" points="199.8,130.8 516.1,130.8 528.7,74.1 417.4,74.1 416.2,74.1 410.1,93.7 404.4,93.7 336.6,93.5 
			329.3,93.5 335.5,74.1 321.6,74.1 321.6,74.1 318.8,74.1 310.5,93.5 307.5,93.5 271.6,92.6 262.7,92.4 270.9,74.1 229.8,74.1 
			228.2,74.1 		"/>
		<polygon class="st1" points="516.1,130.8 199.8,130.8 208.7,228.6 525,228.6 		"/>
		<polygon class="st0" points="528.7,74.1 516.1,130.8 525,228.6 537.6,171.9 537.2,166.9 		"/>
	</g>
	<g>
		<polygon class="st4" points="189.5,278.5 189.5,257.1 459.2,257.1 459.2,257.1 189.5,257.1 189.5,278.5 		"/>
		<rect x="428.1" y="348.1" class="st4" width="0" height="8.4"/>
		<polygon class="st1" points="189.5,278.5 195.4,265.2 449.6,265.2 449.6,265.2 449.6,296.1 459.2,257.1 189.5,257.1 		"/>
		<rect x="429.1" y="348.2" class="st1" width="0" height="0"/>
		<rect x="407.6" y="354" class="st1" width="0" height="162.5"/>
		<rect x="23.6" y="644.6" class="st1" width="394.1" height="0"/>
		<polygon class="st1" points="470,327.5 470,327.5 417.7,553.4 417.7,553.4 417.7,644.6 417.7,644.5 417.7,553.4 		"/>
		<polygon class="st1" points="429.1,348.2 429.1,348.2 429.1,348.2 		"/>
		<polygon class="st3" points="429.1,348.2 429.1,348.2 429.1,348.2 427,356.4 388.1,514.2 388.1,514.2 388.1,521.6 394,521.6 
			449.6,296.1 449.6,265.2 		"/>
		<polygon class="st3" points="84.3,521.6 84.3,514.2 84.3,514.2 189.5,278.5 189.5,257.1 71.7,521.6 		"/>
		<polygon class="st2" points="388.1,514.2 427,356.4 429.1,348.2 429.1,348.2 429.1,348.2 449.6,265.2 449.6,265.2 195.4,265.2 
			189.5,278.5 189.5,278.5 84.3,514.2 84.3,514.2 		"/>
		<polygon class="st1" points="388.1,514.2 388.1,514.2 84.3,514.2 84.3,521.6 388.1,521.6 388.1,514.2 		"/>
		<path class="st2" d="M417.7,553.4l52.3-226l21.1-91.1H174.7L23.6,553.4H417.7z M189.5,257.1h269.7l0,0l-9.6,39.1L394,521.6h-5.9
			H84.3H71.7L189.5,257.1z"/>
		<polygon class="st1" points="417.7,553.4 23.6,553.4 23.6,553.4 23.6,644.6 23.6,644.6 417.7,644.6 417.7,644.6 417.7,644.6 
			417.7,553.4 		"/>
		<polygon class="st0" points="470,327.5 417.7,553.4 417.7,644.5 417.7,644.6 491,327.5 491,236.3 		"/>
	</g>
	<g>
		<path class="st1" d="M933.3,932.2c-1.2,0.2-2.5,0.4-3.7,0.6C930.8,932.6,932,932.4,933.3,932.2z"/>
		<path class="st1" d="M929.3,932.8c-1.3,0.2-2.5,0.3-3.8,0.4C926.8,933.1,928.1,933,929.3,932.8z"/>
		<path class="st1" d="M937.3,931.4c-1.3,0.3-2.5,0.5-3.8,0.8C934.7,931.9,936,931.7,937.3,931.4z"/>
		<path class="st1" d="M677.1,780.9l-19.9-26.4v0l0,0C656.2,767,664.7,778.3,677.1,780.9l121.8,25.6l1.8,4.3l-1.6-4.3L677.1,780.9z"
			/>
		<path class="st1" d="M966.8,919.8c-1,0.6-1.9,1.1-2.9,1.7C964.8,920.9,965.8,920.4,966.8,919.8z"/>
		<path class="st1" d="M959.9,923.5c-7.2,3.5-14.8,6.2-22.6,7.9C945.1,929.7,952.7,927.1,959.9,923.5z"/>
		<path class="st1" d="M963.4,921.8c-1.1,0.6-2.2,1.2-3.3,1.7C961.2,922.9,962.3,922.3,963.4,921.8z"/>
		<path class="st1" d="M970.1,917.7c-0.9,0.6-1.8,1.1-2.7,1.7C968.3,918.9,969.2,918.3,970.1,917.7z"/>
		<path class="st1" d="M1007.8,868.5c-0.3,0.9-0.6,1.9-1,2.8C1007.2,870.4,1007.5,869.4,1007.8,868.5z"/>
		<path class="st1" d="M1146.5,601.2l0,0.1c2.6-7.6,4-15.4,4.2-23.2l0,0C1150.5,585.9,1149.1,593.7,1146.5,601.2z"/>
		<path class="st1" d="M1143.1,781.6L1143.1,781.6c10.3-2.6,17-12.7,15.3-23.2v0C1160.1,768.9,1153.5,779,1143.1,781.6z"/>
		<path class="st1" d="M1150.7,575.6l0,1.4c0-0.9,0-1.8,0-2.6l0,0.5C1150.7,575.1,1150.7,575.4,1150.7,575.6z"/>
		<path class="st1" d="M1000.8,884.6c-0.4,0.8-0.9,1.6-1.3,2.4C999.9,886.2,1000.3,885.4,1000.8,884.6z"/>
		<path class="st1" d="M1009.3,863.8c-0.3,1.1-0.6,2.2-1,3.2C1008.6,866,1008.9,864.9,1009.3,863.8z"/>
		<path class="st1" d="M1004.6,876.9c-0.4,0.8-0.7,1.7-1.1,2.5C1003.8,878.6,1004.2,877.7,1004.6,876.9z"/>
		<path class="st1" d="M973.4,915.5c-0.8,0.6-1.7,1.2-2.6,1.8C971.7,916.7,972.5,916.1,973.4,915.5z"/>
		<path class="st1" d="M1006.2,872.8c-0.3,0.9-0.7,1.7-1,2.6C1005.6,874.5,1005.9,873.7,1006.2,872.8z"/>
		<path class="st1" d="M1002.7,880.8c-0.4,0.8-0.8,1.6-1.2,2.4C1001.9,882.4,1002.3,881.6,1002.7,880.8z"/>
		<path class="st1" d="M983.3,907.3c2.9-2.8,5.7-5.8,8.3-9C989,901.5,986.2,904.5,983.3,907.3z"/>
		<path class="st1" d="M979.8,910.5c-0.8,0.7-1.6,1.4-2.5,2.1C978.1,911.9,978.9,911.2,979.8,910.5z"/>
		<path class="st1" d="M976.6,913.1c-0.8,0.6-1.6,1.3-2.5,1.9C974.9,914.4,975.8,913.7,976.6,913.1z"/>
		<path class="st1" d="M998.7,888.2c-0.5,0.8-1,1.6-1.5,2.4C997.7,889.8,998.2,889,998.7,888.2z"/>
		<path class="st1" d="M916.1,933.7c-0.9,0-1.7,0-2.6,0c4,0.1,8-0.1,11.9-0.5C922.3,933.6,919.2,933.7,916.1,933.7z"/>
		<path class="st1" d="M1010.7,858.2c-0.3,1.5-0.7,3-1.1,4.5C1010,861.2,1010.4,859.7,1010.7,858.2l6.4-28.1l0,0.1L1010.7,858.2z"/>
		<path class="st1" d="M996.4,891.7c-0.6,0.8-1.1,1.7-1.7,2.5C995.3,893.4,995.9,892.6,996.4,891.7z"/>
		<path class="st1" d="M994.1,895.1c-0.7,0.9-1.4,1.9-2.1,2.8C992.7,897,993.4,896,994.1,895.1z"/>
		<path class="st1" d="M982.9,907.6c-0.9,0.8-1.7,1.6-2.6,2.4C981.2,909.2,982.1,908.4,982.9,907.6z"/>
		<path class="st0" d="M1134.1,527.3c10.7,13.7,16.4,30.5,16.6,47.6l0-0.5l0-95.6l0,0c0.1,16.7-5.1,33.5-16.2,48L1134.1,527.3z"/>
		<path class="st0" d="M1150.7,578.1L1150.7,578.1L1150.7,578.1l0-1.1l0-1.4C1150.7,576.4,1150.7,577.3,1150.7,578.1z"/>
		<path class="st0" d="M1150.7,575.6c0-0.3,0-0.5,0-0.8c-0.2-17.1-5.9-33.9-16.6-47.6l-1.9,2.4l14.2,71.5c2.6-7.5,4-15.3,4.2-23.1
			C1150.7,577.3,1150.7,576.4,1150.7,575.6z"/>
		<polygon class="st1" points="1158.9,757.6 1158.4,758.4 1158.4,758.4 1158.4,758.4 1158.9,757.6 1158.6,667.2 1158.6,667.2 		"/>
		<path class="st1" d="M657.2,754.5l19.9,26.4l122,25.6l1.6,4.3l21.4,58.5c15.8,43.1,53.6,64.2,91.4,64.5c0.9,0,1.7,0,2.6,0
			c-0.9,0-1.7,0-2.6,0c-0.3,0-0.6,0-1,0v-96.6l0,0c-35.4-1.1-70.3-20.7-86.5-60.5l-27.2-66.8L677,684.2
			c-11.1-2.3-19.1-11.8-19.8-22.8V754.5L657.2,754.5z"/>
		<polygon class="st1" points="1143.1,781.6 1143,781.8 1022.7,807.5 1017.1,830.1 1017.1,830.1 1017.1,830.1 1022.7,807.5 
			1143,781.8 1143.1,781.6 1143.1,781.6 		"/>
		<path class="st1" d="M1022.3,710.9l-11.5,50.7c-11.6,50.8-55.2,76.8-98.2,75.5l0,0v96.6l195.2-241.2L1022.3,710.9z"/>
		
			<linearGradient id="SVGID_1_" gradientUnits="userSpaceOnUse" x1="-5.6333" y1="-111.1182" x2="-4.5219" y2="-111.1182" gradientTransform="matrix(221.7314 0 0 -221.7314 2161.6021 -23825.2891)">
			<stop  offset="0" style="stop-color:#C4C4C4"/>
			<stop  offset="0.9961" style="stop-color:#AFAFAF"/>
			<stop  offset="1" style="stop-color:#AFAFAF"/>
		</linearGradient>
		<path class="st5" d="M1022.3,710.9l-11.5,50.7c-11.6,50.8-55.2,76.8-98.2,75.5l0,0v96.6l195.2-241.2L1022.3,710.9z"/>
		
			<linearGradient id="SVGID_2_" gradientUnits="userSpaceOnUse" x1="-5.6333" y1="-111.4253" x2="-4.5219" y2="-111.4253" gradientTransform="matrix(221.7314 0 0 -221.7314 2161.6021 -23822.5801)">
			<stop  offset="0" style="stop-color:#C4C4C4"/>
			<stop  offset="0.9961" style="stop-color:#AFAFAF"/>
			<stop  offset="1" style="stop-color:#AFAFAF"/>
		</linearGradient>
		<path class="st6" d="M1001.5,883.2c-0.2,0.5-0.5,0.9-0.7,1.4C1001,884.1,1001.3,883.7,1001.5,883.2z"/>
		
			<linearGradient id="SVGID_3_" gradientUnits="userSpaceOnUse" x1="-5.6333" y1="-111.4375" x2="-4.5219" y2="-111.4375" gradientTransform="matrix(221.7314 0 0 -221.7314 2161.6021 -23825.2891)">
			<stop  offset="0" style="stop-color:#C4C4C4"/>
			<stop  offset="0.9961" style="stop-color:#AFAFAF"/>
			<stop  offset="1" style="stop-color:#AFAFAF"/>
		</linearGradient>
		<path class="st7" d="M1001.5,883.2c-0.2,0.5-0.5,0.9-0.7,1.4C1001,884.1,1001.3,883.7,1001.5,883.2z"/>
		
			<linearGradient id="SVGID_4_" gradientUnits="userSpaceOnUse" x1="-5.6333" y1="-111.3525" x2="-4.5219" y2="-111.3525" gradientTransform="matrix(221.7314 0 0 -221.7314 2161.6021 -23822.5801)">
			<stop  offset="0" style="stop-color:#C4C4C4"/>
			<stop  offset="0.9961" style="stop-color:#AFAFAF"/>
			<stop  offset="1" style="stop-color:#AFAFAF"/>
		</linearGradient>
		<path class="st8" d="M1008.3,867.1c-0.2,0.5-0.3,0.9-0.5,1.4C1008,868,1008.1,867.5,1008.3,867.1z"/>
		
			<linearGradient id="SVGID_5_" gradientUnits="userSpaceOnUse" x1="-5.6333" y1="-111.3648" x2="-4.5219" y2="-111.3648" gradientTransform="matrix(221.7314 0 0 -221.7314 2161.6021 -23825.2891)">
			<stop  offset="0" style="stop-color:#C4C4C4"/>
			<stop  offset="0.9961" style="stop-color:#AFAFAF"/>
			<stop  offset="1" style="stop-color:#AFAFAF"/>
		</linearGradient>
		<path class="st9" d="M1008.3,867.1c-0.2,0.5-0.3,0.9-0.5,1.4C1008,868,1008.1,867.5,1008.3,867.1z"/>
		
			<linearGradient id="SVGID_6_" gradientUnits="userSpaceOnUse" x1="-5.6333" y1="-111.3903" x2="-4.5219" y2="-111.3903" gradientTransform="matrix(221.7314 0 0 -221.7314 2161.6021 -23822.5801)">
			<stop  offset="0" style="stop-color:#C4C4C4"/>
			<stop  offset="0.9961" style="stop-color:#AFAFAF"/>
			<stop  offset="1" style="stop-color:#AFAFAF"/>
		</linearGradient>
		<path class="st10" d="M1005.2,875.4c-0.2,0.5-0.4,1-0.6,1.5C1004.8,876.4,1005,875.9,1005.2,875.4z"/>
		
			<linearGradient id="SVGID_7_" gradientUnits="userSpaceOnUse" x1="-5.6333" y1="-111.4025" x2="-4.5219" y2="-111.4025" gradientTransform="matrix(221.7314 0 0 -221.7314 2161.6021 -23825.2891)">
			<stop  offset="0" style="stop-color:#C4C4C4"/>
			<stop  offset="0.9961" style="stop-color:#AFAFAF"/>
			<stop  offset="1" style="stop-color:#AFAFAF"/>
		</linearGradient>
		<path class="st11" d="M1005.2,875.4c-0.2,0.5-0.4,1-0.6,1.5C1004.8,876.4,1005,875.9,1005.2,875.4z"/>
		
			<linearGradient id="SVGID_8_" gradientUnits="userSpaceOnUse" x1="-5.6333" y1="-111.6458" x2="-4.5219" y2="-111.6458" gradientTransform="matrix(221.7314 0 0 -221.7314 2161.6021 -23822.5801)">
			<stop  offset="0" style="stop-color:#C4C4C4"/>
			<stop  offset="0.9961" style="stop-color:#AFAFAF"/>
			<stop  offset="1" style="stop-color:#AFAFAF"/>
		</linearGradient>
		<path class="st12" d="M929.5,932.8c-0.1,0-0.1,0-0.2,0C929.4,932.8,929.5,932.8,929.5,932.8z"/>
		
			<linearGradient id="SVGID_9_" gradientUnits="userSpaceOnUse" x1="-5.6333" y1="-111.658" x2="-4.5219" y2="-111.658" gradientTransform="matrix(221.7314 0 0 -221.7314 2161.6021 -23825.2891)">
			<stop  offset="0" style="stop-color:#C4C4C4"/>
			<stop  offset="0.9961" style="stop-color:#AFAFAF"/>
			<stop  offset="1" style="stop-color:#AFAFAF"/>
		</linearGradient>
		<path class="st13" d="M929.5,932.8c-0.1,0-0.1,0-0.2,0C929.4,932.8,929.5,932.8,929.5,932.8z"/>
		
			<linearGradient id="SVGID_10_" gradientUnits="userSpaceOnUse" x1="-5.6333" y1="-111.3718" x2="-4.5219" y2="-111.3718" gradientTransform="matrix(221.7314 0 0 -221.7314 2161.6021 -23822.5801)">
			<stop  offset="0" style="stop-color:#C4C4C4"/>
			<stop  offset="0.9961" style="stop-color:#AFAFAF"/>
			<stop  offset="1" style="stop-color:#AFAFAF"/>
		</linearGradient>
		<path class="st14" d="M1006.8,871.3c-0.2,0.5-0.4,1-0.6,1.5C1006.4,872.3,1006.6,871.8,1006.8,871.3z"/>
		
			<linearGradient id="SVGID_11_" gradientUnits="userSpaceOnUse" x1="-5.6333" y1="-111.384" x2="-4.5219" y2="-111.384" gradientTransform="matrix(221.7314 0 0 -221.7314 2161.6021 -23825.2891)">
			<stop  offset="0" style="stop-color:#C4C4C4"/>
			<stop  offset="0.9961" style="stop-color:#AFAFAF"/>
			<stop  offset="1" style="stop-color:#AFAFAF"/>
		</linearGradient>
		<path class="st15" d="M1006.8,871.3c-0.2,0.5-0.4,1-0.6,1.5C1006.4,872.3,1006.6,871.8,1006.8,871.3z"/>
		
			<linearGradient id="SVGID_12_" gradientUnits="userSpaceOnUse" x1="-5.6333" y1="-111.4081" x2="-4.5219" y2="-111.4081" gradientTransform="matrix(221.7314 0 0 -221.7314 2161.6021 -23822.5801)">
			<stop  offset="0" style="stop-color:#C4C4C4"/>
			<stop  offset="0.9961" style="stop-color:#AFAFAF"/>
			<stop  offset="1" style="stop-color:#AFAFAF"/>
		</linearGradient>
		<path class="st16" d="M1003.4,879.4c-0.2,0.5-0.5,1-0.7,1.5C1003,880.3,1003.2,879.9,1003.4,879.4z"/>
		
			<linearGradient id="SVGID_13_" gradientUnits="userSpaceOnUse" x1="-5.6333" y1="-111.4203" x2="-4.5219" y2="-111.4203" gradientTransform="matrix(221.7314 0 0 -221.7314 2161.6021 -23825.2891)">
			<stop  offset="0" style="stop-color:#C4C4C4"/>
			<stop  offset="0.9961" style="stop-color:#AFAFAF"/>
			<stop  offset="1" style="stop-color:#AFAFAF"/>
		</linearGradient>
		<path class="st17" d="M1003.4,879.4c-0.2,0.5-0.5,1-0.7,1.5C1003,880.3,1003.2,879.9,1003.4,879.4z"/>
		
			<linearGradient id="SVGID_14_" gradientUnits="userSpaceOnUse" x1="-5.6333" y1="-111.3322" x2="-4.5219" y2="-111.3322" gradientTransform="matrix(221.7314 0 0 -221.7314 2161.6021 -23822.5801)">
			<stop  offset="0" style="stop-color:#C4C4C4"/>
			<stop  offset="0.9961" style="stop-color:#AFAFAF"/>
			<stop  offset="1" style="stop-color:#AFAFAF"/>
		</linearGradient>
		<path class="st18" d="M1009.6,862.7c-0.1,0.4-0.2,0.7-0.3,1.1C1009.4,863.5,1009.5,863.1,1009.6,862.7z"/>
		
			<linearGradient id="SVGID_15_" gradientUnits="userSpaceOnUse" x1="-5.6333" y1="-111.3444" x2="-4.5219" y2="-111.3444" gradientTransform="matrix(221.7314 0 0 -221.7314 2161.6021 -23825.2891)">
			<stop  offset="0" style="stop-color:#C4C4C4"/>
			<stop  offset="0.9961" style="stop-color:#AFAFAF"/>
			<stop  offset="1" style="stop-color:#AFAFAF"/>
		</linearGradient>
		<path class="st19" d="M1009.6,862.7c-0.1,0.4-0.2,0.7-0.3,1.1C1009.4,863.5,1009.5,863.1,1009.6,862.7z"/>
		
			<linearGradient id="SVGID_16_" gradientUnits="userSpaceOnUse" x1="-5.6333" y1="-111.5863" x2="-4.5219" y2="-111.5863" gradientTransform="matrix(221.7314 0 0 -221.7314 2161.6021 -23822.5801)">
			<stop  offset="0" style="stop-color:#C4C4C4"/>
			<stop  offset="0.9961" style="stop-color:#AFAFAF"/>
			<stop  offset="1" style="stop-color:#AFAFAF"/>
		</linearGradient>
		<path class="st20" d="M967.4,919.4c-0.2,0.1-0.4,0.3-0.6,0.4C967,919.7,967.2,919.6,967.4,919.4z"/>
		
			<linearGradient id="SVGID_17_" gradientUnits="userSpaceOnUse" x1="-5.6333" y1="-111.5986" x2="-4.5219" y2="-111.5986" gradientTransform="matrix(221.7314 0 0 -221.7314 2161.6021 -23825.2891)">
			<stop  offset="0" style="stop-color:#C4C4C4"/>
			<stop  offset="0.9961" style="stop-color:#AFAFAF"/>
			<stop  offset="1" style="stop-color:#AFAFAF"/>
		</linearGradient>
		<path class="st21" d="M967.4,919.4c-0.2,0.1-0.4,0.3-0.6,0.4C967,919.7,967.2,919.6,967.4,919.4z"/>
		
			<linearGradient id="SVGID_18_" gradientUnits="userSpaceOnUse" x1="-5.6333" y1="-111.5768" x2="-4.5219" y2="-111.5768" gradientTransform="matrix(221.7314 0 0 -221.7314 2161.6021 -23822.5801)">
			<stop  offset="0" style="stop-color:#C4C4C4"/>
			<stop  offset="0.9961" style="stop-color:#AFAFAF"/>
			<stop  offset="1" style="stop-color:#AFAFAF"/>
		</linearGradient>
		<path class="st22" d="M970.8,917.3c-0.2,0.2-0.5,0.3-0.7,0.5C970.3,917.6,970.6,917.4,970.8,917.3z"/>
		
			<linearGradient id="SVGID_19_" gradientUnits="userSpaceOnUse" x1="-5.6333" y1="-111.589" x2="-4.5219" y2="-111.589" gradientTransform="matrix(221.7314 0 0 -221.7314 2161.6021 -23825.2891)">
			<stop  offset="0" style="stop-color:#C4C4C4"/>
			<stop  offset="0.9961" style="stop-color:#AFAFAF"/>
			<stop  offset="1" style="stop-color:#AFAFAF"/>
		</linearGradient>
		<path class="st23" d="M970.8,917.3c-0.2,0.2-0.5,0.3-0.7,0.5C970.3,917.6,970.6,917.4,970.8,917.3z"/>
		
			<linearGradient id="SVGID_20_" gradientUnits="userSpaceOnUse" x1="-5.6333" y1="-111.5666" x2="-4.5219" y2="-111.5666" gradientTransform="matrix(221.7314 0 0 -221.7314 2161.6021 -23822.5801)">
			<stop  offset="0" style="stop-color:#C4C4C4"/>
			<stop  offset="0.9961" style="stop-color:#AFAFAF"/>
			<stop  offset="1" style="stop-color:#AFAFAF"/>
		</linearGradient>
		<path class="st24" d="M974.1,915c-0.2,0.2-0.5,0.3-0.7,0.5C973.6,915.3,973.9,915.2,974.1,915z"/>
		
			<linearGradient id="SVGID_21_" gradientUnits="userSpaceOnUse" x1="-5.6333" y1="-111.5788" x2="-4.5219" y2="-111.5788" gradientTransform="matrix(221.7314 0 0 -221.7314 2161.6021 -23825.2891)">
			<stop  offset="0" style="stop-color:#C4C4C4"/>
			<stop  offset="0.9961" style="stop-color:#AFAFAF"/>
			<stop  offset="1" style="stop-color:#AFAFAF"/>
		</linearGradient>
		<path class="st25" d="M974.1,915c-0.2,0.2-0.5,0.3-0.7,0.5C973.6,915.3,973.9,915.2,974.1,915z"/>
		
			<linearGradient id="SVGID_22_" gradientUnits="userSpaceOnUse" x1="-5.6333" y1="-111.5441" x2="-4.5219" y2="-111.5441" gradientTransform="matrix(221.7314 0 0 -221.7314 2161.6021 -23822.5801)">
			<stop  offset="0" style="stop-color:#C4C4C4"/>
			<stop  offset="0.9961" style="stop-color:#AFAFAF"/>
			<stop  offset="1" style="stop-color:#AFAFAF"/>
		</linearGradient>
		<path class="st26" d="M980.3,910c-0.2,0.2-0.4,0.3-0.6,0.5C979.9,910.3,980.1,910.2,980.3,910z"/>
		
			<linearGradient id="SVGID_23_" gradientUnits="userSpaceOnUse" x1="-5.6333" y1="-111.5563" x2="-4.5219" y2="-111.5563" gradientTransform="matrix(221.7314 0 0 -221.7314 2161.6021 -23825.2891)">
			<stop  offset="0" style="stop-color:#C4C4C4"/>
			<stop  offset="0.9961" style="stop-color:#AFAFAF"/>
			<stop  offset="1" style="stop-color:#AFAFAF"/>
		</linearGradient>
		<path class="st27" d="M980.3,910c-0.2,0.2-0.4,0.3-0.6,0.5C979.9,910.3,980.1,910.2,980.3,910z"/>
		
			<linearGradient id="SVGID_24_" gradientUnits="userSpaceOnUse" x1="-5.6333" y1="-111.5557" x2="-4.5219" y2="-111.5557" gradientTransform="matrix(221.7314 0 0 -221.7314 2161.6021 -23822.5801)">
			<stop  offset="0" style="stop-color:#C4C4C4"/>
			<stop  offset="0.9961" style="stop-color:#AFAFAF"/>
			<stop  offset="1" style="stop-color:#AFAFAF"/>
		</linearGradient>
		<path class="st28" d="M977.3,912.6c-0.2,0.2-0.5,0.4-0.7,0.5C976.8,912.9,977,912.7,977.3,912.6z"/>
		
			<linearGradient id="SVGID_25_" gradientUnits="userSpaceOnUse" x1="-5.6333" y1="-111.5679" x2="-4.5219" y2="-111.5679" gradientTransform="matrix(221.7314 0 0 -221.7314 2161.6021 -23825.2891)">
			<stop  offset="0" style="stop-color:#C4C4C4"/>
			<stop  offset="0.9961" style="stop-color:#AFAFAF"/>
			<stop  offset="1" style="stop-color:#AFAFAF"/>
		</linearGradient>
		<path class="st29" d="M977.3,912.6c-0.2,0.2-0.5,0.4-0.7,0.5C976.8,912.9,977,912.7,977.3,912.6z"/>
		
			<linearGradient id="SVGID_26_" gradientUnits="userSpaceOnUse" x1="-5.6333" y1="-111.5953" x2="-4.5219" y2="-111.5953" gradientTransform="matrix(221.7314 0 0 -221.7314 2161.6021 -23822.5801)">
			<stop  offset="0" style="stop-color:#C4C4C4"/>
			<stop  offset="0.9961" style="stop-color:#AFAFAF"/>
			<stop  offset="1" style="stop-color:#AFAFAF"/>
		</linearGradient>
		<path class="st30" d="M963.9,921.5c-0.2,0.1-0.3,0.2-0.5,0.3C963.5,921.7,963.7,921.6,963.9,921.5z"/>
		
			<linearGradient id="SVGID_27_" gradientUnits="userSpaceOnUse" x1="-5.6333" y1="-111.6076" x2="-4.5219" y2="-111.6076" gradientTransform="matrix(221.7314 0 0 -221.7314 2161.6021 -23825.2891)">
			<stop  offset="0" style="stop-color:#C4C4C4"/>
			<stop  offset="0.9961" style="stop-color:#AFAFAF"/>
			<stop  offset="1" style="stop-color:#AFAFAF"/>
		</linearGradient>
		<path class="st31" d="M963.9,921.5c-0.2,0.1-0.3,0.2-0.5,0.3C963.5,921.7,963.7,921.6,963.9,921.5z"/>
		
			<linearGradient id="SVGID_28_" gradientUnits="userSpaceOnUse" x1="-5.6333" y1="-111.643" x2="-4.5219" y2="-111.643" gradientTransform="matrix(221.7314 0 0 -221.7314 2161.6021 -23822.5801)">
			<stop  offset="0" style="stop-color:#C4C4C4"/>
			<stop  offset="0.9961" style="stop-color:#AFAFAF"/>
			<stop  offset="1" style="stop-color:#AFAFAF"/>
		</linearGradient>
		<path class="st32" d="M933.5,932.2c-0.1,0-0.1,0-0.2,0C933.3,932.2,933.4,932.2,933.5,932.2z"/>
		
			<linearGradient id="SVGID_29_" gradientUnits="userSpaceOnUse" x1="-5.6333" y1="-111.6553" x2="-4.5219" y2="-111.6553" gradientTransform="matrix(221.7314 0 0 -221.7314 2161.6021 -23825.2891)">
			<stop  offset="0" style="stop-color:#C4C4C4"/>
			<stop  offset="0.9961" style="stop-color:#AFAFAF"/>
			<stop  offset="1" style="stop-color:#AFAFAF"/>
		</linearGradient>
		<path class="st33" d="M933.5,932.2c-0.1,0-0.1,0-0.2,0C933.3,932.2,933.4,932.2,933.5,932.2z"/>
		
			<linearGradient id="SVGID_30_" gradientUnits="userSpaceOnUse" x1="-5.6333" y1="-111.6395" x2="-4.5219" y2="-111.6395" gradientTransform="matrix(221.7314 0 0 -221.7314 2161.6021 -23822.5801)">
			<stop  offset="0" style="stop-color:#C4C4C4"/>
			<stop  offset="0.9961" style="stop-color:#AFAFAF"/>
			<stop  offset="1" style="stop-color:#AFAFAF"/>
		</linearGradient>
		<path class="st34" d="M937.3,931.4C937.3,931.4,937.3,931.4,937.3,931.4C937.3,931.4,937.3,931.4,937.3,931.4z"/>
		
			<linearGradient id="SVGID_31_" gradientUnits="userSpaceOnUse" x1="-5.6333" y1="-111.6517" x2="-4.5219" y2="-111.6517" gradientTransform="matrix(221.7314 0 0 -221.7314 2161.6021 -23825.2891)">
			<stop  offset="0" style="stop-color:#C4C4C4"/>
			<stop  offset="0.9961" style="stop-color:#AFAFAF"/>
			<stop  offset="1" style="stop-color:#AFAFAF"/>
		</linearGradient>
		<path class="st35" d="M937.3,931.4C937.3,931.4,937.3,931.4,937.3,931.4C937.3,931.4,937.3,931.4,937.3,931.4z"/>
		
			<linearGradient id="SVGID_32_" gradientUnits="userSpaceOnUse" x1="-5.6333" y1="-111.6038" x2="-4.5219" y2="-111.6038" gradientTransform="matrix(221.7314 0 0 -221.7314 2161.6021 -23822.5801)">
			<stop  offset="0" style="stop-color:#C4C4C4"/>
			<stop  offset="0.9961" style="stop-color:#AFAFAF"/>
			<stop  offset="1" style="stop-color:#AFAFAF"/>
		</linearGradient>
		<path class="st36" d="M960.1,923.5c-0.1,0-0.1,0.1-0.2,0.1C960,923.5,960,923.5,960.1,923.5z"/>
		
			<linearGradient id="SVGID_33_" gradientUnits="userSpaceOnUse" x1="-5.6333" y1="-111.616" x2="-4.5219" y2="-111.616" gradientTransform="matrix(221.7314 0 0 -221.7314 2161.6021 -23825.2891)">
			<stop  offset="0" style="stop-color:#C4C4C4"/>
			<stop  offset="0.9961" style="stop-color:#AFAFAF"/>
			<stop  offset="1" style="stop-color:#AFAFAF"/>
		</linearGradient>
		<path class="st37" d="M960.1,923.5c-0.1,0-0.1,0.1-0.2,0.1C960,923.5,960,923.5,960.1,923.5z"/>
		
			<linearGradient id="SVGID_34_" gradientUnits="userSpaceOnUse" x1="-5.6333" y1="-111.6479" x2="-4.5219" y2="-111.6479" gradientTransform="matrix(221.7314 0 0 -221.7314 2161.6021 -23822.5801)">
			<stop  offset="0" style="stop-color:#C4C4C4"/>
			<stop  offset="0.9961" style="stop-color:#AFAFAF"/>
			<stop  offset="1" style="stop-color:#AFAFAF"/>
		</linearGradient>
		<path class="st38" d="M925.6,933.3c-0.1,0-0.1,0-0.2,0C925.5,933.3,925.5,933.3,925.6,933.3z"/>
		
			<linearGradient id="SVGID_35_" gradientUnits="userSpaceOnUse" x1="-5.6333" y1="-111.6601" x2="-4.5219" y2="-111.6601" gradientTransform="matrix(221.7314 0 0 -221.7314 2161.6021 -23825.2891)">
			<stop  offset="0" style="stop-color:#C4C4C4"/>
			<stop  offset="0.9961" style="stop-color:#AFAFAF"/>
			<stop  offset="1" style="stop-color:#AFAFAF"/>
		</linearGradient>
		<path class="st39" d="M925.6,933.3c-0.1,0-0.1,0-0.2,0C925.5,933.3,925.5,933.3,925.6,933.3z"/>
		
			<linearGradient id="SVGID_36_" gradientUnits="userSpaceOnUse" x1="-5.6333" y1="-111.5316" x2="-4.5219" y2="-111.5316" gradientTransform="matrix(221.7314 0 0 -221.7314 2161.6021 -23822.5801)">
			<stop  offset="0" style="stop-color:#C4C4C4"/>
			<stop  offset="0.9961" style="stop-color:#AFAFAF"/>
			<stop  offset="1" style="stop-color:#AFAFAF"/>
		</linearGradient>
		<path class="st40" d="M983.3,907.3c-0.1,0.1-0.2,0.2-0.3,0.3C983.1,907.5,983.2,907.4,983.3,907.3z"/>
		
			<linearGradient id="SVGID_37_" gradientUnits="userSpaceOnUse" x1="-5.6333" y1="-111.5438" x2="-4.5219" y2="-111.5438" gradientTransform="matrix(221.7314 0 0 -221.7314 2161.6021 -23825.2891)">
			<stop  offset="0" style="stop-color:#C4C4C4"/>
			<stop  offset="0.9961" style="stop-color:#AFAFAF"/>
			<stop  offset="1" style="stop-color:#AFAFAF"/>
		</linearGradient>
		<path class="st41" d="M983.3,907.3c-0.1,0.1-0.2,0.2-0.3,0.3C983.1,907.5,983.2,907.4,983.3,907.3z"/>
		
			<linearGradient id="SVGID_38_" gradientUnits="userSpaceOnUse" x1="-5.6333" y1="-111.4737" x2="-4.5219" y2="-111.4737" gradientTransform="matrix(221.7314 0 0 -221.7314 2161.6021 -23822.5801)">
			<stop  offset="0" style="stop-color:#C4C4C4"/>
			<stop  offset="0.9961" style="stop-color:#AFAFAF"/>
			<stop  offset="1" style="stop-color:#AFAFAF"/>
		</linearGradient>
		<path class="st42" d="M994.7,894.2c-0.2,0.3-0.4,0.6-0.6,0.9C994.3,894.8,994.5,894.5,994.7,894.2z"/>
		
			<linearGradient id="SVGID_39_" gradientUnits="userSpaceOnUse" x1="-5.6333" y1="-111.4859" x2="-4.5219" y2="-111.4859" gradientTransform="matrix(221.7314 0 0 -221.7314 2161.6021 -23825.2891)">
			<stop  offset="0" style="stop-color:#C4C4C4"/>
			<stop  offset="0.9961" style="stop-color:#AFAFAF"/>
			<stop  offset="1" style="stop-color:#AFAFAF"/>
		</linearGradient>
		<path class="st43" d="M994.7,894.2c-0.2,0.3-0.4,0.6-0.6,0.9C994.3,894.8,994.5,894.5,994.7,894.2z"/>
		
			<linearGradient id="SVGID_40_" gradientUnits="userSpaceOnUse" x1="-5.6333" y1="-111.458" x2="-4.5219" y2="-111.458" gradientTransform="matrix(221.7314 0 0 -221.7314 2161.6021 -23822.5801)">
			<stop  offset="0" style="stop-color:#C4C4C4"/>
			<stop  offset="0.9961" style="stop-color:#AFAFAF"/>
			<stop  offset="1" style="stop-color:#AFAFAF"/>
		</linearGradient>
		<path class="st44" d="M997.2,890.6c-0.2,0.4-0.5,0.7-0.7,1.1C996.7,891.4,996.9,891,997.2,890.6z"/>
		
			<linearGradient id="SVGID_41_" gradientUnits="userSpaceOnUse" x1="-5.6333" y1="-111.4702" x2="-4.5219" y2="-111.4702" gradientTransform="matrix(221.7314 0 0 -221.7314 2161.6021 -23825.2891)">
			<stop  offset="0" style="stop-color:#C4C4C4"/>
			<stop  offset="0.9961" style="stop-color:#AFAFAF"/>
			<stop  offset="1" style="stop-color:#AFAFAF"/>
		</linearGradient>
		<path class="st45" d="M997.2,890.6c-0.2,0.4-0.5,0.7-0.7,1.1C996.7,891.4,996.9,891,997.2,890.6z"/>
		
			<linearGradient id="SVGID_42_" gradientUnits="userSpaceOnUse" x1="-5.6333" y1="-111.4892" x2="-4.5219" y2="-111.4892" gradientTransform="matrix(221.7314 0 0 -221.7314 2161.6021 -23822.5801)">
			<stop  offset="0" style="stop-color:#C4C4C4"/>
			<stop  offset="0.9961" style="stop-color:#AFAFAF"/>
			<stop  offset="1" style="stop-color:#AFAFAF"/>
		</linearGradient>
		<path class="st46" d="M991.9,897.9c-0.1,0.1-0.2,0.3-0.3,0.4C991.7,898.2,991.8,898,991.9,897.9z"/>
		
			<linearGradient id="SVGID_43_" gradientUnits="userSpaceOnUse" x1="-5.6333" y1="-111.5014" x2="-4.5219" y2="-111.5014" gradientTransform="matrix(221.7314 0 0 -221.7314 2161.6021 -23825.2891)">
			<stop  offset="0" style="stop-color:#C4C4C4"/>
			<stop  offset="0.9961" style="stop-color:#AFAFAF"/>
			<stop  offset="1" style="stop-color:#AFAFAF"/>
		</linearGradient>
		<path class="st47" d="M991.9,897.9c-0.1,0.1-0.2,0.3-0.3,0.4C991.7,898.2,991.8,898,991.9,897.9z"/>
		
			<linearGradient id="SVGID_44_" gradientUnits="userSpaceOnUse" x1="-5.6333" y1="-111.4419" x2="-4.5219" y2="-111.4419" gradientTransform="matrix(221.7314 0 0 -221.7314 2161.6021 -23822.5801)">
			<stop  offset="0" style="stop-color:#C4C4C4"/>
			<stop  offset="0.9961" style="stop-color:#AFAFAF"/>
			<stop  offset="1" style="stop-color:#AFAFAF"/>
		</linearGradient>
		<path class="st48" d="M999.4,887c-0.2,0.4-0.5,0.8-0.8,1.3C998.9,887.8,999.2,887.4,999.4,887z"/>
		
			<linearGradient id="SVGID_45_" gradientUnits="userSpaceOnUse" x1="-5.6333" y1="-111.4542" x2="-4.5219" y2="-111.4542" gradientTransform="matrix(221.7314 0 0 -221.7314 2161.6021 -23825.2891)">
			<stop  offset="0" style="stop-color:#C4C4C4"/>
			<stop  offset="0.9961" style="stop-color:#AFAFAF"/>
			<stop  offset="1" style="stop-color:#AFAFAF"/>
		</linearGradient>
		<path class="st49" d="M999.4,887c-0.2,0.4-0.5,0.8-0.8,1.3C998.9,887.8,999.2,887.4,999.4,887z"/>
		<path class="st1" d="M1017.1,830.1L1017.1,830.1l5.6-22.6l120.3-25.7l0.1-0.2c0,0,0,0,0,0c10.3-2.6,17-12.7,15.3-23.2c0,0,0,0,0,0
			l0.5-0.8l-0.4-90.4c-1,8.6-7.3,16-16.2,17.9l-34.7,7.4L912.5,933.7c0.3,0,0.6,0,1,0c0.9,0,1.7,0,2.6,0c3.1,0,6.2-0.2,9.3-0.5
			c0.1,0,0.1,0,0.2,0c1.3-0.1,2.5-0.3,3.8-0.4c0.1,0,0.1,0,0.2,0c1.3-0.2,2.5-0.4,3.7-0.6c0.1,0,0.1,0,0.2,0
			c1.3-0.2,2.6-0.5,3.8-0.8c0,0,0,0,0,0c7.8-1.7,15.4-4.3,22.6-7.9c0.1,0,0.1-0.1,0.2-0.1c1.1-0.5,2.2-1.1,3.3-1.7
			c0.2-0.1,0.3-0.2,0.5-0.3c1-0.5,2-1.1,2.9-1.7c0.2-0.1,0.4-0.3,0.6-0.4c0.9-0.6,1.8-1.1,2.7-1.7c0.2-0.2,0.5-0.3,0.7-0.5
			c0.9-0.6,1.7-1.2,2.6-1.8c0.2-0.2,0.5-0.3,0.7-0.5c0.8-0.6,1.7-1.2,2.5-1.9c0.2-0.2,0.5-0.4,0.7-0.5c0.8-0.7,1.7-1.4,2.5-2.1
			c0.2-0.2,0.4-0.3,0.6-0.5c0.9-0.8,1.8-1.6,2.6-2.4c0.1-0.1,0.2-0.2,0.3-0.3c2.9-2.8,5.7-5.8,8.3-9c0.1-0.1,0.2-0.3,0.3-0.4
			c0.7-0.9,1.4-1.8,2.1-2.8c0.2-0.3,0.4-0.6,0.6-0.9c0.6-0.8,1.2-1.6,1.7-2.5c0.2-0.4,0.5-0.7,0.7-1.1c0.5-0.8,1-1.6,1.5-2.4
			c0.3-0.4,0.5-0.8,0.8-1.3c0.5-0.8,0.9-1.6,1.3-2.4c0.2-0.5,0.5-0.9,0.7-1.4c0.4-0.8,0.8-1.6,1.2-2.4c0.2-0.5,0.5-1,0.7-1.5
			c0.4-0.8,0.8-1.6,1.1-2.5c0.2-0.5,0.4-1,0.6-1.5c0.4-0.9,0.7-1.7,1-2.6c0.2-0.5,0.4-1,0.6-1.5c0.3-0.9,0.7-1.9,1-2.8
			c0.2-0.5,0.3-0.9,0.5-1.4c0.3-1.1,0.7-2.2,1-3.2c0.1-0.4,0.2-0.7,0.3-1.1c0.4-1.5,0.8-3,1.1-4.5L1017.1,830.1z"/>
		
			<linearGradient id="SVGID_46_" gradientUnits="userSpaceOnUse" x1="-5.6333" y1="-111.049" x2="-4.5219" y2="-111.049" gradientTransform="matrix(221.7314 0 0 -221.7314 2161.6021 -23822.5801)">
			<stop  offset="0" style="stop-color:#C4C4C4"/>
			<stop  offset="0.9961" style="stop-color:#AFAFAF"/>
			<stop  offset="1" style="stop-color:#AFAFAF"/>
		</linearGradient>
		<path class="st50" d="M1017.1,830.1L1017.1,830.1l5.6-22.6l120.3-25.7l0.1-0.2c0,0,0,0,0,0c10.3-2.6,17-12.7,15.3-23.2
			c0,0,0,0,0,0l0.5-0.8l-0.4-90.4c-1,8.6-7.3,16-16.2,17.9l-34.7,7.4L912.5,933.7c0.3,0,0.6,0,1,0c0.9,0,1.7,0,2.6,0
			c3.1,0,6.2-0.2,9.3-0.5c0.1,0,0.1,0,0.2,0c1.3-0.1,2.5-0.3,3.8-0.4c0.1,0,0.1,0,0.2,0c1.3-0.2,2.5-0.4,3.7-0.6c0.1,0,0.1,0,0.2,0
			c1.3-0.2,2.6-0.5,3.8-0.8c0,0,0,0,0,0c7.8-1.7,15.4-4.3,22.6-7.9c0.1,0,0.1-0.1,0.2-0.1c1.1-0.5,2.2-1.1,3.3-1.7
			c0.2-0.1,0.3-0.2,0.5-0.3c1-0.5,2-1.1,2.9-1.7c0.2-0.1,0.4-0.3,0.6-0.4c0.9-0.6,1.8-1.1,2.7-1.7c0.2-0.2,0.5-0.3,0.7-0.5
			c0.9-0.6,1.7-1.2,2.6-1.8c0.2-0.2,0.5-0.3,0.7-0.5c0.8-0.6,1.7-1.2,2.5-1.9c0.2-0.2,0.5-0.4,0.7-0.5c0.8-0.7,1.7-1.4,2.5-2.1
			c0.2-0.2,0.4-0.3,0.6-0.5c0.9-0.8,1.8-1.6,2.6-2.4c0.1-0.1,0.2-0.2,0.3-0.3c2.9-2.8,5.7-5.8,8.3-9c0.1-0.1,0.2-0.3,0.3-0.4
			c0.7-0.9,1.4-1.8,2.1-2.8c0.2-0.3,0.4-0.6,0.6-0.9c0.6-0.8,1.2-1.6,1.7-2.5c0.2-0.4,0.5-0.7,0.7-1.1c0.5-0.8,1-1.6,1.5-2.4
			c0.3-0.4,0.5-0.8,0.8-1.3c0.5-0.8,0.9-1.6,1.3-2.4c0.2-0.5,0.5-0.9,0.7-1.4c0.4-0.8,0.8-1.6,1.2-2.4c0.2-0.5,0.5-1,0.7-1.5
			c0.4-0.8,0.8-1.6,1.1-2.5c0.2-0.5,0.4-1,0.6-1.5c0.4-0.9,0.7-1.7,1-2.6c0.2-0.5,0.4-1,0.6-1.5c0.3-0.9,0.7-1.9,1-2.8
			c0.2-0.5,0.3-0.9,0.5-1.4c0.3-1.1,0.7-2.2,1-3.2c0.1-0.4,0.2-0.7,0.3-1.1c0.4-1.5,0.8-3,1.1-4.5L1017.1,830.1z"/>
		
			<linearGradient id="SVGID_47_" gradientUnits="userSpaceOnUse" x1="-5.6333" y1="-111.0613" x2="-4.5219" y2="-111.0613" gradientTransform="matrix(221.7314 0 0 -221.7314 2161.6021 -23825.2891)">
			<stop  offset="0" style="stop-color:#C4C4C4"/>
			<stop  offset="0.9961" style="stop-color:#AFAFAF"/>
			<stop  offset="1" style="stop-color:#AFAFAF"/>
		</linearGradient>
		<path class="st51" d="M1017.1,830.1L1017.1,830.1l5.6-22.6l120.3-25.7l0.1-0.2c0,0,0,0,0,0c10.3-2.6,17-12.7,15.3-23.2
			c0,0,0,0,0,0l0.5-0.8l-0.4-90.4c-1,8.6-7.3,16-16.2,17.9l-34.7,7.4L912.5,933.7c0.3,0,0.6,0,1,0c0.9,0,1.7,0,2.6,0
			c3.1,0,6.2-0.2,9.3-0.5c0.1,0,0.1,0,0.2,0c1.3-0.1,2.5-0.3,3.8-0.4c0.1,0,0.1,0,0.2,0c1.3-0.2,2.5-0.4,3.7-0.6c0.1,0,0.1,0,0.2,0
			c1.3-0.2,2.6-0.5,3.8-0.8c0,0,0,0,0,0c7.8-1.7,15.4-4.3,22.6-7.9c0.1,0,0.1-0.1,0.2-0.1c1.1-0.5,2.2-1.1,3.3-1.7
			c0.2-0.1,0.3-0.2,0.5-0.3c1-0.5,2-1.1,2.9-1.7c0.2-0.1,0.4-0.3,0.6-0.4c0.9-0.6,1.8-1.1,2.7-1.7c0.2-0.2,0.5-0.3,0.7-0.5
			c0.9-0.6,1.7-1.2,2.6-1.8c0.2-0.2,0.5-0.3,0.7-0.5c0.8-0.6,1.7-1.2,2.5-1.9c0.2-0.2,0.5-0.4,0.7-0.5c0.8-0.7,1.7-1.4,2.5-2.1
			c0.2-0.2,0.4-0.3,0.6-0.5c0.9-0.8,1.8-1.6,2.6-2.4c0.1-0.1,0.2-0.2,0.3-0.3c2.9-2.8,5.7-5.8,8.3-9c0.1-0.1,0.2-0.3,0.3-0.4
			c0.7-0.9,1.4-1.8,2.1-2.8c0.2-0.3,0.4-0.6,0.6-0.9c0.6-0.8,1.2-1.6,1.7-2.5c0.2-0.4,0.5-0.7,0.7-1.1c0.5-0.8,1-1.6,1.5-2.4
			c0.3-0.4,0.5-0.8,0.8-1.3c0.5-0.8,0.9-1.6,1.3-2.4c0.2-0.5,0.5-0.9,0.7-1.4c0.4-0.8,0.8-1.6,1.2-2.4c0.2-0.5,0.5-1,0.7-1.5
			c0.4-0.8,0.8-1.6,1.1-2.5c0.2-0.5,0.4-1,0.6-1.5c0.4-0.9,0.7-1.7,1-2.6c0.2-0.5,0.4-1,0.6-1.5c0.3-0.9,0.7-1.9,1-2.8
			c0.2-0.5,0.3-0.9,0.5-1.4c0.3-1.1,0.7-2.2,1-3.2c0.1-0.4,0.2-0.7,0.3-1.1c0.4-1.5,0.8-3,1.1-4.5L1017.1,830.1z"/>
		<path class="st2" d="M677,684.2l121.8,25.6l27.2,66.8c16.2,39.7,51.1,59.4,86.5,60.5c43,1.3,86.6-24.7,98.2-75.5l11.5-50.7
			l85.5-18.3l34.7-7.4c8.9-1.9,15.2-9.3,16.2-17.9c0,0,0,0,0,0c0.2-2.1,0.2-4.2-0.3-6.3l-11.8-59.6l0-0.1l-14.2-71.5l1.9-2.4
			l0.4-0.6c11.1-14.4,16.3-31.3,16.2-48c-0.1-27.8-15-54.9-41.8-69.1l-8.9-38.4c-2.6-11.3-12.7-19.4-24.3-19.4h-87.9l-1.8-16.6
			c-0.3-2.5-2.4-4.5-5-4.5H793.9c-2.8,0-5,2.2-5,5v15l-85.9-0.9c-12.3-0.1-22.7,9.3-23.6,21.6l-22.2,286.3c-0.1,1.2-0.1,2.4,0,3.5
			C657.9,672.4,665.9,681.9,677,684.2z"/>
	</g>
</g>
</svg>
