<?xml version="1.0" encoding="utf-8"?>
<!-- Generator: Adobe Illustrator 19.0.0, SVG Export Plug-In . SVG Version: 6.00 Build 0)  -->
<svg version="1.1" xmlns="http://www.w3.org/2000/svg" xmlns:xlink="http://www.w3.org/1999/xlink" x="0px" y="0px"
	 viewBox="0 0 1997.9 946" style="enable-background:new 0 0 1997.9 946;" xml:space="preserve">
<style type="text/css">
	.st0{fill:#AFAFAF;}
	.st1{fill:#E9E9E9;}
	.st2{fill:#C4C4C4;}
	.st3{fill:#EAEAEA;}
	.st4{fill:#9E9E9E;}
	.st5{fill:none;}
	.st6{fill:#ACAAAA;}
	.st7{fill:none;stroke:#ACAAAA;stroke-width:0;stroke-linecap:round;stroke-linejoin:round;}
</style>
<g id="Слой_9">
	<g id="Слой_1">
		<g>
			<polygon class="st0" points="599.4,14.6 366.6,787.1 376.1,916.9 608.9,144.4 			"/>
			<polygon class="st1" points="366.6,787.1 599.4,14.6 404.7,14.6 39,787.1 			"/>
			<polygon class="st2" points="39,787.1 48.5,916.9 376.1,916.9 366.6,787.1 			"/>
		</g>
	</g>
	<g id="Слой_3">
		<g>
			<rect x="854.3" y="177.7" class="st2" width="164.6" height="90.2"/>
			<polygon class="st3" points="1015,100.1 858.7,100.1 854.3,177.7 1018.9,177.7 			"/>
		</g>
		<g>
			<polygon class="st0" points="1226.4,101.7 1226.4,191.9 1243,267.9 1243,177.7 			"/>
			<polygon class="st2" points="1243,177.7 1243,267.9 1243,269.7 1311.6,267.2 1311.6,177.7 			"/>
			<polygon class="st3" points="1311.6,177.7 1289.2,101.7 1226.4,101.7 1243,177.7 			"/>
		</g>
		<g>
			<polygon class="st2" points="1340.1,266.3 1316.5,191.9 1340.1,266.3 1409,267.9 1340.1,265.7 			"/>
			<polygon class="st0" points="1340.1,265.7 1340.1,176.1 1340.1,176.1 1316.5,101.7 1316.5,191.9 1340.1,266.3 			"/>
			<polygon class="st2" points="1340.1,176.1 1340.1,265.7 1409,267.9 1409,177.7 			"/>
			<polygon class="st3" points="1340.1,176.1 1409,177.7 1380.8,101.7 1316.5,101.7 1340.1,176.1 			"/>
		</g>
		<g>
			<polygon class="st0" points="1436.8,177.7 1409,101.7 1409,191.9 1436.8,267.9 			"/>
			<rect x="1436.8" y="177.7" class="st2" width="88.2" height="90.2"/>
			<polygon class="st3" points="1525,177.7 1490.4,101.7 1409,101.7 1436.8,177.7 			"/>
		</g>
		<g>
			<polygon class="st2" points="1662.3,267.9 1662.3,267.9 1662.3,267.9 			"/>
			<rect x="1537.1" y="187.7" class="st2" width="0" height="84.5"/>
			<polygon class="st0" points="1555.6,177.7 1555.6,177.7 1518.6,101.7 1518.6,191.9 1555.6,267.9 			"/>
			<polygon class="st2" points="1662.3,177.7 1555.6,177.7 1555.6,177.7 1555.6,267.9 1555.6,267.9 1555.6,267.9 1555.6,267.9 
				1662.3,267.9 1662.3,267.9 			"/>
			<polygon class="st3" points="1662.3,177.7 1619.9,101.7 1518.6,101.7 1555.6,177.7 1662.3,177.7 			"/>
		</g>
		<g>
			<polygon class="st3" points="688,264.7 824.4,267.9 688.3,263.5 			"/>
			<polygon class="st2" points="822.9,177.7 686.4,174.5 688,263.5 688.3,263.5 824.4,267.9 			"/>
			<polygon class="st0" points="830.7,100.1 822.9,177.7 824.4,267.9 832.2,190.3 			"/>
			<polygon class="st3" points="830.7,100.1 702.7,100.1 686.4,174.5 822.9,177.7 			"/>
		</g>
		<g>
			<polygon class="st2" points="657.9,177.7 570.1,177.7 571.6,267.9 659.5,267.9 			"/>
			<polygon class="st3" points="675.3,100.1 593.4,100.1 570.1,177.7 657.9,177.7 			"/>
			<polygon class="st0" points="675.3,100.1 657.9,177.7 659.5,267.9 676.9,190.3 			"/>
		</g>
		<g>
			<polygon class="st0" points="1043.3,100.1 1043.3,190.3 1045.5,228.8 1045.4,138.1 			"/>
			<polygon class="st0" points="1045.5,139.9 1045.5,139.9 1045.5,139.4 1045.5,139.9 1045.8,234.4 1047.7,267.9 1047.7,177.7 			
				"/>
			<rect x="1047.7" y="177.7" class="st2" width="68.3" height="90.2"/>
			<polygon class="st4" points="1045.5,139.4 1045.4,138.2 1045.4,138.1 1045.5,228.8 1045.5,229.6 1045.8,234.4 1045.8,234.4 
				1045.5,139.9 			"/>
			<polygon class="st3" points="1111.4,139.9 1045.5,139.9 1047.7,177.7 1116,177.7 1116,177.7 			"/>
			<polygon class="st3" points="1045.4,138.2 1045.4,138.1 1111.2,138.1 1111.2,138.1 1106.6,100.1 1043.3,100.1 1045.4,138.1 			
				"/>
			<polygon class="st2" points="1045.4,138.1 1045.4,138.2 1045.5,139.4 1045.5,139.9 1045.5,139.9 1111.4,139.9 1111.4,139.9 
				1111.2,138.1 1111.2,138.1 			"/>
		</g>
		<g>
			<rect x="1145.6" y="177.7" class="st5" width="0" height="14.2"/>
			<rect x="1145.6" y="191.9" class="st2" width="0" height="76"/>
			<polygon class="st2" points="1215.2,177.7 1145.6,177.7 1145.6,191.9 1145.6,267.9 1215.2,267.9 1215.2,267.9 1215.2,177.7 			
				"/>
			<polygon class="st0" points="1140.5,138 1140.5,138 1140.5,138 1140.5,138 1140.5,138 1135.9,101.7 1135.9,191.9 1140.5,227.7 
							"/>
			<polygon class="st0" points="1145.6,177.7 1140.8,140 1141,232.1 1141,232.1 1145.6,267.9 1145.6,191.9 			"/>
			<polygon class="st4" points="1140.8,140 1140.5,138 1140.5,138 1140.5,227.7 1140.5,228.3 1141,232.1 1141,232.1 			"/>
			<polygon class="st3" points="1206.3,138 1198.2,101.7 1135.9,101.7 1140.5,138 			"/>
			<polygon class="st3" points="1140.8,139.8 1140.5,138 1140.5,138 1140.8,140 1145.6,177.7 1145.6,177.7 1215.2,177.7 
				1206.3,138.1 1206.7,139.8 			"/>
			<polygon class="st2" points="1140.5,138 1140.5,138 1140.8,139.8 1206.7,139.8 1206.3,138.1 1206.3,138 1206.3,138 1140.5,138 
							"/>
		</g>
	</g>
	<g id="Слой_5">
		<g>
			<rect x="1605.3" y="305" class="st2" width="0" height="90.2"/>
			<polygon class="st2" points="1735.8,305 1605.3,305 1605.3,395.2 1735.8,395.2 1735.8,395.2 1735.8,305 			"/>
			<polygon class="st0" points="1580.6,253 1557.6,204.6 1557.6,294.8 1580.6,343.2 			"/>
			<polygon class="st0" points="1581.4,254.8 1581.4,345 1581.1,344.3 1605.3,395.2 1605.3,305 			"/>
			<polygon class="st4" points="1581.4,254.8 1580.7,253.3 1580.6,253 1580.6,253 1580.6,253 1580.6,343.2 1580.6,343.2 
				1581.1,344.3 1581.4,345 			"/>
			<polygon class="st3" points="1580.6,253 1706.1,253 1707.1,254.8 1581.4,254.8 1580.7,253.3 1581.4,254.8 1605.3,305 1605.3,305 
				1735.8,305 1678.4,204.6 1557.6,204.6 1580.6,253 			"/>
			<polygon class="st2" points="1581.4,254.8 1707.1,254.8 1706.1,253 1580.6,253 1580.6,253 1580.7,253.3 			"/>
		</g>
		<g>
			<rect x="850.7" y="311.5" class="st2" width="275.1" height="0"/>
			<polygon class="st2" points="844.6,401.7 844.6,401.7 844.6,401.7 			"/>
			<polygon class="st2" points="1125.8,311.5 850.7,311.5 844.6,311.5 844.6,401.7 844.6,401.7 844.6,401.7 1137.8,401.7 
				1137.8,311.5 			"/>
			<polygon class="st3" points="1137.8,311.5 1122.2,193.5 852.6,193.5 844.6,311.5 850.7,311.5 1125.8,311.5 			"/>
		</g>
		<g>
			<polygon class="st2" points="1156.9,395.2 1156.9,395.2 1142.9,305.7 			"/>
			<polygon class="st2" points="1349.1,305 1349.1,305 1156.9,305 1156.9,395.2 1349.1,395.2 1349.1,395.2 			"/>
			<polygon class="st0" points="1156.9,305 1142.9,215.5 1140.7,201.4 1140.7,291.6 1142.9,305.7 1156.9,395.2 1156.9,305 			"/>
			<polygon class="st3" points="1156.9,305 1156.9,305 1349.1,305 1318.6,201.4 1140.7,201.4 1142.9,215.5 			"/>
		</g>
		<g>
			<polygon class="st3" points="533.3,395.2 533.3,395.2 533.3,395.2 			"/>
			<polygon class="st3" points="629.4,302.7 560.7,304.3 560.7,304.3 629.4,302.7 631,392.9 631,392.9 			"/>
			<polygon class="st2" points="560.7,304.3 531.7,305 533.3,395.2 533.3,395.2 533.3,395.2 631,392.9 631,392.9 629.4,302.7 			"/>
			<polygon class="st3" points="651.6,201.4 562.9,201.4 531.7,305 560.7,304.3 629.4,302.7 			"/>
			<polygon class="st0" points="629.4,302.7 631,392.9 653.2,291.6 651.6,201.4 			"/>
		</g>
		<g>
			<polygon class="st5" points="823.9,291.6 830.7,201.4 823.9,291.6 			"/>
			<polygon class="st3" points="832.2,291.6 832.2,291.6 832.2,292.2 			"/>
			<rect x="823.4" y="291.6" class="st3" width="0" height="13.4"/>
			<polygon class="st2" points="822.9,305 822.9,305 660.5,305 662.1,395.2 824.4,395.2 822.9,305 			"/>
			<polygon class="st3" points="822.9,305 823.9,291.6 830.7,201.4 682.6,201.4 660.5,305 			"/>
			<polygon class="st0" points="832.2,291.6 830.7,201.4 823.9,291.6 822.9,305 822.9,305 824.4,395.2 824.4,395.2 832.2,294.4 
				832.2,292.2 			"/>
		</g>
	</g>
	<g id="Слой_7">
		<g>
			<rect x="844.6" y="459.4" class="st2" width="166.6" height="90.2"/>
			<polygon class="st3" points="1011.1,459.4 1006.3,337.5 853.3,337.5 844.6,459.4 			"/>
		</g>
		<g>
			
				<rect x="1209.2" y="443.6" transform="matrix(0.1884 0.9821 -0.9821 0.1884 1430.1406 -843.3511)" class="st2" width="32.2" height="0"/>
			<polygon class="st2" points="1227.8,546.6 1228.4,549.6 1228.4,459.4 			"/>
			<polygon class="st2" points="1396.5,459.4 1228.4,459.4 1228.4,459.4 1228.4,549.6 1228.4,549.6 1228.4,549.6 1396.5,549.6 
				1396.5,549.6 			"/>
			<polygon class="st0" points="1222.3,427.8 1205,337.5 1205,427.8 1227.7,549.6 1227.8,546.6 1228.4,459.4 			"/>
			<polygon class="st3" points="1396.5,459.4 1396.5,459.4 1359.5,337.5 1205,337.5 1222.3,427.8 1228.4,459.4 			"/>
		</g>
		<g>
			<polygon class="st2" points="1825.4,549.6 1825.4,549.6 1825.4,549.6 			"/>
			<polygon class="st2" points="1680.3,549.6 1680.3,549.6 1680.3,549.6 			"/>
			<polygon class="st2" points="1825.4,459.4 1680.3,459.4 1680.3,549.6 1825.4,549.6 1825.4,549.6 			"/>
			<polygon class="st0" points="1622.8,337.5 1622.8,427.8 1680.3,549.6 1680.3,549.6 1680.3,459.4 			"/>
			<polygon class="st3" points="1680.3,459.4 1825.4,459.4 1825.4,459.4 1753.9,337.5 1622.8,337.5 			"/>
		</g>
		<g>
			<polygon class="st3" points="810.6,427.8 810.6,427.8 807.9,459.4 			"/>
			<polygon class="st2" points="626.3,459.4 627.8,549.6 809.5,549.6 807.9,459.4 			"/>
			<polygon class="st3" points="807.9,459.4 810.6,427.8 818.3,337.5 651.6,337.5 626.3,459.4 			"/>
			<polygon class="st0" points="818.3,337.5 810.6,427.8 807.9,459.4 809.5,549.6 819.9,427.8 			"/>
		</g>
		<g>
			<polygon class="st2" points="1192,549.6 1192,549.6 1192,549.6 			"/>
			<polygon class="st2" points="1049.1,549.6 1049.1,549.6 1049.1,549.6 			"/>
			<polygon class="st2" points="1192,459.4 1139.4,459.4 1139.4,459.4 1139.4,549.5 1137.4,549.6 1192,549.6 1192,549.6 			"/>
			<polygon class="st2" points="1139.4,459.4 1137.5,459.4 1049.1,459.4 1049.1,549.6 1137.4,549.6 1137.5,459.5 			"/>
			<polygon class="st0" points="1040,337.5 1040,427.8 1049.1,549.6 1049.1,549.6 1049.1,459.4 			"/>
			<polygon class="st3" points="1049.1,459.4 1137.5,459.4 1122.4,337.5 1040,337.5 			"/>
			<polygon class="st3" points="1139.4,459.4 1192,459.4 1192,459.4 1173.8,337.5 1124.2,337.5 			"/>
			<polygon class="st0" points="1139.4,459.4 1137.5,459.5 1137.4,549.6 1139.4,549.5 			"/>
			<polygon class="st2" points="1137.5,459.4 1139.4,459.4 1139.4,459.4 1124.2,337.5 1122.4,337.5 			"/>
		</g>
		<g>
			<rect x="1430.5" y="459.4" class="st2" width="216.2" height="90.2"/>
			<polygon class="st0" points="1349.1,204.8 1349.1,295.1 1430.5,549.6 1430.5,459.4 			"/>
			<polygon class="st3" points="1430.5,459.4 1646.7,459.4 1530.1,204.6 1349.1,204.8 			"/>
		</g>
	</g>
	<g id="Слой_8">
		<g>
			
				<rect x="456" y="542.5" transform="matrix(-0.2266 0.974 -0.974 -0.2266 1232.2729 106.5729)" class="st3" width="235.6" height="0"/>
			<polygon class="st3" points="622.7,427.8 548.7,747.4 623.1,427.8 			"/>
			<polygon class="st3" points="547.1,657.3 600.5,427.8 621.5,337.5 521.9,337.5 425.5,657.3 			"/>
			<polygon class="st2" points="547.1,657.3 547.1,657.3 425.5,657.3 427.1,747.5 548.7,747.5 547.1,657.3 			"/>
			<polygon class="st0" points="623.1,425.9 621.5,337.5 600.5,427.8 547.1,657.3 547.1,657.3 548.7,747.5 548.7,747.5 548.7,747.4 
				622.7,427.8 			"/>
		</g>
		<g>
			<polygon class="st3" points="791.3,747.5 791.3,747.5 806.7,592.4 			"/>
			<polygon class="st3" points="789.7,657.3 805.1,502.2 621.5,502.2 587.1,657.3 			"/>
			<polygon class="st2" points="791.3,747.5 791.3,747.5 791.3,747.5 			"/>
			<polygon class="st2" points="587.1,657.3 588.7,747.5 791.3,747.5 789.7,657.3 			"/>
			<polygon class="st0" points="806.7,592.4 805.1,502.2 789.7,657.3 791.3,747.5 791.3,747.5 			"/>
		</g>
		<g>
			<polygon class="st3" points="1938.9,657.3 1938.9,657.3 1848.3,502.2 1750.4,502.2 1830.8,657.3 			"/>
			<polygon class="st0" points="1750.4,502.2 1750.4,592.4 1830.8,747.5 1830.8,657.3 			"/>
			<polygon class="st2" points="1938.9,657.3 1830.8,657.3 1830.8,747.5 1938.9,747.5 1938.9,747.5 			"/>
		</g>
		<g>
			<polygon class="st3" points="1034.5,657.3 1026.2,502.2 841.5,499 832.2,657.3 			"/>
			<rect x="832.2" y="657.3" class="st2" width="202.3" height="90.2"/>
		</g>
		<g>
			<polygon class="st2" points="1615.5,592.4 1681.3,745.9 1681.3,745.9 			"/>
			<rect x="1681.3" y="655.7" class="st2" width="106.8" height="90.2"/>
			<polygon class="st2" points="1681.3,745.9 1681.3,745.9 1681.3,745.9 			"/>
			<polygon class="st0" points="1681.3,655.7 1615.5,502.2 1615.5,592.4 1681.3,745.9 1681.3,745.9 1681.3,655.7 			"/>
			<polygon class="st3" points="1681.3,655.7 1681.3,655.7 1788.1,655.7 1715.4,502.2 1615.5,502.2 			"/>
		</g>
		<g>
			<rect x="1546.4" y="655.7" class="st2" width="0" height="90.2"/>
			<polygon class="st3" points="1525.1,594.7 1525.1,594.7 1525.1,594.7 1616.5,594.7 1617.3,596.5 1525.8,596.5 1525.8,596.6 
				1546.4,655.7 1546.4,655.7 1641.4,655.7 1579,502.2 1492.8,502.2 			"/>
			<polygon class="st2" points="1641.4,655.7 1546.4,655.7 1546.4,745.9 1641.4,745.9 1641.4,745.9 1641.4,655.7 			"/>
			<polygon class="st0" points="1525.8,596.6 1525.8,686.8 1546.4,745.9 1546.4,655.7 			"/>
			<polygon class="st0" points="1492.8,502.2 1492.8,592.4 1525.1,684.9 1525.1,594.7 			"/>
			<polygon class="st2" points="1617.3,596.5 1616.5,594.7 1525.1,594.7 1525.1,594.7 1525.1,594.7 1525.8,596.5 1525.8,596.5 			
				"/>
			<polygon class="st4" points="1525.8,596.5 1525.8,596.5 1525.1,594.7 1525.1,594.7 1525.1,594.7 1525.1,684.9 1525.1,684.9 
				1525.8,686.8 1525.8,686.8 1525.8,596.6 			"/>
		</g>
		<g>
			<rect x="1356.9" y="657.3" class="st2" width="0" height="90.2"/>
			<polygon class="st2" points="1507.6,657.3 1356.9,657.3 1356.9,747.5 1507.6,747.5 1507.6,747.5 1507.6,657.3 			"/>
			<polygon class="st3" points="1339.6,580.8 1356.9,657.3 1356.9,657.3 1507.6,657.3 1481.6,578.8 1482.2,580.6 			"/>
			<polygon class="st3" points="1339.2,578.8 1339.2,578.8 1481.6,578.8 1456.3,502.2 1321.9,502.2 1339.2,578.8 			"/>
			<polygon class="st0" points="1339.2,578.8 1321.9,502.2 1321.9,592.4 1338.7,667 			"/>
			<polygon class="st0" points="1339.6,580.8 1339.6,580.8 1339.2,669 1356.9,747.5 1356.9,657.3 			"/>
			<polygon class="st2" points="1339.2,578.8 1339.2,578.8 1339.6,580.8 1339.6,580.8 1339.6,580.8 1482.2,580.6 1481.6,578.8 
				1481.6,578.8 1481.6,578.8 1339.2,578.8 			"/>
			<polygon class="st0" points="1339.6,580.8 1339.6,580.8 1339.2,578.8 1339.2,578.8 1339.2,578.8 1338.7,667 1338.7,667 
				1339.2,669 1339.2,669 			"/>
		</g>
		<g>
			<rect x="1069" y="582.7" class="st5" width="0" height="9.6"/>
			<polygon class="st2" points="1069.3,592.4 1073.8,657.3 1069.3,592.4 			"/>
			<polygon class="st3" points="1068.7,582.8 1069.3,592.4 1073.8,657.3 1156.9,657.3 1147.7,582.8 1068.7,582.8 1068.5,580.8 
				1147.5,580.8 1137.8,502.2 1063.1,502.2 1068.6,581 1068.7,582.8 			"/>
			<rect x="1073.8" y="657.3" class="st2" width="83.1" height="90.2"/>
			<polygon class="st0" points="1069.3,592.4 1068.7,582.8 1068.7,673.1 1073.8,747.5 1073.8,657.3 			"/>
			<polygon class="st0" points="1068.5,580.8 1063.1,502.2 1063.1,592.4 1068.6,671.2 			"/>
			<polygon class="st2" points="1068.7,582.8 1147.7,582.8 1147.7,582.8 1147.5,580.8 1147.5,580.8 1068.5,580.8 			"/>
			<polygon class="st0" points="1068.7,582.8 1068.7,582.8 1068.7,582.8 1068.6,581 1068.5,580.8 1068.5,580.8 1068.6,671.2 
				1068.6,671.4 1068.7,673.2 1068.7,673.1 			"/>
		</g>
		<g>
			<rect x="1185.2" y="581.7" class="st5" width="0" height="10.7"/>
			<polygon class="st2" points="1185.9,592.4 1194.6,657.3 1185.9,592.4 			"/>
			<polygon class="st2" points="1258.4,657.3 1256.5,657.4 1256.5,657.3 1194.6,657.3 1194.6,747.5 1318.6,747.5 1300.1,657.3 			
				"/>
			<polygon class="st3" points="1245.7,581.8 1184.5,581.8 1185.9,592.4 1194.6,657.3 1256.5,657.3 			"/>
			<polygon class="st3" points="1286.8,502.2 1173.8,502.2 1184.2,579.8 1302.7,579.8 			"/>
			<polygon class="st3" points="1247.7,581.8 1258.5,657.3 1258.4,657.3 1300.1,657.3 1318.6,657.3 1302.8,580.1 1303.1,581.8 			
				"/>
			<polygon class="st6" points="1184.2,579.8 1184.2,579.8 1184.2,579.8 1184.2,579.8 1184.2,579.8 1184.2,579.8 1174.1,504.5 
				1173.8,592.4 1184.2,669.9 			"/>
			<polygon class="st6" points="1185.9,592.4 1184.5,581.8 1184.4,581.8 1184.4,671.8 1194.6,747.5 1194.6,657.3 			"/>
			<polygon class="st2" points="1184.4,581.8 1184.4,581.8 1184.5,581.8 1184.5,581.8 1245.7,581.8 1245.7,581.4 1247.6,580.8 
				1247.7,581.8 1303.1,581.8 1302.8,580.1 1302.7,579.8 1302.7,579.8 1184.2,579.8 1184.2,579.8 1184.2,579.8 			"/>
			<polygon class="st2" points="1184.2,579.8 1184.2,579.8 1184.2,579.8 			"/>
			<polygon class="st0" points="1184.4,581.8 1184.4,581.8 1184.2,579.8 1184.2,579.8 1184.2,579.8 1184.2,579.8 1184.2,669.9 
				1184.2,670.1 1184.4,672.1 1184.4,671.8 			"/>
			<polygon class="st2" points="1247.7,581.8 1247.6,580.8 1245.7,581.4 1245.7,581.8 1256.5,657.3 1256.5,657.4 1258.4,657.3 
				1258.5,657.3 			"/>
			<rect x="1194.6" y="657.3" class="st2" width="124" height="90.2"/>
			<polygon class="st0" points="1256.5,747.5 1256.5,657.3 1258.5,657.3 1258.5,747.3 			"/>
		</g>
	</g>
	<g id="Слой_10">
		<g>
			<polyline class="st7" points="925.4,785.5 925.4,798.2 925.4,829.7 925.4,875.6 			"/>
			<polygon class="st2" points="1316.4,782.3 1316.1,782.3 1316.1,782.4 1077.5,784.3 1077.4,784.3 1077.4,784.3 993.8,784.9 
				993.8,784.9 991.9,784.9 991.9,784.9 925.4,785.5 925.4,798.2 925.4,875.6 991.8,875.1 991.8,875.1 991.8,785 993.8,784.9 
				993.8,875.1 1077.3,874.4 1077.4,784.3 1079.3,784.3 1079.3,874.4 1149,873.8 1149,783.8 1151,783.7 1151,873.8 1237.4,873.2 
				1237.5,783.1 1239.4,783 1239.4,873.1 1316.4,872.5 			"/>
			<polygon class="st3" points="993.8,784.9 1077.4,784.3 1068.2,708 1070.1,708 1079.3,784.3 1077.5,784.3 1316.1,782.4 
				1316.1,782.3 1300.5,708 1226.6,708 1239.4,783 1237.5,783 1224.6,708 1140.9,708 1151,783.7 1149,783.7 1138.9,708 990.4,708 
							"/>
			<polygon class="st3" points="988.4,708 925.1,708 925.1,785.5 925.4,785.5 925.4,785.5 991.9,784.9 			"/>
			<polygon class="st2" points="991.9,784.9 991.9,784.9 993.8,784.9 993.8,784.9 990.4,708 990.4,708 988.4,708 988.4,708 			"/>
			<polygon class="st2" points="1070.1,708 1068.2,708 1077.4,784.3 1077.4,784.3 1077.5,784.3 1079.3,784.3 			"/>
			<polygon class="st2" points="1149,783.7 1151,783.7 1140.9,708 1140.9,708 1138.9,708 1138.9,708 			"/>
			<polygon class="st2" points="1237.5,783 1239.4,783 1226.6,708 1226.6,708 1224.6,708 1224.6,708 			"/>
			<polygon class="st0" points="993.8,784.9 991.8,785 991.8,875.1 991.8,875.1 993.8,875.1 993.8,875.1 			"/>
			<polygon class="st0" points="1079.3,784.3 1077.4,784.3 1077.3,874.4 1077.3,874.4 1079.3,874.4 1079.3,874.4 			"/>
			<polygon class="st0" points="1151,783.7 1149,783.8 1149,873.8 1149,873.8 1151,873.8 1151,873.8 			"/>
			<polygon class="st0" points="1239.4,783 1237.5,783.1 1237.4,873.2 1237.4,873.2 1239.4,873.2 1239.4,873.1 			"/>
		</g>
		<g>
			<polygon class="st0" points="1389.1,785.5 1371.8,711.1 1371.8,801.3 1389.1,875.7 			"/>
			<polygon class="st2" points="1531.5,785.5 1463.2,785.5 1463.1,875.7 1531.4,875.7 			"/>
			<polygon class="st2" points="1461.2,785.5 1461.2,785.5 1389.1,785.5 1389.1,875.7 1461.1,875.7 			"/>
			<polygon class="st2" points="1602,785.5 1533.5,785.5 1533.4,875.7 1601.9,875.7 			"/>
			<polygon class="st2" points="1816.3,785.5 1816.2,785.5 1816.3,875.7 1925.8,875.7 1925.8,785.5 			"/>
			<polygon class="st2" points="1672.5,785.8 1672.4,785.5 1603.9,785.5 1603.9,875.7 1672.5,875.7 			"/>
			<polygon class="st2" points="1744.3,785.5 1744.3,785.5 1674.5,785.5 1675,786.8 1674.4,786.9 1674.5,875.7 1744.3,875.7 			"/>
			<polygon class="st2" points="1814.3,785.5 1814.1,785.5 1746.3,785.5 1746.2,785.5 1746.3,875.7 1814.3,875.7 			"/>
			<path class="st3" d="M1463.2,785.5L1463.2,785.5h68.3h0l-20.5-75.3l2,0l20.5,75.3h0h68.5h1.9h68.6l-28.8-76.1l1.1,0l-207.1,1.3
				l1.7,0L1463.2,785.5z M1578,709.8l25.9,75.7h-1.9l-26-75.7L1578,709.8z"/>
			<polygon class="st3" points="1461.2,785.5 1437.4,710.7 1371.8,711.1 1389.1,785.5 			"/>
			<polygon class="st3" points="1744.3,785.5 1714.8,709 1716.9,709 1746.3,785.5 1814.1,785.5 1779.1,708.6 1779.2,708.6 
				1645.5,709.4 1674.5,785.5 			"/>
			<polygon class="st3" points="1925.8,785.5 1884.4,707.9 1781.3,708.6 1816.3,785.5 			"/>
			<polygon class="st2" points="1461.2,785.5 1463.2,785.5 1439.3,710.7 1437.6,710.7 1437.4,710.7 1437.4,710.7 1461.2,785.5 			
				"/>
			<polygon class="st2" points="1511,710.2 1531.5,785.5 1533.5,785.5 1513,710.2 			"/>
			<polygon class="st2" points="1603.9,785.5 1578,709.8 1575.9,709.8 1601.9,785.5 			"/>
			<polygon class="st2" points="1672.4,785.5 1672.5,785.8 1672.5,785.5 1674.4,785.5 1674.4,786.9 1675,786.8 1674.5,785.5 
				1645.5,709.4 1645.5,709.4 1644.7,709.4 1643.6,709.4 			"/>
			<polygon class="st2" points="1714.8,709 1744.3,785.5 1744.3,785.5 1746.2,785.5 1746.3,785.5 1716.9,709 			"/>
			<polygon class="st2" points="1814.1,785.5 1814.3,785.5 1816.2,785.5 1816.3,785.5 1781.3,708.6 1781.3,708.5 1779.2,708.6 
				1779.1,708.6 			"/>
			<polygon class="st0" points="1463.2,785.5 1463.2,785.5 1461.2,785.5 1461.1,875.7 1463.1,875.7 			"/>
			<polygon class="st0" points="1533.5,785.5 1533.5,785.5 1531.5,785.5 1531.5,785.5 1531.4,875.7 1533.4,875.7 			"/>
			<polygon class="st0" points="1603.9,785.5 1602,785.5 1601.9,875.7 1603.9,875.7 			"/>
			<polygon class="st0" points="1674.4,786.9 1674.4,785.5 1672.5,785.5 1672.5,785.8 1672.5,875.7 1674.5,875.7 			"/>
			<polygon class="st0" points="1746.2,785.5 1744.3,785.5 1744.3,875.7 1746.3,875.7 			"/>
			<polygon class="st0" points="1816.2,785.5 1814.3,785.5 1814.3,875.7 1816.3,875.7 			"/>
		</g>
	</g>
</g>
<g id="Слой_2">
</g>
</svg>
