<?xml version="1.0" encoding="UTF-8" standalone="no"?>
<svg
   xmlns:dc="http://purl.org/dc/elements/1.1/"
   xmlns:cc="http://creativecommons.org/ns#"
   xmlns:rdf="http://www.w3.org/1999/02/22-rdf-syntax-ns#"
   xmlns:svg="http://www.w3.org/2000/svg"
   xmlns="http://www.w3.org/2000/svg"
   xmlns:sodipodi="http://sodipodi.sourceforge.net/DTD/sodipodi-0.dtd"
   xmlns:inkscape="http://www.inkscape.org/namespaces/inkscape"
   inkscape:version="1.0 (4035a4fb49, 2020-05-01)"
   sodipodi:docname="auto-red.svg"
   version="1.1"
   width="512"
   viewBox="0 0 511.982 511.982"
   height="512"
   enable-background="new 0 0 511.982 511.982"
   id="Layer_1">
  <metadata
     id="metadata19">
    <rdf:RDF>
      <cc:Work
         rdf:about="">
        <dc:format>image/svg+xml</dc:format>
        <dc:type
           rdf:resource="http://purl.org/dc/dcmitype/StillImage" />
        <dc:title></dc:title>
      </cc:Work>
    </rdf:RDF>
  </metadata>
  <defs
     id="defs17" />
  <sodipodi:namedview
     inkscape:current-layer="g12"
     inkscape:window-maximized="1"
     inkscape:window-y="-9"
     inkscape:window-x="-9"
     inkscape:cy="182.6019"
     inkscape:cx="140.49573"
     inkscape:zoom="1.4142136"
     showgrid="false"
     id="namedview15"
     inkscape:window-height="1001"
     inkscape:window-width="1920"
     inkscape:pageshadow="2"
     inkscape:pageopacity="0"
     guidetolerance="10"
     gridtolerance="10"
     objecttolerance="10"
     borderopacity="1"
     bordercolor="#666666"
     pagecolor="#ffffff" />
  <g
     id="g12">
    <g
       style="fill:#e6006a;fill-opacity:1"
       id="g10">
      <path
         style="fill:#e6006a;fill-opacity:1"
         id="path2"
         d="m493.606 82.526-53.556-28.539c-6.543-3.485-11.585-5.919-19.482-8.793-7.906-2.877-13.331-4.253-20.577-5.786l-59.369-12.564c-16.638-3.521-31.895 4.011-37.102 18.316l-10.26 28.192c-1.889 5.189.787 10.928 5.977 12.816l5.593 2.036-4.929 19.352c-12.997-7.295-27.974-11.463-43.909-11.463s-30.913 4.168-43.91 11.464l-4.929-19.352 5.592-2.035c2.492-.906 4.522-2.767 5.643-5.17 1.121-2.404 1.241-5.154.334-7.646l-10.261-28.194c-5.207-14.306-20.464-21.839-37.102-18.316l-59.368 12.564c-7.247 1.533-12.672 2.91-20.577 5.786-7.897 2.875-12.939 5.309-19.482 8.794l-53.555 28.538c-15.01 7.997-21.855 23.574-16.648 37.878l10.261 28.191c1.478 4.062 5.313 6.583 9.398 6.583 1.135 0 2.291-.195 3.419-.605l5.592-2.035 8.744 18.16c-4.55 2.211-6.784 7.55-5.015 12.408 1.478 4.062 5.313 6.583 9.398 6.583 1.135 0 2.291-.195 3.419-.605l.893-.325 8.744 18.159c-4.55 2.211-6.783 7.55-5.015 12.408 1.478 4.062 5.313 6.583 9.398 6.583 1.135 0 2.291-.195 3.419-.606l.893-.325 8.743 18.159c-4.55 2.212-6.783 7.55-5.014 12.408 1.478 4.062 5.313 6.583 9.398 6.583 1.135 0 2.29-.195 3.419-.605l.893-.325 8.743 18.159c-4.55 2.212-6.783 7.551-5.014 12.409 1.478 4.062 5.313 6.583 9.398 6.583 1.135 0 2.291-.195 3.419-.605l.893-.325 14.469 30.049c-1.836 3.272-2.859 6.996-2.863 10.853v18.756l-24.198 15.85c-6.332 4.142-10.117 11.127-10.124 18.695v30.889c0 12.325 10.028 22.353 22.354 22.353h43.789l17.26 29.896c3.982 6.927 11.387 11.234 19.334 11.241h109.502c30.756 0 57.72-16.515 72.512-41.138h49.996c12.326 0 22.354-10.027 22.354-22.353v-30.9c-.007-7.559-3.792-14.544-10.118-18.682l-24.204-15.854v-18.767c-.004-3.852-1.028-7.575-2.862-10.844l14.468-30.047.893.325c1.129.41 2.284.605 3.419.605 4.084 0 7.92-2.522 9.398-6.583 1.768-4.858-.464-10.196-5.014-12.408l8.743-18.159.893.325c1.129.41 2.284.605 3.419.605 4.084 0 7.92-2.522 9.398-6.583 1.768-4.858-.464-10.196-5.014-12.408l8.743-18.159.893.325c1.129.411 2.284.606 3.419.606 4.084 0 7.92-2.522 9.398-6.583 1.769-4.858-.465-10.197-5.015-12.408l8.744-18.16.893.325c1.129.41 2.284.605 3.419.605 4.084 0 7.92-2.522 9.398-6.583 1.769-4.858-.465-10.197-5.015-12.408l8.744-18.16 5.592 2.035c1.107.402 2.265.603 3.42.603 1.446 0 2.89-.313 4.226-.937 2.404-1.121 4.264-3.151 5.171-5.644l10.261-28.191c5.211-14.302-1.636-29.878-16.644-37.875zm-167.615 103.566c0 38.598-31.402 70-70 70s-70-31.402-70-70 31.402-70 70-70 70 31.402 70 70zm-243.538-63.142c-1.889-5.19-7.629-7.864-12.817-5.978l-42.273 15.386-6.84-18.794c-2.005-5.509 2.201-10.693 7.259-13.389l53.554-28.535c5.994-3.193 10.054-5.152 16.918-7.65 6.872-2.501 11.24-3.609 17.878-5.015l59.368-12.564c5.605-1.185 12.161.082 14.167 5.59l6.841 18.795-42.279 15.388c-5.189 1.89-7.866 7.628-5.977 12.817 1.889 5.19 7.625 7.867 12.817 5.977l27.196-9.899 4.961 19.478-135.22 49.216-8.72-18.11 27.19-9.896c5.19-1.889 7.865-7.627 5.977-12.817zm95.426 18.476c-4.385 7.639-7.678 15.978-9.674 24.805l-92.759 33.762-8.72-18.11zm-11.859 46.883c.17 6.977 1.136 13.759 2.813 20.259l-75.949 27.643-8.719-18.109zm9.952 38.946c3.174 6.146 7.038 11.879 11.485 17.102l-77.133 28.074-8.719-18.109zm28.127 32.33c3.7 2.62 7.608 4.965 11.69 7.012-2.774.594-5.411 1.707-7.795 3.318l-77.372 44.671-11.577-24.043zm85.581 206.413c-35.585 0-64.536-28.951-64.536-64.536s28.951-64.536 64.536-64.536 64.536 28.951 64.536 64.536-28.951 64.536-64.536 64.536zm-84.536-64.536c0 .582.032 1.157.044 1.736-2.1.477-4.252.728-6.395.728-15.908 0-28.85-12.942-28.85-28.85s12.942-28.851 28.85-28.851c7.805 0 15.116 3.116 20.472 8.528-8.913 13.393-14.121 29.452-14.121 46.709zm208.327-11.8c.993.649 1.071 1.67 1.071 1.957v30.889c0 1.297-1.056 2.353-2.354 2.353h-41.292c2.146-7.436 3.32-15.281 3.32-23.398 0-46.613-37.923-84.536-84.536-84.536-22.151 0-42.328 8.575-57.417 22.566-8.947-8.441-20.827-13.266-33.47-13.266-26.936 0-48.85 21.914-48.85 48.851 0 26.936 21.914 48.85 48.85 48.85 3.061 0 6.131-.313 9.151-.891 4.492 17.005 14.166 31.919 27.219 42.963h-54.977c-.808-.001-1.576-.464-2.013-1.225l-20.156-34.913c-1.787-3.094-5.088-5-8.661-5h-49.562c-1.298 0-2.354-1.056-2.354-2.353v-30.879c0-.297.079-1.317 1.077-1.971l28.724-18.814c2.821-1.848 4.521-4.993 4.521-8.365v-24.149c0-.635.318-1.494 1.225-2.016l85.357-49.281c.273-.157.539-.328.795-.511.4-.284.856-.429 1.357-.429h70.988c.5 0 .957.145 1.357.429.257.183.522.354.795.511l85.375 49.292c.889.511 1.207 1.37 1.208 1.994v24.16c0 3.372 1.7 6.518 4.521 8.365zm-32.11-75.076-77.372-44.672c-2.383-1.611-5.021-2.724-7.794-3.318 4.082-2.047 7.989-4.391 11.689-7.011l85.054 30.957zm20.298-42.155-77.133-28.074c4.447-5.223 8.311-10.956 11.485-17.102l74.367 27.067zm17.439-36.22-75.948-27.643c1.677-6.5 2.644-13.283 2.813-20.259l81.855 29.793zm17.439-36.218-92.759-33.762c-1.996-8.827-5.289-17.167-9.674-24.805l111.153 40.457zm17.44-36.219-135.221-49.218 4.961-19.478 138.98 50.585zm37.483-50.209-6.84 18.794-169.145-61.564 6.84-18.795c2.005-5.508 8.561-6.774 14.167-5.59l59.369 12.564c6.637 1.404 11.005 2.513 17.878 5.015 6.864 2.498 10.924 4.457 16.917 7.649l53.555 28.537c5.058 2.696 9.264 7.881 7.259 13.39z" />
      <path
         style="fill:#e6006a;fill-opacity:1"
         id="path4"
         d="m255.992 226.092c22.056 0 40-17.944 40-40s-17.944-40-40-40-40 17.944-40 40 17.944 40 40 40zm0-60c11.028 0 20 8.972 20 20s-8.972 20-20 20-20-8.972-20-20 8.971-20 20-20z" />
      <path
         style="fill:#e6006a;fill-opacity:1"
         id="path6"
         d="m303.779 391.462h-28.2c-5.523 0-10 4.478-10 10s4.477 10 10 10h28.2c5.523 0 10-4.478 10-10s-4.477-10-10-10z" />
      <path
         style="fill:#e6006a;fill-opacity:1"
         id="path8"
         d="m115.356 120.974c5.523 0 10-4.478 10-10s-4.477-10-10-10h-.007c-5.523 0-9.996 4.478-9.996 10s4.48 10 10.003 10z" />
    </g>
    <path
       transform="scale(0.99996484)"
       id="path844"
       d="m 173.53974,484.59671 c -7.12096,-2.25421 -9.69555,-5.28917 -20.57186,-24.2504 l -8.92933,-15.56695 -22.84871,-0.009 c -25.245037,-0.01 -27.638952,-0.28425 -33.108864,-3.79428 -3.786221,-2.42961 -6.449096,-5.50722 -8.442701,-9.75762 l -1.60454,-3.42093 v -20.66506 -20.66506 l 1.60454,-3.42092 c 0.882503,-1.88151 2.548045,-4.50002 3.701205,-5.81892 1.153166,-1.31889 8.134255,-6.36419 15.513532,-11.21178 l 13.416868,-8.81378 v -11.10856 c 0,-9.60692 0.17442,-11.63989 1.2903,-15.0391 l 1.29031,-3.93053 -7.07403,-14.74267 -7.07402,-14.74266 -3.448441,0.20541 c -5.487357,0.32686 -9.927026,-2.82227 -10.700757,-7.59021 -0.583587,-3.59622 0.309304,-6.38302 2.83297,-8.84197 l 2.339242,-2.27925 -4.284287,-9.02294 -4.28428,-9.02293 -3.795314,0.29253 c -3.256659,0.25101 -4.096993,0.0867 -5.92099,-1.15747 -2.917419,-1.99008 -4.553685,-5.00203 -4.503972,-8.29065 0.04417,-2.92147 1.926373,-6.62005 3.908886,-7.68106 0.648229,-0.34692 1.178599,-0.91514 1.178599,-1.26272 0,-0.34757 -1.915934,-4.62559 -4.257631,-9.5067 l -4.257638,-8.87476 -2.338711,0.64575 c -6.71041,1.85284 -13.438589,-5.09845 -11.428515,-11.80747 0.405287,-1.35273 1.744388,-3.43798 2.975777,-4.63389 l 2.238892,-2.17439 -4.353793,-8.84206 -4.353793,-8.84207 -4.026717,0.0591 c -3.166032,0.0465 -4.391727,-0.21276 -5.734419,-1.21277 -5.692833,-4.23986 -6.015817,-10.89085 -0.761912,-15.68955 l 1.819128,-1.66151 -4.379691,-8.86372 c -2.40883,-4.87505 -4.487112,-8.97114 -4.618405,-9.10244 -0.131293,-0.13129 -1.923687,0.3444 -3.983099,1.05711 -2.059412,0.7127 -4.446171,1.29581 -5.30391,1.29581 -2.211281,0 -5.28905,-1.43054 -6.944907,-3.22799 -0.827861,-0.89865 -3.897517,-8.29328 -7.3951281,-17.81444 l -5.97975889,-16.27805 -0.006192,-7.09397 C 0.92785923,103.75853 1.0440088,103.08044 2.835588,99.315663 5.2771062,94.185133 8.9982846,89.521701 13.104834,86.44612 15.976557,84.295353 62.862829,58.945018 77.416867,51.674073 c 14.485807,-7.23686 20.821757,-9.038996 63.360763,-18.021729 36.53268,-7.714407 40.39503,-8.214048 47.4092,-6.132946 7.63192,2.264385 14.78252,7.691175 17.99553,13.657311 2.14272,3.97875 12.80559,33.637427 12.80559,35.61864 0,4.396229 -3.44234,8.221234 -8.96564,9.962302 -2.50418,0.789375 -3.30997,1.316749 -3.10377,2.031366 0.15319,0.530863 1.29854,4.99026 2.54524,9.909778 1.2467,4.919515 2.33557,9.022915 2.41972,9.118655 0.0841,0.0957 2.75805,-1.09577 5.94198,-2.64781 12.04506,-5.871453 23.97038,-8.538924 38.17452,-8.538924 14.20414,0 26.12946,2.667471 38.17452,8.538924 3.18393,1.55204 5.85783,2.74355 5.94198,2.64781 0.0842,-0.0957 1.17302,-4.19914 2.41972,-9.118655 1.2467,-4.919518 2.39205,-9.378915 2.54524,-9.909778 0.2062,-0.714617 -0.59959,-1.241991 -3.10377,-2.031366 -5.5233,-1.741068 -8.96564,-5.566073 -8.96564,-9.962302 0,-1.981213 10.66287,-31.63989 12.80559,-35.61864 3.21301,-5.966136 10.36361,-11.392926 17.99553,-13.657311 7.01417,-2.081102 10.87652,-1.581461 47.4092,6.132946 42.54142,8.983242 48.88115,10.786544 63.36076,18.022612 15.79068,7.891262 61.51777,32.657696 64.46265,34.913874 4.20926,3.224865 8.66965,9.026399 10.57951,13.76056 1.22051,3.0254 1.44705,4.66437 1.43444,10.37832 l -0.015,6.78554 -5.97207,16.27805 c -3.49829,9.53527 -6.55835,16.91446 -7.38743,17.81444 -1.65586,1.79745 -4.73363,3.22799 -6.94491,3.22799 -0.85774,0 -3.2445,-0.58311 -5.30391,-1.29582 -2.05942,-0.7127 -3.8518,-1.1884 -3.9831,-1.0571 -0.13129,0.13129 -2.20957,4.22738 -4.61841,9.10243 l -4.37969,8.86372 1.81913,1.66151 c 5.25391,4.79871 4.93092,11.44969 -0.76191,15.68956 -1.34394,1.00093 -2.56797,1.25919 -5.74633,1.21243 l -4.03863,-0.0594 -4.31892,8.8647 -4.31893,8.86469 2.21593,2.15209 c 1.21877,1.18365 2.54754,3.25887 2.95282,4.6116 2.01008,6.70902 -4.7181,13.6603 -11.42851,11.80747 l -2.33871,-0.64575 -4.25764,8.87476 c -2.34168,4.88109 -4.25762,9.15911 -4.25762,9.50668 0,0.34758 0.53037,0.9158 1.1786,1.26272 1.98252,1.06101 3.86472,4.75959 3.90889,7.68106 0.0497,3.28862 -1.58655,6.30057 -4.50397,8.29065 -1.82287,1.24345 -2.66517,1.40843 -5.91275,1.15814 l -3.78706,-0.29188 -4.34403,9.16469 -4.34402,9.16468 1.73215,1.23339 c 2.53704,1.80654 3.93156,5.16208 3.59612,8.65311 -0.52673,5.48178 -4.81894,8.89413 -10.74217,8.54011 l -3.43678,-0.20541 -7.08001,14.75993 -7.08002,14.75992 1.28463,3.91327 c 1.10918,3.37878 1.28464,5.43054 1.28464,15.02184 v 11.10856 l 13.41687,8.81378 c 7.37928,4.84759 14.36036,9.89289 15.51353,11.21178 1.15316,1.3189 2.8187,3.93741 3.7012,5.81892 l 1.60455,3.42092 v 20.66506 c 0,20.17904 -0.033,20.73644 -1.39975,23.70026 -3.03403,6.57895 -8.47501,11.2113 -15.23716,12.97262 -3.02685,0.78839 -8.21803,0.95946 -29.60354,0.97557 l -25.93305,0.0196 -2.58905,3.83588 c -11.84398,17.54782 -29.49576,29.63046 -51.31729,35.12669 -5.25757,1.32423 -5.97186,1.3398 -68.54185,1.49362 -51.04367,0.12548 -63.72534,-0.002 -65.80484,-0.66 z m 56.14889,-24.56779 c -9.44301,-9.71517 -16.05509,-20.42474 -19.77642,-32.03182 -1.64497,-5.13079 -1.78623,-5.34539 -3.26161,-4.95529 -3.3788,0.89336 -15.03966,0.30459 -19.90857,-1.00519 -21.44881,-5.76997 -36.22637,-24.93465 -36.22637,-46.9812 0,-19.24347 10.80889,-35.96401 28.47443,-44.04782 6.88137,-3.14894 12.11921,-4.25946 19.94967,-4.22974 11.07242,0.042 20.51506,3.23732 29.36478,9.93674 l 4.03834,3.0571 4.8888,-3.91467 c 22.47469,-17.99644 51.81941,-23.25845 79.01168,-14.16815 12.64233,4.2263 23.14422,10.81144 32.90363,20.63199 13.05498,13.13677 21.00672,28.88907 23.84211,47.23094 1.24512,8.05461 0.78424,21.78656 -0.99275,29.57839 -0.69245,3.0363 -1.259,5.60401 -1.259,5.70602 0,0.102 9.72253,0.18547 21.60563,0.18547 h 21.60563 l 0.6016,-1.58233 c 0.33224,-0.87385 0.6016,-8.43872 0.6016,-16.89552 0,-13.70722 -0.11322,-15.44134 -1.07952,-16.53517 -0.59374,-0.6721 -7.18651,-5.19007 -14.6506,-10.03994 -16.83854,-10.94101 -16.00836,-10.3249 -17.53898,-13.01657 -1.18298,-2.08036 -1.27548,-3.22911 -1.27548,-15.84028 0,-10.67232 -0.1813,-13.77855 -0.84279,-14.44004 -0.46354,-0.46354 -20.41403,-12.14216 -44.33442,-25.9525 l -43.49163,-25.1097 h -35.92363 -35.92365 l -43.8769,25.33491 c -24.1323,13.93421 -44.08518,25.6624 -44.33973,26.06265 -0.25455,0.40026 -0.46707,6.79693 -0.47226,14.21484 -0.009,12.6814 -0.0893,13.62918 -1.3463,15.8657 -1.08947,1.93844 -4.08598,4.16846 -16.19277,12.05078 -8.17076,5.3197 -15.341704,10.21667 -15.935439,10.88216 -0.966625,1.08344 -1.079518,2.81136 -1.079518,16.52316 0,8.4568 0.269361,16.02167 0.6016,16.89552 l 0.6016,1.58233 25.769487,0.004 c 15.77714,0.002 26.65658,0.24981 28.05724,0.63882 1.25827,0.34946 3.0626,1.42424 4.00964,2.38839 0.94703,0.96417 6.00356,9.2126 11.23672,18.32986 5.23316,9.11726 10.0405,17.34021 10.68297,18.27322 l 1.16813,1.69639 h 28.42941 28.42941 l -6.14577,-6.3229 z m 73.50173,4.85985 c 14.36024,-3.13589 27.7356,-11.3382 36.85027,-22.59804 4.8255,-5.96119 10.27319,-16.43108 12.15254,-23.35587 4.89874,-18.05024 1.89586,-37.27907 -8.25322,-52.84914 -14.23788,-21.84283 -39.91295,-32.88991 -65.90613,-28.35708 -24.00765,4.18659 -43.74225,22.16219 -50.79923,46.27136 -2.30251,7.86618 -2.7533,21.97327 -0.97574,30.53494 2.55381,12.30049 7.96166,22.55554 16.64355,31.56163 10.32484,10.71039 22.98302,17.3284 37.51614,19.61436 4.96761,0.78136 17.50095,0.32886 22.77182,-0.82216 z m -98.74925,-61.21501 c 0.71563,-0.27461 0.97576,-1.22451 0.97576,-3.56317 0,-12.41491 4.45831,-28.45801 11.15295,-40.13356 l 3.16209,-5.51472 -2.06837,-1.70507 c -16.58881,-13.67508 -41.67746,-5.51362 -47.10482,15.32345 -3.84431,14.75931 5.51187,31.06695 20.06828,34.97861 3.42017,0.91908 12.02308,1.30174 13.81411,0.61446 z M 169.49698,292.56644 c 39.47959,-22.84653 44.16171,-25.46283 45.56826,-25.46283 0.4611,0 0.83837,-0.27759 0.83837,-0.61686 0,-0.33928 -0.23161,-0.61687 -0.51469,-0.61687 -0.28308,0 -2.98243,-1.49816 -5.99856,-3.32925 l -5.48386,-3.32925 -2.7918,1.07948 c -1.5355,0.59372 -20.64338,7.55948 -42.46198,15.47947 -36.78524,13.35278 -39.64665,14.49362 -39.34696,15.6877 0.60683,2.41779 10.92128,23.14438 11.51765,23.14438 0.32706,0 17.73016,-9.91619 38.67357,-22.03597 z m 217.57416,11.10764 c 2.91495,-6.01059 5.44534,-11.50781 5.6231,-12.21605 0.29969,-1.19408 -2.56172,-2.33492 -39.34696,-15.6877 -21.8186,-7.91999 -40.92648,-14.88575 -42.46198,-15.47947 l -2.7918,-1.07948 -5.48386,3.32925 c -3.01613,1.83109 -5.71548,3.32925 -5.99856,3.32925 -1.27461,0 -0.3402,1.17403 1.20442,1.51329 0.94551,0.20766 19.89105,10.89838 42.1012,23.75713 22.21015,12.85875 40.71339,23.39813 41.11831,23.42083 0.40492,0.0227 3.12117,-4.87647 6.03613,-10.88705 z m -237.94343,-44.982 c 21.12,-7.6805 38.4,-14.15562 38.4,-14.38916 0,-0.23354 -1.28183,-2.06929 -2.84851,-4.07944 -1.56669,-2.01014 -4.10247,-5.80613 -5.63507,-8.43553 -1.5326,-2.6294 -2.92475,-4.78072 -3.09367,-4.78072 -0.60905,0 -73.869,26.70279 -74.27311,27.07207 -0.43904,0.40123 8.05563,18.5757 8.68268,18.57672 0.20222,3.3e-4 17.64768,-6.28344 38.76768,-13.96394 z m 257.24455,4.86455 c 2.40053,-5.00434 4.1782,-9.26913 3.95039,-9.47733 -0.40411,-0.36928 -73.66406,-27.07207 -74.27311,-27.07207 -0.16892,0 -1.56107,2.15132 -3.09367,4.78072 -1.5326,2.6294 -4.06838,6.42539 -5.63507,8.43553 -1.56668,2.01015 -2.84851,3.84588 -2.84851,4.07939 0,0.40649 75.46406,28.19334 76.85925,28.30058 0.37186,0.0286 2.64019,-4.04249 5.04072,-9.04682 z m -137.06577,-8.50658 c 14.01385,-2.53061 26.69229,-9.44274 37.09021,-20.22115 10.64142,-11.03083 16.79432,-23.33347 19.02896,-38.04818 5.44398,-35.84765 -16.62375,-69.26278 -52.04879,-78.81268 -5.4153,-1.45986 -7.01617,-1.608 -17.37687,-1.608 -10.3607,0 -11.96157,0.14814 -17.37687,1.608 -15.96423,4.30365 -29.1618,13.12586 -38.8304,25.95708 -15.709,20.8474 -18.44633,49.30507 -7.0126,72.9038 3.18917,6.58232 6.87354,11.81894 12.29727,17.47824 6.21334,6.48319 11.40637,10.4047 18.84549,14.23114 8.55628,4.40108 15.7669,6.44902 27.14217,7.70888 3.49613,0.38721 12.87697,-0.22843 18.24143,-1.19713 z M 131.22858,222.6371 c 20.61657,-7.49273 37.57883,-13.717 37.6939,-13.83172 0.11508,-0.11472 -0.23973,-2.37951 -0.78846,-5.03287 -0.54872,-2.65336 -1.17023,-7.25512 -1.38112,-10.22612 -0.21088,-2.971 -0.58749,-5.40181 -0.83691,-5.40181 -0.63381,0 -81.4035,29.40237 -81.766292,29.76516 -0.477443,0.47744 8.236766,18.3505 8.946997,18.3505 0.355969,0 17.515315,-6.13041 38.131885,-13.62314 z m 292.61955,4.59561 c 2.36369,-4.96513 4.16467,-9.16047 4.00217,-9.32297 -0.36279,-0.36279 -81.13248,-29.76516 -81.76629,-29.76516 -0.24942,0 -0.62603,2.43081 -0.83691,5.40181 -0.21089,2.971 -0.8324,7.57276 -1.38112,10.22612 -0.54873,2.65336 -0.90354,4.91817 -0.78846,5.0329 0.41103,0.40981 74.86631,27.39933 75.66159,27.4268 0.44956,0.0155 2.72791,-3.99775 5.10902,-8.9995 z M 125.83334,182.02925 c 23.23629,-8.44558 42.42449,-15.72946 42.64045,-16.1864 0.21596,-0.45694 1.26628,-3.63902 2.33404,-7.07129 1.06776,-3.43226 3.17538,-8.77587 4.68361,-11.87469 1.50822,-3.09882 2.54327,-5.63441 2.30009,-5.63465 -1.0869,-0.001 -111.169843,40.31424 -111.169843,40.71333 0,0.24631 1.933244,4.50879 4.296099,9.47217 l 4.296094,9.02434 4.185834,-1.54361 c 2.302205,-0.84898 23.197336,-8.45362 46.433626,-16.8992 z m 315.48342,8.93418 c 2.33589,-4.95419 4.12088,-9.13382 3.96664,-9.28806 -0.36173,-0.36173 -110.46353,-40.41272 -111.09622,-40.41272 -0.26256,0 0.55087,2.01253 1.80763,4.47229 1.25675,2.45976 3.55732,8.17886 5.11237,12.70912 l 2.82737,8.23682 46.24959,16.82762 c 25.43728,9.25519 46.39268,16.74548 46.56757,16.64509 0.17489,-0.10038 2.22916,-4.23595 4.56505,-9.19016 z M 125.45807,139.63698 c 37.02216,-13.44737 67.49178,-24.62039 67.71028,-24.82892 0.51322,-0.4898 -4.43091,-19.81047 -5.06947,-19.81047 -0.26564,0 -7.04629,2.368327 -15.06812,5.26295 -15.79139,5.69822 -16.81055,5.85266 -20.77079,3.14756 -5.70146,-3.894485 -5.29914,-13.007098 0.71149,-16.115313 0.9579,-0.495356 10.99867,-4.25786 22.31281,-8.361119 11.31413,-4.10326 20.78783,-7.671806 21.05265,-7.930102 0.80895,-0.788996 -6.65701,-20.344554 -8.50265,-22.270991 -2.0624,-2.15269 -6.23398,-3.357741 -10.03667,-2.899317 -3.44291,0.415051 -62.33208,12.861889 -69.52085,14.693954 -6.82361,1.739002 -15.508155,5.053885 -22.840605,8.718236 -9.63481,4.814941 -55.786647,29.397164 -59.156735,31.509132 -3.560133,2.23105 -6.539651,6.54918 -6.539651,9.47773 0,1.86551 6.373692,20.84283 7.371653,21.9487 0.237149,0.26279 10.403736,-3.1556 22.592415,-7.59642 25.240315,-9.19604 25.411058,-9.22477 29.832572,-5.01868 3.956453,3.76368 4.160062,9.40667 0.477548,13.2349 -1.642181,1.70716 -4.402169,2.93377 -16.168164,7.18556 -7.803373,2.81984 -14.373233,5.23482 -14.599687,5.36661 -0.388217,0.22593 8.165607,18.71469 8.66499,18.72904 0.128687,0.004 30.52483,-10.99567 67.546984,-24.44304 z m 333.30226,15.16151 4.43745,-9.2748 -1.66154,-0.63911 c -6.89445,-2.65196 -137.19288,-49.88699 -137.61389,-49.88699 -0.44953,0 -5.28916,17.66192 -5.30516,19.36082 -0.004,0.46684 133.36602,49.49106 135.08883,49.65588 0.33928,0.0325 2.61372,-4.11465 5.05431,-9.2158 z m 29.87951,-32.38603 c 1.96217,-5.40878 3.57947,-10.82076 3.594,-12.02663 0.0371,-3.08525 -2.83044,-7.32571 -6.51325,-9.63147 -4.39565,-2.752064 -53.06271,-28.566415 -61.35569,-32.544751 -9.03148,-4.332606 -17.51887,-7.125693 -29.87815,-9.832492 -26.15607,-5.728427 -60.27591,-12.728924 -62.03972,-12.728924 -3.14361,0 -6.54803,1.273239 -8.30339,3.105439 -2.30121,2.401944 -9.33624,21.665798 -8.18093,22.401662 1.38674,0.88328 167.93114,61.397806 168.53968,61.239526 0.31342,-0.0815 2.17527,-4.57358 4.13745,-9.98236 z"
       style="fill:#e6006a;stroke-width:0.616867;fill-opacity:1" />
    <path
       transform="scale(0.99996484)"
       id="path846"
       d="m 247.67229,224.90586 c -11.65138,-2.68107 -21.69509,-10.54559 -26.85872,-21.03116 -3.19156,-6.48096 -4.29309,-11.06785 -4.29309,-17.87694 0,-14.89697 8.07508,-28.04092 21.57469,-35.11751 5.72152,-2.99926 10.9771,-4.24541 17.90483,-4.24541 6.92773,0 12.18331,1.24615 17.90483,4.24541 13.57855,7.11797 21.57469,20.23175 21.57469,35.3828 0,6.66962 -1.13852,11.24096 -4.46309,17.92008 -4.47876,8.99793 -12.68155,16.03767 -22.77897,19.54921 -5.58553,1.94245 -14.91098,2.4746 -20.56517,1.17352 z m 17.37373,-20.78639 c 4.39115,-2.09276 7.12967,-4.94229 9.39714,-9.77807 2.28991,-4.88362 2.28689,-11.85296 -0.007,-16.68357 -1.94032,-4.08567 -5.32193,-7.56802 -9.49137,-9.77414 -2.70971,-1.43376 -3.79613,-1.63198 -8.94458,-1.63198 -5.14845,0 -6.23487,0.19822 -8.94458,1.63198 -1.69638,0.89758 -4.16338,2.70059 -5.48222,4.00667 -7.42183,7.35006 -7.65127,19.90512 -0.51234,28.03591 5.63808,6.42142 15.64059,8.1701 23.98516,4.1932 z"
       style="fill:#e6006a;fill-opacity:1;stroke-width:0.616867" />
    <path
       transform="scale(0.99996484)"
       id="path848"
       d="m 112.63612,120.2637 c -2.58941,-0.77457 -5.84192,-4.1865 -6.57061,-6.89265 -1.84635,-6.8568 5.01,-13.682 11.72378,-11.6705 5.02783,1.50637 8.15615,6.83334 6.85363,11.6705 -0.76592,2.84444 -3.99567,6.10775 -6.85716,6.92841 -2.42439,0.69531 -2.71236,0.69331 -5.14964,-0.0358 z"
       style="fill:#e6006a;fill-opacity:1;stroke-width:0.616867" />
    <path
       transform="scale(0.99996484)"
       id="path850"
       d="m 273.56782,410.90051 c -3.04191,-0.76724 -5.08675,-2.4647 -6.50945,-5.40362 -1.66232,-3.43389 -1.3511,-6.78741 0.90433,-9.74443 2.89594,-3.79678 4.8247,-4.12508 23.01411,-3.91741 17.99158,0.20542 17.83416,0.16903 21.05886,4.86745 2.80103,4.08113 0.88839,10.80187 -3.80478,13.36946 -1.69107,0.92516 -4.04632,1.08568 -17.37788,1.18439 -8.48193,0.0628 -16.26026,-0.0973 -17.28519,-0.35584 z"
       style="fill:#e6006a;fill-opacity:1;stroke-width:0.616867" />
    <path
       transform="scale(0.99996484)"
       id="path852"
       d="m 172.704,483.92771 c -5.907,-1.85761 -9.0268,-5.78275 -20.83399,-26.21205 l -7.30869,-12.64578 -19.07584,-0.41106 c -30.752859,-0.66268 -30.445449,-0.63717 -35.061246,-2.90952 -4.592733,-2.261 -8.217607,-6.01494 -10.531871,-10.90691 l -1.550194,-3.27683 V 407.13253 386.6995 l 1.641762,-3.47039 c 2.388035,-5.0479 5.274877,-7.58279 19.422695,-17.05476 l 12.697684,-8.5011 0.44906,-11.79644 c 0.32483,-8.53303 0.75306,-12.77316 1.54792,-15.32706 l 1.09885,-3.53062 -7.12372,-14.84451 -7.12373,-14.8445 h -3.66464 c -6.578811,0 -10.309737,-3.29366 -10.309737,-9.10142 0,-2.41226 0.388152,-3.58665 1.85447,-5.61084 1.01996,-1.40802 2.130321,-2.56003 2.46747,-2.56003 1.090295,0 0.680744,-1.17644 -3.550855,-10.19977 l -4.163856,-8.87887 -4.428368,-0.0222 c -4.138656,-0.0207 -4.568002,-0.15381 -6.562822,-2.03517 -1.184182,-1.11683 -2.480356,-3.16755 -2.911386,-4.60621 -0.668358,-2.23076 -0.628052,-2.98298 0.288416,-5.38272 0.585944,-1.53426 1.737506,-3.31829 2.559031,-3.9645 0.821526,-0.64622 1.493683,-1.65048 1.493683,-2.2317 0,-0.58123 -1.824583,-4.86466 -4.054626,-9.51873 l -4.054633,-8.46196 -4.118861,0.0461 c -4.723458,0.0528 -6.590001,-0.94749 -8.703622,-4.66443 -2.259224,-3.973 -1.644106,-7.03023 2.230739,-11.08713 l 2.126622,-2.22654 -4.502948,-9.03129 -4.502948,-9.03129 -3.711066,-0.002 c -4.33135,-0.002 -7.069491,-1.36732 -8.957772,-4.46435 -2.32541,-3.81397 -1.076888,-9.26575 2.824825,-12.33483 l 1.469946,-1.15627 -4.61705,-9.21871 c -2.539377,-5.07029 -4.9623,-9.21571 -5.384273,-9.21204 -0.421973,0.004 -2.129896,0.42006 -3.795384,0.9253 -6.445,1.95516 -10.355932,0.60515 -12.923101,-4.46091 -0.82401,-1.62595 -3.8872519,-9.34914 -6.8072046,-17.16249 L 1.2337349,117.46859 v -6.59651 c 0,-4.66685 0.2987306,-7.36708 1.0212016,-9.23068 C 3.7943852,97.670422 8.3624633,91.024409 11.361711,88.392124 15.179397,85.041536 71.969268,54.25155 84.511257,48.732349 94.958913,44.134774 106.79436,41.091097 145.3932,33.075574 c 29.5893,-6.144584 34.59852,-6.894447 39.66704,-5.938013 8.09404,1.527353 17.58285,8.117868 20.79655,14.44438 3.37858,6.651102 12.51429,32.838627 12.51429,35.872232 0,3.130406 -2.31749,5.903926 -6.78554,8.120774 -2.2053,1.094173 -4.26939,2.082926 -4.58686,2.197225 -0.54857,0.197509 3.65929,18.061928 4.62085,19.617758 0.32943,0.53304 2.44613,-0.14456 7.57624,-2.42532 13.3553,-5.937499 22.05184,-7.774568 36.80423,-7.774568 14.75239,0 23.44893,1.837069 36.80423,7.774568 5.13011,2.28076 7.24681,2.95836 7.57624,2.42532 0.96156,-1.55583 5.16942,-19.420249 4.62085,-19.617758 -0.31747,-0.114299 -2.38156,-1.103052 -4.58686,-2.197225 -4.46805,-2.216848 -6.78554,-4.990368 -6.78554,-8.120774 0,-3.067812 8.90056,-28.648654 12.37324,-35.561554 4.39272,-8.744387 17.86575,-16.220417 27.10627,-15.040963 7.64677,0.976028 13.15863,2.000118 33.49837,6.223918 38.15985,7.924361 49.34607,10.761972 59.64862,15.131079 9.30723,3.947009 61.95836,32.021016 71.05581,37.887537 4.53108,2.921877 8.61396,7.643948 11.36276,13.141638 1.54092,3.081902 1.76348,4.283742 1.97809,10.681902 l 0.24183,7.20929 -5.37283,14.37687 c -2.95505,7.90729 -6.04701,15.70733 -6.87102,17.33344 -2.56717,5.06606 -6.47811,6.41607 -12.92311,4.46091 -1.66548,-0.50524 -3.3734,-0.92162 -3.79538,-0.9253 -0.42197,-0.004 -2.84978,4.15151 -5.39513,9.23373 l -4.62792,9.2404 1.42303,0.9324 c 2.08416,1.36559 4.12421,5.38543 4.12156,8.12138 -0.005,5.2593 -4.13913,8.85453 -10.18587,8.85829 l -3.71106,0.002 -4.48825,9.0018 -4.48824,9.0018 2.47238,2.68222 c 2.74524,2.97824 3.44721,4.88602 2.9424,7.99679 -0.79874,4.92206 -5.50001,8.18068 -10.78999,7.47893 l -3.0081,-0.39903 -4.11024,8.57801 c -2.26063,4.71775 -4.11024,9.0534 -4.11024,9.63463 0,0.58122 0.67216,1.58548 1.49369,2.23169 0.82152,0.64622 1.97308,2.43025 2.55903,3.96451 0.91647,2.39974 0.95677,3.15195 0.28841,5.38272 -0.43103,1.43866 -1.7272,3.48938 -2.91138,4.60621 -1.99961,1.88588 -2.41421,2.01344 -6.56282,2.01932 l -4.42837,0.006 -1.01104,2.30697 c -0.55606,1.26885 -2.49431,5.45569 -4.3072,9.30411 l -3.29617,6.99714 1.70279,1.24039 c 5.06414,3.68897 4.58539,12.49864 -0.83726,15.40684 -1.37634,0.73811 -3.39816,1.12716 -5.85787,1.12716 h -3.75612 l -7.11678,14.8737 -7.11678,14.8737 1.08068,3.47811 c 0.77308,2.48811 1.20927,6.84123 1.53247,15.2936 l 0.45179,11.8155 12.70404,8.50536 c 14.15422,9.47625 17.04086,12.01076 19.42906,17.05902 l 1.64176,3.47039 v 19.5048 c 0,11.68341 -0.26187,20.54194 -0.65304,22.09121 -1.65097,6.53884 -9.3642,13.79009 -16.17197,15.20337 -1.85443,0.38499 -14.65601,0.87482 -29.43148,1.12617 l -26.14953,0.44483 -3.66289,5.15683 c -10.87632,15.31234 -26.73596,26.29848 -46.99615,32.55476 l -5.55181,1.71438 -64.77108,0.15538 c -54.65005,0.1311 -65.2078,0.0181 -67.56588,-0.72352 z m 57.44847,-24.1095 c -9.35951,-9.80304 -15.68931,-19.92401 -19.83325,-31.71219 -0.77523,-2.2053 -1.63322,-4.30723 -1.90663,-4.67095 -0.31419,-0.41797 -2.39376,-0.56177 -5.65132,-0.3908 -20.91169,1.09759 -39.01476,-9.69168 -47.56382,-28.34762 -2.8436,-6.20535 -4.067,-12.16909 -4.05421,-19.763 0.0144,-8.55805 1.21726,-13.79565 4.85955,-21.16016 4.99555,-10.10079 12.35054,-17.178 23.05338,-22.18274 7.74306,-3.62072 11.11746,-4.35043 19.88359,-4.29982 11.28775,0.0652 19.91415,2.9536 29.14872,9.76008 2.12143,1.56363 4.02521,2.84297 4.23061,2.84297 0.2054,0 2.11738,-1.38769 4.24885,-3.08376 26.43091,-21.03172 59.87603,-24.96533 89.47145,-10.52308 22.75246,11.10294 38.85283,31.10017 45.19475,56.13345 1.51605,5.9843 1.65066,7.5182 1.65428,18.8517 0.003,9.49157 -0.24459,13.45531 -1.07356,17.18405 -0.59263,2.66569 -1.07751,5.2334 -1.07751,5.70603 0,0.71833 3.58219,0.85932 21.8328,0.85932 19.3396,0 21.87555,-0.11143 22.20722,-0.97576 0.20595,-0.53666 0.37444,-8.2608 0.37444,-17.16475 0,-16.00194 -0.016,-16.20366 -1.38795,-17.45605 -0.76338,-0.69687 -7.35615,-5.21642 -14.65061,-10.04344 -7.29445,-4.82703 -13.9136,-9.37128 -14.70921,-10.09833 -2.83206,-2.58802 -3.06483,-3.80826 -3.53351,-18.52312 l -0.44756,-14.05144 -2.33563,-1.47443 c -2.62876,-1.65945 -41.87646,-24.48933 -68.14928,-39.64153 l -17.31013,-9.9832 h -36.61596 -36.61596 l -17.3221,9.9882 c -29.45272,16.98292 -61.52557,35.65049 -66.1106,38.4788 l -4.37404,2.69816 -0.41812,13.9497 c -0.30913,10.31301 -0.65154,14.40105 -1.31342,15.681 -1.17857,2.27909 -3.24447,3.84581 -17.89628,13.572 -6.78555,4.50439 -12.961932,8.7579 -13.725305,9.45224 -1.373357,1.24915 -1.387854,1.4348 -1.378508,17.6561 0.0049,9.01652 0.213387,16.70254 0.462651,17.08004 0.31343,0.47467 8.726552,0.82491 27.278042,1.13558 16.33659,0.27359 27.31069,0.69864 28.06747,1.08712 3.20236,1.64387 4.45718,3.5475 20.95496,31.78973 l 4.77457,8.1735 h 28.99757 28.99757 z m 69.42083,5.86599 c 25.24739,-3.51159 46.61839,-22.97033 53.36667,-48.59147 1.79719,-6.82337 2.20929,-19.11766 0.88181,-26.30719 -3.31905,-17.9758 -12.74389,-32.84525 -27.11607,-42.78074 -19.30956,-13.34869 -45.21245,-15.25438 -66.0792,-4.86149 -12.76821,6.35932 -24.1895,18.31349 -30.29266,31.70601 -3.83684,8.41939 -4.65699,12.35103 -5.00931,24.01371 -0.35837,11.86259 0.32814,16.79888 3.58992,25.81325 6.11775,16.90722 21.7155,32.03561 39.42289,38.23659 2.54458,0.89109 6.43084,2.00732 8.63614,2.48051 4.89459,1.05023 16.10287,1.19446 22.59981,0.29082 z m -94.51022,-62.1795 c 0.18475,-0.29891 0.61673,-3.74701 0.95998,-7.66244 0.65568,-7.47937 3.19657,-18.40877 5.81344,-25.00587 0.85317,-2.15083 3.074,-6.78774 4.93518,-10.30424 l 3.38396,-6.39363 -2.98467,-2.19095 c -16.0637,-11.79184 -38.74048,-5.61374 -45.72765,12.45812 -2.06743,5.34729 -2.33915,13.60408 -0.63259,19.22257 2.65946,8.75568 10.0712,16.58365 18.11497,19.13226 4.05381,1.28442 15.4779,1.81125 16.13738,0.74418 z M 151.47406,303.30246 c 10.83867,-6.21497 28.29148,-16.24598 38.78404,-22.29112 10.49256,-6.04515 20.55521,-11.66775 22.36145,-12.49467 1.80624,-0.82693 3.28406,-1.74455 3.28406,-2.03916 0,-0.50319 -11.21233,-7.39317 -12.0312,-7.39317 -0.43464,0 -56.7557,20.47763 -71.46464,25.98365 -11.3768,4.25869 -13.35235,5.19968 -13.35235,6.3599 0,1.59616 11.07655,23.17452 11.89588,23.17452 0.44886,0 9.68411,-5.08498 20.52276,-11.29995 z m 232.42745,7.34527 c 2.65842,-4.8364 9.04307,-18.55797 9.04307,-19.43491 0,-1.31014 -1.14097,-1.75654 -50.79412,-19.87335 -18.60665,-6.78896 -34.15171,-12.2142 -34.54458,-12.05609 -0.39287,0.15811 -3.30799,1.81112 -6.47803,3.67336 -4.05536,2.38231 -5.51807,3.53829 -4.93494,3.90005 0.45582,0.28279 2.77191,1.53929 5.14685,2.79221 2.37494,1.25292 21.07752,11.88 41.5613,23.61572 20.48378,11.73573 37.59951,21.33769 38.03496,21.33769 0.43545,0 1.76992,-1.77961 2.96549,-3.95468 z M 135.19746,264.07858 c 20.22588,-7.33633 47.66992,-17.44723 51.25073,-18.88173 0.59374,-0.23785 1.07952,-0.64258 1.07952,-0.89939 0,-1.00036 -11.25758,-17.29023 -11.9489,-17.29023 -0.86977,0 -19.68074,6.73315 -49.12098,17.58223 -11.70506,4.31346 -22.18767,8.13792 -23.29469,8.4988 -2.45425,0.80007 -2.5294,0.47845 2.66238,11.39367 2.42126,5.09047 4.2344,8.17349 4.80686,8.17349 0.50555,0 11.55983,-3.85958 24.56508,-8.57684 z m 270.95389,0.40335 c 5.2103,-10.78239 5.16396,-10.58581 2.68551,-11.39326 -1.10702,-0.36066 -11.58963,-4.18732 -23.29469,-8.50369 -28.94218,-10.67275 -48.23819,-17.57775 -49.12098,-17.57775 -0.69132,0 -11.9489,16.28987 -11.9489,17.29023 0,0.25681 0.48578,0.65615 1.07952,0.88743 8.04791,3.13483 53.51425,19.84823 73.56144,27.04114 2.64139,0.94772 3.06126,0.48573 7.0381,-7.7441 z m -141.83833,-8.50948 c 18.24606,-2.09016 34.04662,-10.70085 45.93112,-25.03069 8.27466,-9.97724 12.99923,-20.21382 15.19719,-32.9273 1.47599,-8.53745 0.95909,-21.67299 -1.1719,-29.78073 -6.29722,-23.95888 -25.04884,-42.97748 -49.45497,-50.15908 -4.6976,-1.38229 -7.11787,-1.68105 -15.73012,-1.94179 -11.30512,-0.34225 -16.3329,0.21537 -24.18427,2.68225 -22.06555,6.93294 -38.94706,23.76996 -46.00975,45.8885 -2.65281,8.30794 -3.44089,14.67903 -3.04348,24.60455 0.73849,18.44429 7.37466,33.56369 20.47816,46.6561 15.51956,15.50641 35.89994,22.53846 57.98802,20.00819 z M 102.17183,233.44747 c 22.02419,-7.8031 65.99141,-23.91427 66.46736,-24.35603 0.31078,-0.28845 0.12191,-3.35691 -0.44184,-7.17834 -0.54155,-3.671 -1.16479,-8.27069 -1.38497,-10.22153 -0.27387,-2.42661 -0.6714,-3.54699 -1.25855,-3.54699 -1.55074,0 -80.322874,28.72757 -81.297667,29.64862 -1.096623,1.03616 7.528442,18.46704 9.137782,18.46704 0.461373,0 4.411423,-1.26574 8.777885,-2.81277 z m 321.45257,-5.26701 c 2.11535,-4.27424 3.91969,-8.40016 4.00964,-9.1687 0.19237,-1.64359 0.0501,-1.70093 -43.63404,-17.57975 -33.24682,-12.08495 -37.77485,-13.6611 -38.1371,-13.27505 -0.35837,0.3819 -2.48153,16.30585 -2.53524,19.0146 -0.0393,1.98162 0.11747,2.12334 3.96873,3.58756 3.41905,1.2999 48.61603,17.74304 64.77108,23.56441 2.88386,1.03917 5.79855,1.83066 6.47711,1.75884 0.92004,-0.0974 2.21165,-2.10654 5.07982,-7.90191 z M 112.29835,187.30485 c 37.91558,-13.85581 55.48663,-20.49336 56.20672,-21.23236 0.23772,-0.24397 1.40542,-3.35827 2.59488,-6.92068 1.18947,-3.56241 3.27858,-8.97542 4.64249,-12.02892 1.77074,-3.96432 2.24961,-5.60366 1.67473,-5.73315 -0.86281,-0.19435 -24.35513,8.22905 -76.2509,27.34048 -17.812053,6.55957 -32.87133,12.11421 -33.465065,12.34365 -0.593735,0.22944 -1.079518,0.79028 -1.079518,1.24632 0,1.48136 8.185794,18.16174 8.912766,18.16174 0.38809,0 16.931846,-5.92968 36.763897,-13.17708 z m 328.72389,5.0411 c 2.11603,-4.47479 3.8924,-8.79948 3.94748,-9.61041 0.12127,-1.78528 5.7316,0.42249 -55.10948,-21.68657 -57.26162,-20.80832 -55.36997,-20.14004 -55.79796,-19.71205 -0.19109,0.19108 0.72857,2.68146 2.04369,5.53417 1.31513,2.85271 3.55746,8.53546 4.98298,12.62832 l 2.59185,7.44159 34.34755,12.46722 c 18.89116,6.85698 39.62177,14.38682 46.06804,16.73298 6.44626,2.34617 12.02604,4.28262 12.3995,4.30324 0.37346,0.0206 2.41032,-3.62371 4.52635,-8.09849 z M 64.831821,161.96319 c 3.189729,-1.16796 28.700709,-10.44121 56.691069,-20.60722 55.60718,-20.19635 71.75186,-26.10119 72.07995,-26.36292 0.31345,-0.25004 -4.27309,-18.46181 -4.90078,-19.459513 -0.42796,-0.680226 -2.72243,-0.07768 -11.80219,3.099358 -6.19903,2.169055 -13.41887,4.524135 -16.04411,5.233505 -4.73497,1.27945 -4.79086,1.28025 -6.98383,0.0992 -5.73565,-3.08886 -6.96553,-11.097498 -2.3399,-15.236907 0.62847,-0.562405 8.36002,-3.698902 17.18122,-6.969988 26.37835,-9.78164 28.06747,-10.458265 28.06747,-11.243239 0,-1.156229 -4.53098,-13.555262 -6.66987,-18.252107 -1.65351,-3.630995 -2.25194,-4.338101 -4.55658,-5.384043 -4.05407,-1.839915 -7.65706,-1.530179 -25.61415,2.201963 -52.28913,10.867599 -59.61954,12.789529 -72.812846,19.090534 -12.554721,5.996022 -60.50507,31.637985 -62.6971,33.527947 -2.769737,2.38806 -4.690415,5.81132 -4.690415,8.35981 0,2.21667 6.00491,21.37501 7.016881,22.38698 0.198835,0.19884 5.710535,-1.50895 12.248223,-3.79508 6.537686,-2.28613 16.59613,-5.79687 22.352096,-7.80165 5.755964,-2.00478 11.420368,-3.64505 12.587555,-3.64505 2.487839,0 5.800121,2.27901 7.174206,4.93619 1.316253,2.54535 1.163986,6.55985 -0.341177,8.99526 -1.57374,2.54636 -5.099915,4.23599 -20.42805,9.78846 l -11.515567,4.1714 0.799008,2.24711 c 1.888833,5.31213 7.709008,16.74351 8.524789,16.74351 0.481026,0 3.48437,-0.9556 6.674098,-2.12356 z m 394.058399,-6.78567 c 2.40749,-4.90007 4.37725,-9.17557 4.37725,-9.5011 0,-0.32553 -0.76337,-0.86296 -1.69639,-1.19429 -0.93301,-0.33133 -20.57253,-7.46682 -43.64337,-15.85665 -62.20609,-22.62156 -92.89619,-33.62789 -93.76819,-33.62789 -0.42739,0 -0.91772,0.485783 -1.08963,1.079518 -1.99167,6.878922 -4.76628,17.263172 -4.76628,17.838292 0,0.40275 2.29012,1.61722 5.08916,2.69883 11.77662,4.55072 114.96833,42.45162 127.22892,46.72943 3.60956,1.25941 3.66402,1.20563 8.26853,-8.16614 z m 27.2709,-25.48113 c 2.71348,-6.31295 6.09912,-17.0688 6.09912,-19.37632 0,-5.30233 -2.83001,-8.02971 -15.42169,-14.862451 C 459.65603,86.133693 430.53553,70.845876 424.12139,67.781908 414.94964,63.40066 405.11142,60.38601 387.38538,56.525176 359.8811,50.534585 334.89557,45.648193 331.76824,45.648193 c -1.84381,0 -4.00541,0.499133 -5.53002,1.276931 -2.09452,1.068546 -2.83531,1.999721 -4.53935,5.706024 -2.83932,6.175535 -5.86273,14.983545 -5.86273,17.079706 0,1.572109 0.37349,1.898589 3.54699,3.100564 8.61794,3.264076 62.85196,23.06089 104.71326,38.223032 25.1065,9.09357 48.70168,17.63987 52.43373,18.99179 3.73205,1.35191 7.14239,2.49002 7.57855,2.52914 0.43615,0.0391 1.35976,-1.24743 2.05245,-2.85899 z"
       style="fill:#e6006a;fill-opacity:1;stroke-width:0.616867" />
    <path
       transform="scale(0.99996484)"
       id="path854"
       d=""
       style="fill:#e6006a;fill-opacity:1;stroke-width:0.616867" />
    <path
       transform="scale(0.99996484)"
       id="path856"
       d=""
       style="fill:#e6006a;fill-opacity:1;stroke-width:0.616867" />
    <path
       transform="scale(0.99996484)"
       id="path858"
       d="m 178.38391,395.77347 c -3.99337,-4.11803 -6.69186,-9.06337 -7.94587,-14.56189 -0.6962,-3.05267 -0.89056,-6.39618 -0.54507,-9.37705 0.48684,-4.20047 2.03926,-8.54894 4.35615,-12.20194 4.94165,-7.79145 13.34487,-12.78785 22.7126,-13.5045 0.94506,-0.0723 3.31587,-0.0722 4.25833,2.4e-4 5.56679,0.42767 10.82185,2.41232 15.29209,5.7753 0.42032,0.31621 1.30743,1.02304 1.97137,1.57075 l 1.20716,0.99583 -1.89503,3.31156 c -2.04119,3.56696 -2.82552,5.02317 -3.75568,6.97282 -4.34534,9.10797 -7.35191,19.677 -8.31901,29.24391 -0.0743,0.73471 -0.15197,1.61186 -0.17266,1.94923 -0.0334,0.54482 -0.0488,0.61339 -0.1376,0.61339 -0.0892,0 -0.0971,-0.0368 -0.0729,-0.34077 0.26427,-3.33095 0.34303,-4.12353 0.60002,-6.03852 1.34763,-10.04185 4.52686,-19.79394 9.37846,-28.76781 1.04532,-1.93349 2.42727,-4.25514 3.49989,-5.87974 l 0.50555,-0.76573 -0.64186,-0.62106 c -4.17099,-4.03583 -9.85105,-6.79885 -15.69047,-7.63252 -1.54074,-0.21997 -2.08141,-0.25216 -4.2256,-0.25158 -2.13147,5.7e-4 -2.5652,0.0267 -4.11655,0.24851 -5.7771,0.82579 -11.30602,3.48787 -15.53931,7.48193 -2.67681,2.52554 -4.64601,5.17249 -6.21461,8.35355 -1.59345,3.23143 -2.49735,6.45729 -2.87223,10.25049 -0.0921,0.93146 -0.0921,4.03021 0,4.96167 0.39296,3.97614 1.38213,7.39124 3.11541,10.75594 1.40923,2.73565 3.14645,5.09015 5.41002,7.33237 0.84603,0.83804 0.90877,0.91327 0.76162,0.91327 -0.13482,0 -0.28204,-0.12547 -0.92418,-0.78765 z"
       style="fill:#e6006a;fill-opacity:1;stroke-width:0.0545239" />
    <path
       transform="scale(0.99996484)"
       id="path860"
       d=""
       style="fill:#e6006a;fill-opacity:1;stroke-width:0.0545239" />
    <path
       transform="scale(0.99996484)"
       id="path862"
       d="m 225.70318,392.52274 c -0.007,-0.2114 0.29966,-2.51037 0.48318,-3.62223 0.41679,-2.52513 0.86078,-4.32198 1.70428,-6.89727 4.45002,-13.58627 12.98833,-25.27616 24.4207,-33.43463 4.72742,-3.37363 9.95849,-6.11648 15.39787,-8.07371 0.93809,-0.33755 2.18305,-0.75225 2.79435,-0.93081 0.28457,-0.0831 0.28625,-0.0829 0.28625,0.0376 0,0.10931 -0.10339,0.15485 -1.04959,0.46235 -13.06665,4.24645 -24.53423,12.66358 -32.58748,23.91901 -3.28884,4.59658 -5.9725,9.62846 -7.95318,14.91229 -1.4939,3.98526 -2.63687,8.33816 -3.30716,12.59502 -0.10152,0.64474 -0.18667,1.1093 -0.18922,1.03234 z"
       style="fill:#e6006a;fill-opacity:1;stroke-width:0.0545239" />
    <path
       transform="scale(0.99996484)"
       id="path864"
       d="m 234.07157,368.33945 c 0.009,-0.0163 0.21102,-0.35159 0.30937,-0.51275 0.93408,-1.53072 1.98117,-3.09899 3.01104,-4.50977 l 0.0528,-0.0723 0.0208,-10e-4 0.0208,-10e-4 -0.01,0.0129 c -0.10287,0.13619 -0.53875,0.7463 -0.79482,1.11253 -0.88612,1.26732 -1.79999,2.67775 -2.54808,3.93262 l -0.0285,0.0479 h -0.0192 c -0.0186,0 -0.019,-2.4e-4 -0.0145,-0.009 z"
       style="fill:#e6006a;fill-opacity:1;stroke-width:0.00390625" />
    <path
       transform="scale(0.99996484)"
       id="path866"
       d="m 234.29373,368.34662 c 0,-0.002 0.0697,-0.11823 0.20118,-0.33438 0.9265,-1.52353 1.91817,-3.01233 2.95707,-4.43945 0.25556,-0.35105 0.23939,-0.33008 0.25443,-0.33008 0.007,0 0.0131,9.6e-4 0.0131,0.002 0,10e-4 -0.048,0.0675 -0.10668,0.14746 -1.13001,1.53953 -2.24905,3.21812 -3.21663,4.82502 -0.0739,0.12282 -0.0782,0.12897 -0.09,0.13013 -0.007,6.8e-4 -0.0124,3e-4 -0.0124,-8.3e-4 z"
       style="fill:#e6006a;fill-opacity:1;stroke-width:0.00390625" />
    <path
       transform="scale(0.99996484)"
       id="path868"
       d="m 229.88358,365.79545 v -2.55274 h 3.77757 c 3.02099,0 3.777,9.8e-4 3.77469,0.005 -0.002,0.003 -0.0532,0.0743 -0.11476,0.15918 -0.42281,0.58313 -0.7768,1.08739 -1.20382,1.71484 -0.63811,0.93764 -1.37899,2.09661 -1.95948,3.06528 l -0.0965,0.16098 -2.08887,1.5e-4 -2.08886,1.5e-4 z"
       style="fill:#e6006a;fill-opacity:1;stroke-width:0.00390625" />
    <path
       transform="scale(0.99996484)"
       id="path870"
       d=""
       style="fill:#e6006a;fill-opacity:1;stroke-width:0.00390625" />
    <path
       transform="scale(0.99996484)"
       id="path872"
       d="m 229.88358,365.79545 v -2.55274 h 3.77757 c 3.02101,0 3.77699,9.8e-4 3.77466,0.005 -0.002,0.003 -0.069,0.0963 -0.14986,0.208 -1.12333,1.55282 -2.19769,3.17841 -3.13986,4.75088 l -0.0848,0.1415 -2.08887,10e-5 -2.08886,1e-4 z"
       style="fill:#e6006a;fill-opacity:1;stroke-width:0.00390625" />
  </g>
</svg>
