<svg width="32" height="37" viewBox="0 0 32 37" fill="none" xmlns="http://www.w3.org/2000/svg">
<path d="M17.87 36.3923C25.1907 35.5723 31.0577 29.7202 31.8927 22.3995C32.9885 12.8274 25.5485 4.67922 16.2225 4.57485V0.280831C16.2225 0.0422744 15.9243 -0.0844588 15.723 0.0646391L6.88147 6.55785C6.73237 6.66968 6.73237 6.88587 6.88147 6.99769L15.723 13.4909C15.9243 13.64 16.2225 13.5058 16.2225 13.2747V8.98815C22.7753 9.09252 28.0236 14.6688 27.5763 21.3335C27.1961 27.0663 22.5218 31.7181 16.789 32.0834C10.7133 32.4711 5.54705 28.1323 4.62264 22.392C4.45118 21.326 3.51931 20.5507 2.44581 20.5507C1.11138 20.5507 0.067696 21.736 0.276433 23.0555C1.57359 31.2336 9.1254 37.3689 17.87 36.3923Z" fill="white"/>
</svg>
